<?xml version="1.0" encoding="utf-8"?>
<!-- Generator: Adobe Illustrator 19.0.0, SVG Export Plug-In . SVG Version: 6.00 Build 0)  -->
<svg version="1.1" id="Capa_1" xmlns="http://www.w3.org/2000/svg" xmlns:xlink="http://www.w3.org/1999/xlink" x="0px" y="0px"
	 viewBox="0 0 79 48.9" style="enable-background:new 0 0 79 48.9;" xml:space="preserve">
<style type="text/css">
	.st0{fill:#CAD0D1;}
	.st1{fill:#E7E9ED;}
	.st2{fill:#FFFFFF;}
	.st3{fill:#C1322F;}
	.st4{fill:#E5B527;}
	.st5{fill:#19935F;}
	.st6{fill:#AEB1B3;}
	.st7{fill:none;stroke:#758789;stroke-width:0.5;stroke-miterlimit:10;}
	.st8{fill:#C64F48;}
	.st9{fill:#1684B8;}
	.st10{fill:#178C75;}
	.st11{fill:#8E5391;}
</style>
<g id="XMLID_97_">
	<g id="XMLID_228_">
		<g id="XMLID_51_">
			<g id="XMLID_50_">
				<rect id="XMLID_42_" x="0" y="0" class="st0" width="79" height="7"/>
				<rect id="XMLID_41_" x="0" y="7" class="st1" width="79" height="42"/>
				<g id="XMLID_49_">
					<path id="XMLID_40_" class="st2" d="M75.8,5H22.3c-0.2,0-0.4-0.2-0.4-0.4V2.4C21.8,2.2,22,2,22.3,2h53.5c0.2,0,0.4,0.2,0.4,0.4
						v2.2C76.2,4.8,76,5,75.8,5z"/>
					<g id="XMLID_46_">
						<circle id="XMLID_39_" class="st3" cx="3.5" cy="3.5" r="1.2"/>
						<circle id="XMLID_47_" class="st4" cx="7.3" cy="3.5" r="1.2"/>
						<circle id="XMLID_48_" class="st5" cx="11.2" cy="3.5" r="1.2"/>
					</g>
				</g>
			</g>
			<rect id="XMLID_235_" x="0" y="6.9" class="st6" width="79" height="0.8"/>
		</g>
		<g id="XMLID_218_">
			<g id="XMLID_34_">
				<line id="XMLID_38_" class="st7" x1="39.5" y1="18.1" x2="10.7" y2="39.7"/>
				<line id="XMLID_37_" class="st7" x1="39.5" y1="18.1" x2="29.9" y2="39.7"/>
				<line id="XMLID_36_" class="st7" x1="39.5" y1="18.1" x2="68.2" y2="39.7"/>
				<line id="XMLID_35_" class="st7" x1="39.5" y1="18.1" x2="49" y2="39.7"/>
			</g>
			<line id="XMLID_52_" class="st7" x1="11.7" y1="40" x2="68.7" y2="40"/>
			<g id="XMLID_30_">
				<rect id="XMLID_33_" x="33" y="11.6" class="st8" width="13" height="13"/>
				<g id="XMLID_31_">
					<rect id="XMLID_32_" x="5" y="34" class="st9" width="11.4" height="11.4"/>
					<rect id="XMLID_44_" x="24.2" y="34" class="st10" width="11.4" height="11.4"/>
					<rect id="XMLID_45_" x="43.4" y="34" class="st4" width="11.4" height="11.4"/>
					<rect id="XMLID_83_" x="62.6" y="34" class="st11" width="11.4" height="11.4"/>
				</g>
			</g>
		</g>
	</g>
</g>
</svg>
