<?xml version="1.0" encoding="utf-8"?>
<!-- Generator: Adobe Illustrator 19.0.0, SVG Export Plug-In . SVG Version: 6.00 Build 0)  -->
<svg version="1.1" id="Capa_1" xmlns="http://www.w3.org/2000/svg" xmlns:xlink="http://www.w3.org/1999/xlink" x="0px" y="0px"
	 viewBox="0 0 69.6 57.4" style="enable-background:new 0 0 69.6 57.4;" xml:space="preserve">
<style type="text/css">
	.st0{fill:#C64F48;}
	.st1{fill:#E4E6EA;}
	.st2{fill:#214559;}
	.st3{fill:#B1B1B7;}
	.st4{fill:#F1F3F5;}
	.st5{fill:#E7E9ED;}
	.st6{fill:#DADCE0;}
	.st7{fill:#33383F;}
</style>
<g id="XMLID_12_">
	<g id="XMLID_117_">
		<g id="XMLID_1782_">
			<g id="XMLID_1786_">
				<g id="XMLID_1788_">
					<rect id="XMLID_1791_" x="10.5" class="st0" width="37.2" height="10.2"/>
					<rect id="XMLID_1789_" x="10.5" y="10.2" class="st1" width="37.2" height="42.5"/>
				</g>
				<polygon id="XMLID_1787_" class="st2" points="38.7,7.9 40.9,4.2 43,7.9 				"/>
			</g>
			<rect id="XMLID_1785_" x="21.3" y="12.9" class="st2" width="21.7" height="2.7"/>
			<rect id="XMLID_1784_" x="24.6" y="17.1" class="st3" width="18.4" height="1.3"/>
			<rect id="XMLID_1783_" x="24.6" y="19.6" class="st3" width="18.4" height="0.9"/>
		</g>
		<g id="XMLID_1779_">
			<rect id="XMLID_1781_" x="3.6" y="13.5" class="st0" width="15.1" height="9.6"/>
			<polygon id="XMLID_1780_" class="st2" points="9,20.1 11.2,16.4 13.3,20.1 			"/>
		</g>
		<g id="XMLID_1760_">
			<rect id="XMLID_1776_" x="30.6" y="24.7" class="st3" width="39" height="19.5"/>
			<polygon id="XMLID_1767_" class="st0" points="69.6,24.7 50.1,34.4 30.6,24.7 			"/>
			<polygon id="XMLID_1766_" class="st4" points="69.6,24.7 50.1,34.4 69.6,44.2 			"/>
			<polygon id="XMLID_1765_" class="st4" points="30.6,24.7 50.1,34.4 30.6,44.2 			"/>
			<polygon id="XMLID_1764_" class="st5" points="69.6,44.2 50.1,34.4 30.6,44.2 			"/>
			<polygon id="XMLID_1761_" class="st6" points="30.6,24.7 50.1,34.4 69.6,24.7 50.1,37.6 			"/>
		</g>
		<g id="XMLID_1089_">
			<g id="XMLID_1159_">
				<rect id="XMLID_1560_" x="2.1" y="27.2" class="st0" width="22.3" height="30.2"/>
				<polygon id="XMLID_1558_" class="st2" points="9.5,45.6 13.3,39 17.2,45.6 				"/>
			</g>
			<g id="XMLID_1119_">
				<path id="XMLID_1157_" class="st7" d="M0.9,29.6C0.4,29.6,0,30,0,30.5c0,0.5,0.4,0.9,0.9,0.9H3v-1.9H0.9z"/>
				<path id="XMLID_1156_" class="st7" d="M0.9,34.3c-0.5,0-0.9,0.4-0.9,0.9c0,0.5,0.4,0.9,0.9,0.9H3v-1.9H0.9z"/>
				<path id="XMLID_1154_" class="st7" d="M0.9,39C0.4,39,0,39.4,0,39.9s0.4,0.9,0.9,0.9H3V39H0.9z"/>
				<path id="XMLID_1137_" class="st7" d="M0.9,43.7c-0.5,0-0.9,0.4-0.9,0.9c0,0.5,0.4,0.9,0.9,0.9H3v-1.9H0.9z"/>
				<path id="XMLID_1134_" class="st7" d="M0.9,48.4c-0.5,0-0.9,0.4-0.9,0.9s0.4,0.9,0.9,0.9H3v-1.9H0.9z"/>
				<path id="XMLID_1121_" class="st7" d="M0.9,53.1c-0.5,0-0.9,0.4-0.9,0.9C0,54.6,0.4,55,0.9,55H3v-1.9H0.9z"/>
			</g>
		</g>
	</g>
</g>
</svg>
