<?xml version="1.0" encoding="utf-8"?>
<!-- Generator: Adobe Illustrator 19.0.0, SVG Export Plug-In . SVG Version: 6.00 Build 0)  -->
<svg version="1.1" id="Capa_1" xmlns="http://www.w3.org/2000/svg" xmlns:xlink="http://www.w3.org/1999/xlink" x="0px" y="0px"
	 viewBox="0 0 62.1 62.1" style="enable-background:new 0 0 62.1 62.1;" xml:space="preserve">
<style type="text/css">
	.st0{fill:#179480;}
	.st1{fill:#728290;}
	.st2{fill:#CBD2D3;}
	.st3{fill:#9E684D;}
	.st4{fill:#8C97A4;}
	.st5{fill:#D6DCDD;}
	.st6{fill:#B08169;}
	.st7{fill:#117C6B;}
	.st8{opacity:0.6;fill:#AFD3DE;}
	.st9{opacity:0.6;fill:#C1DCE5;}
</style>
<polygon id="XMLID_1342_" class="st0" points="22.6,22.1 15.2,14.8 10,20 17.3,27.3 22.6,32.5 27.8,27.3 48.1,7 42.9,1.8 "/>
<path id="XMLID_1340_" class="st1" d="M9.9,10.1L6.2,6.4c-8.3,8.4-8.3,22,0.1,30.4c7.8,7.8,20,8.4,28.4,1.8l2.1,2.1l1.8-1.8l-2-2
	l-1.6-1.6L33,33.2c-6.4,6.3-16.7,6.2-23-0.1C3.7,26.8,3.6,16.5,9.9,10.1z"/>
<polygon id="XMLID_1339_" class="st2" points="36.9,40.7 36.3,41.3 38,43 40.4,40.6 38.9,39.2 38.7,38.9 "/>
<path id="XMLID_1338_" class="st3" d="M38,43l-0.5,0.5l17.3,17.3c1.6,1.6,4.3,1.7,5.9,0.1L40.5,40.7l-0.1-0.1L38,43z"/>
<path id="XMLID_1336_" class="st4" d="M6.3,6.3c0,0-0.1,0.1-0.1,0.1l3.7,3.7c0,0,0.1-0.1,0.1-0.1c6.4-6.4,16.7-6.4,23.1,0
	c6.4,6.4,6.4,16.7,0,23.1c0,0-0.1,0.1-0.1,0.1l5.7,5.7l2-2l-2.1-2.1c6.6-8.5,6-20.7-1.8-28.4C28.4-2.1,14.7-2.1,6.3,6.3z"/>
<polygon id="XMLID_1335_" class="st5" points="40.7,36.9 38.7,38.9 38.9,39.2 40.4,40.6 43,38 41.3,36.3 "/>
<path id="XMLID_1334_" class="st6" d="M43,38l-2.6,2.6l0.1,0.1l20.2,20.2c0,0,0.1-0.1,0.1-0.1c1.7-1.7,1.7-4.4,0-6.1L43.5,37.4
	L43,38z"/>
<g id="XMLID_1331_">
	<path id="XMLID_1332_" class="st7" d="M41.6,13.5l1.1-1.1c-0.9-2.3-2.3-4.5-4-6.4l-1.1,1.1C39.3,9,40.7,11.2,41.6,13.5z"/>
</g>
<path id="XMLID_1341_" class="st8" d="M10,33.1c6.3,6.3,16.6,6.4,23,0.1L9.9,10.1C3.6,16.5,3.7,26.8,10,33.1z"/>
<path id="XMLID_1337_" class="st9" d="M33.1,10C26.7,3.6,16.4,3.6,10,10c0,0-0.1,0.1-0.1,0.1L33,33.2c0,0,0.1-0.1,0.1-0.1
	C39.5,26.7,39.5,16.4,33.1,10z"/>
</svg>
