<?xml version="1.0" encoding="utf-8"?>
<!-- Generator: Adobe Illustrator 19.0.0, SVG Export Plug-In . SVG Version: 6.00 Build 0)  -->
<svg version="1.1" id="Capa_1" xmlns="http://www.w3.org/2000/svg" xmlns:xlink="http://www.w3.org/1999/xlink" x="0px" y="0px"
	 viewBox="0 0 100.5 76.6" style="enable-background:new 0 0 100.5 76.6;" xml:space="preserve">
<style type="text/css">
	.st0{fill:#646C69;}
	.st1{fill:#4F5753;}
	.st2{fill:#A0CBE2;}
	.st3{fill:#B4D6E8;}
	.st4{fill:#C75336;}
	.st5{fill:#94ADBD;}
</style>
<g id="XMLID_1139_">
	<g id="XMLID_1141_">
		<g id="XMLID_1233_">
			<rect id="XMLID_1239_" x="29.4" y="67.9" class="st0" width="19.8" height="5.5"/>
			<rect id="XMLID_1238_" x="29.4" y="69" class="st1" width="19.8" height="1.4"/>
			<path id="XMLID_1237_" class="st0" d="M55.6,76.6c0-1.9-2.2-3.5-4.8-3.5H27.7c-2.6,0-4.8,1.6-4.8,3.5H55.6z"/>
			<g id="XMLID_1234_">
				<path id="XMLID_1236_" class="st0" d="M74.8,69h-71C1.7,69,0,67.3,0,65.3V21.8C0,19.7,1.7,18,3.7,18h71c2.1,0,3.7,1.7,3.7,3.7
					v43.5C78.5,67.3,76.8,69,74.8,69z"/>
				<path id="XMLID_1235_" class="st1" d="M69.4,64.8h-5.5c-0.4,0-0.7-0.3-0.7-0.7v-0.8c0-0.4,0.3-0.7,0.7-0.7h5.5
					c0.4,0,0.7,0.3,0.7,0.7v0.8C70,64.5,69.7,64.8,69.4,64.8z"/>
			</g>
		</g>
		<g id="XMLID_1230_">
			<polygon id="XMLID_1232_" class="st2" points="73.9,58.9 73.9,22.5 4.6,58.9 			"/>
			<polygon id="XMLID_1231_" class="st3" points="4.6,58.9 73.9,22.5 4.6,22.5 			"/>
		</g>
		<polygon id="XMLID_1193_" class="st4" points="89.3,8.1 73.7,26.5 56.1,47.2 43.8,30 31.4,47.4 22.6,36 4.5,56.9 4.5,59 8.6,59 
			22.4,43.2 31.6,55.1 43.8,37.8 56.3,55.3 73.7,36.2 95,12.8 		"/>
		<polygon id="XMLID_1192_" class="st5" points="73.7,36.2 56.3,55.3 73.9,40.4 73.9,36 		"/>
		<polygon id="XMLID_1182_" class="st1" points="73.9,36 73.9,40.4 78.5,36.3 78.5,30.9 		"/>
		<polygon id="XMLID_1142_" class="st4" points="82.9,5.4 100.5,0 98.8,18.3 		"/>
	</g>
</g>
</svg>
