<?xml version="1.0" encoding="utf-8"?>
<!-- Generator: Adobe Illustrator 19.0.0, SVG Export Plug-In . SVG Version: 6.00 Build 0)  -->
<svg version="1.1" id="Capa_1" xmlns="http://www.w3.org/2000/svg" xmlns:xlink="http://www.w3.org/1999/xlink" x="0px" y="0px"
	 viewBox="0 0 56.3 49.5" style="enable-background:new 0 0 56.3 49.5;" xml:space="preserve">
<style type="text/css">
	.st0{fill:#BCC1C3;}
	.st1{fill:#FFFFFF;}
	.st2{opacity:0.5;}
	.st3{fill:#868589;}
	.st4{fill:#169481;}
	.st5{fill:#C64F48;}
	.st6{fill:#E5B527;}
</style>
<g id="XMLID_106_">
	<g id="XMLID_30_">
		<g id="XMLID_436_">
			<path id="XMLID_435_" class="st0" d="M54,49.5H2.4c-1.3,0-2.4-1.1-2.4-2.4v-24h56.3v24C56.3,48.4,55.3,49.5,54,49.5z"/>
			<path id="XMLID_434_" class="st1" d="M2.1,38h7.4c0.2,0,0.3,0.1,0.3,0.3v2.9c0,0.2-0.1,0.3-0.3,0.3H2.1c-0.2,0-0.3-0.1-0.3-0.3
				v-2.9C1.8,38.2,1.9,38,2.1,38z"/>
			<path id="XMLID_433_" class="st1" d="M42.4,38h2.9c0.2,0,0.3,0.1,0.3,0.3v2.9c0,0.2-0.1,0.3-0.3,0.3h-2.9c-0.2,0-0.3-0.1-0.3-0.3
				v-2.9C42,38.2,42.2,38,42.4,38z"/>
			<path id="XMLID_432_" class="st1" d="M47,38h2.9c0.2,0,0.3,0.1,0.3,0.3v2.9c0,0.2-0.1,0.3-0.3,0.3H47c-0.2,0-0.3-0.1-0.3-0.3
				v-2.9C46.6,38.2,46.8,38,47,38z"/>
			<path id="XMLID_431_" class="st1" d="M37.9,38h2.9c0.2,0,0.3,0.1,0.3,0.3v2.9c0,0.2-0.1,0.3-0.3,0.3h-2.9c-0.2,0-0.3-0.1-0.3-0.3
				v-2.9C37.6,38.2,37.7,38,37.9,38z"/>
			<path id="XMLID_430_" class="st1" d="M33.4,38h2.9c0.2,0,0.3,0.1,0.3,0.3v2.9c0,0.2-0.1,0.3-0.3,0.3h-2.9c-0.2,0-0.3-0.1-0.3-0.3
				v-2.9C33.1,38.2,33.3,38,33.4,38z"/>
			<path id="XMLID_428_" class="st1" d="M29,38h2.9c0.2,0,0.3,0.1,0.3,0.3v2.9c0,0.2-0.1,0.3-0.3,0.3H29c-0.2,0-0.3-0.1-0.3-0.3
				v-2.9C28.7,38.2,28.8,38,29,38z"/>
			<path id="XMLID_427_" class="st1" d="M24.5,38h2.9c0.2,0,0.3,0.1,0.3,0.3v2.9c0,0.2-0.1,0.3-0.3,0.3h-2.9c-0.2,0-0.3-0.1-0.3-0.3
				v-2.9C24.2,38.2,24.3,38,24.5,38z"/>
			<path id="XMLID_426_" class="st1" d="M20.1,38H23c0.2,0,0.3,0.1,0.3,0.3v2.9c0,0.2-0.1,0.3-0.3,0.3h-2.9c-0.2,0-0.3-0.1-0.3-0.3
				v-2.9C19.7,38.2,19.9,38,20.1,38z"/>
			<path id="XMLID_425_" class="st1" d="M15.6,38h2.9c0.2,0,0.3,0.1,0.3,0.3v2.9c0,0.2-0.1,0.3-0.3,0.3h-2.9c-0.2,0-0.3-0.1-0.3-0.3
				v-2.9C15.3,38.2,15.4,38,15.6,38z"/>
			<path id="XMLID_424_" class="st1" d="M11.2,38h2.9c0.2,0,0.3,0.1,0.3,0.3v2.9c0,0.2-0.1,0.3-0.3,0.3h-2.9c-0.2,0-0.3-0.1-0.3-0.3
				v-2.9C10.8,38.2,11,38,11.2,38z"/>
			<path id="XMLID_423_" class="st1" d="M5.1,28H2c-0.1,0-0.2-0.1-0.2-0.2v-1.5c0-0.1,0.1-0.2,0.2-0.2h3.1c0.1,0,0.2,0.1,0.2,0.2
				v1.5C5.4,27.9,5.2,28,5.1,28z"/>
			<path id="XMLID_422_" class="st1" d="M9.6,28H6.5c-0.1,0-0.2-0.1-0.2-0.2v-1.5c0-0.1,0.1-0.2,0.2-0.2h3.1c0.1,0,0.2,0.1,0.2,0.2
				v1.5C9.8,27.9,9.7,28,9.6,28z"/>
			<path id="XMLID_421_" class="st1" d="M14.1,28h-3.1c-0.1,0-0.2-0.1-0.2-0.2v-1.5c0-0.1,0.1-0.2,0.2-0.2h3.1
				c0.1,0,0.2,0.1,0.2,0.2v1.5C14.3,27.9,14.2,28,14.1,28z"/>
			<path id="XMLID_420_" class="st1" d="M18.5,28h-3.1c-0.1,0-0.2-0.1-0.2-0.2v-1.5c0-0.1,0.1-0.2,0.2-0.2h3.1
				c0.1,0,0.2,0.1,0.2,0.2v1.5C18.8,27.9,18.6,28,18.5,28z"/>
			<path id="XMLID_419_" class="st1" d="M23,28h-3.1c-0.1,0-0.2-0.1-0.2-0.2v-1.5c0-0.1,0.1-0.2,0.2-0.2H23c0.1,0,0.2,0.1,0.2,0.2
				v1.5C23.2,27.9,23.1,28,23,28z"/>
			<path id="XMLID_418_" class="st1" d="M27.5,28h-3.1c-0.1,0-0.2-0.1-0.2-0.2v-1.5c0-0.1,0.1-0.2,0.2-0.2h3.1
				c0.1,0,0.2,0.1,0.2,0.2v1.5C27.7,27.9,27.6,28,27.5,28z"/>
			<path id="XMLID_417_" class="st1" d="M31.9,28h-3.1c-0.1,0-0.2-0.1-0.2-0.2v-1.5c0-0.1,0.1-0.2,0.2-0.2h3.1
				c0.1,0,0.2,0.1,0.2,0.2v1.5C32.2,27.9,32,28,31.9,28z"/>
			<path id="XMLID_416_" class="st1" d="M36.4,28h-3.1c-0.1,0-0.2-0.1-0.2-0.2v-1.5c0-0.1,0.1-0.2,0.2-0.2h3.1
				c0.1,0,0.2,0.1,0.2,0.2v1.5C36.6,27.9,36.5,28,36.4,28z"/>
			<path id="XMLID_415_" class="st1" d="M40.9,28h-3.1c-0.1,0-0.2-0.1-0.2-0.2v-1.5c0-0.1,0.1-0.2,0.2-0.2h3.1
				c0.1,0,0.2,0.1,0.2,0.2v1.5C41.1,27.9,41,28,40.9,28z"/>
			<path id="XMLID_414_" class="st1" d="M45.3,28h-3.1c-0.1,0-0.2-0.1-0.2-0.2v-1.5c0-0.1,0.1-0.2,0.2-0.2h3.1
				c0.1,0,0.2,0.1,0.2,0.2v1.5C45.6,27.9,45.4,28,45.3,28z"/>
			<g id="XMLID_411_">
				<path id="XMLID_413_" class="st1" d="M49.8,28h-3.1c-0.1,0-0.2-0.1-0.2-0.2v-1.5c0-0.1,0.1-0.2,0.2-0.2h3.1
					c0.1,0,0.2,0.1,0.2,0.2v1.5C50,27.9,49.9,28,49.8,28z"/>
				<path id="XMLID_412_" class="st1" d="M54.3,28h-3.1c-0.1,0-0.2-0.1-0.2-0.2v-1.5c0-0.1,0.1-0.2,0.2-0.2h3.1
					c0.1,0,0.2,0.1,0.2,0.2v1.5C54.5,27.9,54.4,28,54.3,28z"/>
			</g>
			<path id="XMLID_410_" class="st1" d="M11.1,37.2h-9c-0.2,0-0.3-0.1-0.3-0.3V34c0-0.2,0.1-0.3,0.3-0.3h9c0.2,0,0.3,0.1,0.3,0.3
				v2.9C11.5,37.1,11.3,37.2,11.1,37.2z"/>
			<path id="XMLID_405_" class="st1" d="M15.9,37.2H13c-0.2,0-0.3-0.1-0.3-0.3V34c0-0.2,0.1-0.3,0.3-0.3h2.9c0.2,0,0.3,0.1,0.3,0.3
				v2.9C16.2,37.1,16,37.2,15.9,37.2z"/>
			<path id="XMLID_400_" class="st1" d="M20.3,37.2h-2.9c-0.2,0-0.3-0.1-0.3-0.3V34c0-0.2,0.1-0.3,0.3-0.3h2.9
				c0.2,0,0.3,0.1,0.3,0.3v2.9C20.6,37.1,20.5,37.2,20.3,37.2z"/>
			<path id="XMLID_399_" class="st1" d="M24.8,37.2h-2.9c-0.2,0-0.3-0.1-0.3-0.3V34c0-0.2,0.1-0.3,0.3-0.3h2.9
				c0.2,0,0.3,0.1,0.3,0.3v2.9C25.1,37.1,25,37.2,24.8,37.2z"/>
			<path id="XMLID_398_" class="st1" d="M29.2,37.2h-2.9c-0.2,0-0.3-0.1-0.3-0.3V34c0-0.2,0.1-0.3,0.3-0.3h2.9
				c0.2,0,0.3,0.1,0.3,0.3v2.9C29.6,37.1,29.4,37.2,29.2,37.2z"/>
			<path id="XMLID_393_" class="st1" d="M33.7,37.2h-2.9c-0.2,0-0.3-0.1-0.3-0.3V34c0-0.2,0.1-0.3,0.3-0.3h2.9
				c0.2,0,0.3,0.1,0.3,0.3v2.9C34,37.1,33.9,37.2,33.7,37.2z"/>
			<path id="XMLID_392_" class="st1" d="M38.1,37.2h-2.9c-0.2,0-0.3-0.1-0.3-0.3V34c0-0.2,0.1-0.3,0.3-0.3h2.9
				c0.2,0,0.3,0.1,0.3,0.3v2.9C38.5,37.1,38.3,37.2,38.1,37.2z"/>
			<path id="XMLID_391_" class="st1" d="M42.6,37.2h-2.9c-0.2,0-0.3-0.1-0.3-0.3V34c0-0.2,0.1-0.3,0.3-0.3h2.9
				c0.2,0,0.3,0.1,0.3,0.3v2.9C42.9,37.1,42.8,37.2,42.6,37.2z"/>
			<path id="XMLID_380_" class="st1" d="M47.1,37.2h-2.9c-0.2,0-0.3-0.1-0.3-0.3V34c0-0.2,0.1-0.3,0.3-0.3h2.9
				c0.2,0,0.3,0.1,0.3,0.3v2.9C47.4,37.1,47.2,37.2,47.1,37.2z"/>
			<path id="XMLID_355_" class="st1" d="M54,33.7h-2.5h-2.3c-0.3,0-0.6,0.2-0.6,0.6v2.5c0,0.3,0.2,0.6,0.6,0.6h1v0h0.2
				c0.3,0,0.6,0.2,0.6,0.6v0.4h0v2.9c0,0.3,0.2,0.6,0.6,0.6H54c0.3,0,0.6-0.2,0.6-0.6v-4.5v-2.5C54.6,34,54.3,33.7,54,33.7z"/>
			<path id="XMLID_263_" class="st1" d="M14.1,46.1h-2.9c-0.2,0-0.3-0.1-0.3-0.3v-2.9c0-0.2,0.1-0.3,0.3-0.3h2.9
				c0.2,0,0.3,0.1,0.3,0.3v2.9C14.4,46,14.3,46.1,14.1,46.1z"/>
			<path id="XMLID_224_" class="st1" d="M9.5,46.1H6.6c-0.2,0-0.3-0.1-0.3-0.3v-2.9c0-0.2,0.1-0.3,0.3-0.3h2.9
				c0.2,0,0.3,0.1,0.3,0.3v2.9C9.9,46,9.7,46.1,9.5,46.1z"/>
			<path id="XMLID_223_" class="st1" d="M5,46.1H2.1c-0.2,0-0.3-0.1-0.3-0.3v-2.9c0-0.2,0.1-0.3,0.3-0.3H5c0.2,0,0.3,0.1,0.3,0.3
				v2.9C5.4,46,5.2,46.1,5,46.1z"/>
			<path id="XMLID_222_" class="st1" d="M40.8,46.1H15.7c-0.2,0-0.3-0.1-0.3-0.3v-2.9c0-0.2,0.1-0.3,0.3-0.3h25.2
				c0.2,0,0.3,0.1,0.3,0.3v2.9C41.1,46,41,46.1,40.8,46.1z"/>
			<path id="XMLID_221_" class="st1" d="M45.3,46.1h-2.9c-0.2,0-0.3-0.1-0.3-0.3v-2.9c0-0.2,0.1-0.3,0.3-0.3h2.9
				c0.2,0,0.3,0.1,0.3,0.3v2.9C45.6,46,45.5,46.1,45.3,46.1z"/>
			<g id="XMLID_211_">
				<path id="XMLID_220_" class="st1" d="M51.6,46.1h-2c-0.1,0-0.2-0.1-0.2-0.2v-1c0-0.1,0.1-0.2,0.2-0.2h2c0.1,0,0.2,0.1,0.2,0.2v1
					C51.8,46,51.7,46.1,51.6,46.1z"/>
				<path id="XMLID_219_" class="st1" d="M48.7,46.1h-2c-0.1,0-0.2-0.1-0.2-0.2v-1c0-0.1,0.1-0.2,0.2-0.2h2c0.1,0,0.2,0.1,0.2,0.2v1
					C48.9,46,48.8,46.1,48.7,46.1z"/>
				<path id="XMLID_214_" class="st1" d="M54.4,46.1h-2c-0.1,0-0.2-0.1-0.2-0.2v-1c0-0.1,0.1-0.2,0.2-0.2h2c0.1,0,0.2,0.1,0.2,0.2v1
					C54.6,46,54.5,46.1,54.4,46.1z"/>
				<path id="XMLID_212_" class="st1" d="M51.6,44h-2c-0.1,0-0.2-0.1-0.2-0.2v-1c0-0.1,0.1-0.2,0.2-0.2h2c0.1,0,0.2,0.1,0.2,0.2v1
					C51.8,43.9,51.7,44,51.6,44z"/>
			</g>
			<path id="XMLID_209_" class="st1" d="M54.1,32.7h-7.4c-0.2,0-0.3-0.1-0.3-0.3v-2.9c0-0.2,0.1-0.3,0.3-0.3h7.4
				c0.2,0,0.3,0.1,0.3,0.3v2.9C54.5,32.6,54.3,32.7,54.1,32.7z"/>
			<path id="XMLID_208_" class="st1" d="M13.9,32.7H11c-0.2,0-0.3-0.1-0.3-0.3v-2.9c0-0.2,0.1-0.3,0.3-0.3h2.9
				c0.2,0,0.3,0.1,0.3,0.3v2.9C14.3,32.6,14.1,32.7,13.9,32.7z"/>
			<path id="XMLID_207_" class="st1" d="M9.5,32.7H6.6c-0.2,0-0.3-0.1-0.3-0.3v-2.9c0-0.2,0.1-0.3,0.3-0.3h2.9
				c0.2,0,0.3,0.1,0.3,0.3v2.9C9.8,32.6,9.7,32.7,9.5,32.7z"/>
			<path id="XMLID_206_" class="st1" d="M5,32.7H2.1c-0.2,0-0.3-0.1-0.3-0.3v-2.9c0-0.2,0.1-0.3,0.3-0.3H5c0.2,0,0.3,0.1,0.3,0.3
				v2.9C5.4,32.6,5.2,32.7,5,32.7z"/>
			<path id="XMLID_205_" class="st1" d="M18.4,32.7h-2.9c-0.2,0-0.3-0.1-0.3-0.3v-2.9c0-0.2,0.1-0.3,0.3-0.3h2.9
				c0.2,0,0.3,0.1,0.3,0.3v2.9C18.8,32.6,18.6,32.7,18.4,32.7z"/>
			<path id="XMLID_204_" class="st1" d="M22.9,32.7H20c-0.2,0-0.3-0.1-0.3-0.3v-2.9c0-0.2,0.1-0.3,0.3-0.3h2.9
				c0.2,0,0.3,0.1,0.3,0.3v2.9C23.2,32.6,23.1,32.7,22.9,32.7z"/>
			<path id="XMLID_203_" class="st1" d="M27.3,32.7h-2.9c-0.2,0-0.3-0.1-0.3-0.3v-2.9c0-0.2,0.1-0.3,0.3-0.3h2.9
				c0.2,0,0.3,0.1,0.3,0.3v2.9C27.7,32.6,27.5,32.7,27.3,32.7z"/>
			<path id="XMLID_199_" class="st1" d="M31.8,32.7h-2.9c-0.2,0-0.3-0.1-0.3-0.3v-2.9c0-0.2,0.1-0.3,0.3-0.3h2.9
				c0.2,0,0.3,0.1,0.3,0.3v2.9C32.2,32.6,32,32.7,31.8,32.7z"/>
			<path id="XMLID_194_" class="st1" d="M36.3,32.7h-2.9c-0.2,0-0.3-0.1-0.3-0.3v-2.9c0-0.2,0.1-0.3,0.3-0.3h2.9
				c0.2,0,0.3,0.1,0.3,0.3v2.9C36.6,32.6,36.5,32.7,36.3,32.7z"/>
			<path id="XMLID_31_" class="st1" d="M40.7,32.7h-2.9c-0.2,0-0.3-0.1-0.3-0.3v-2.9c0-0.2,0.1-0.3,0.3-0.3h2.9
				c0.2,0,0.3,0.1,0.3,0.3v2.9C41.1,32.6,40.9,32.7,40.7,32.7z"/>
			<path id="XMLID_91_" class="st1" d="M45.2,32.7h-2.9c-0.2,0-0.3-0.1-0.3-0.3v-2.9c0-0.2,0.1-0.3,0.3-0.3h2.9
				c0.2,0,0.3,0.1,0.3,0.3v2.9C45.6,32.6,45.4,32.7,45.2,32.7z"/>
		</g>
		<g id="XMLID_469_">
			<g id="XMLID_479_" class="st2">
				<g id="XMLID_94_">
					<path id="XMLID_95_" class="st3" d="M20.8,11L17.5,10c-0.1,0-0.2,0-0.2,0.1l-1.5,2.5c-0.1,0.1-0.2,0.1-0.3,0.1l-2-0.6
						c-0.1,0-0.1-0.1-0.1-0.1c0,0,0-0.1,0-0.1c0.2-0.3,0.5-0.7,0.8-1.3c0.3-0.5,0.7-1.1,1.1-1.8c0.4-0.7,0.9-1.3,1.3-2
						c0.5-0.7,0.9-1.4,1.3-2.1c0.4-0.7,0.8-1.3,1.2-1.8c0.4-0.6,0.7-1,0.9-1.4c0.1-0.1,0.2-0.1,0.3-0.1l3.3,1c0.1,0,0.2,0.1,0.2,0.2
						c0,0.5,0,1.1-0.1,1.8c0,0.7-0.1,1.5-0.1,2.3c0,0.8-0.1,1.7-0.1,2.5c0,0.9-0.1,1.7-0.1,2.4s-0.1,1.4-0.1,2c0,0.6-0.1,1-0.1,1.3
						l0,0.1c0,0.1-0.1,0.1-0.2,0.1l-2.2-0.7c-0.1,0-0.2-0.1-0.2-0.2l0.2-2.9C21,11.1,20.9,11.1,20.8,11z M21.2,9.1
						c0-0.2,0.1-0.6,0.1-1c0-0.4,0.1-0.9,0.1-1.5c0-0.5,0.1-1,0.1-1.5c0-0.5,0.1-0.9,0.1-1.3c0,0,0-0.1,0-0.1c0,0-0.1-0.1-0.2-0.1
						c-0.1,0-0.2-0.1-0.2-0.1c0,0-0.1,0-0.1,0c-0.2,0.3-0.4,0.7-0.7,1.1c-0.3,0.4-0.5,0.9-0.8,1.3c-0.3,0.4-0.5,0.9-0.8,1.2
						c-0.2,0.4-0.4,0.7-0.5,0.9c0,0.1,0,0.1,0.1,0.1l2.7,0.9C21.2,9.2,21.2,9.2,21.2,9.1z"/>
				</g>
			</g>
			<g id="XMLID_470_">
				<g id="XMLID_87_">
					<path id="XMLID_88_" class="st4" d="M22.5,9.8l-3.4-1.1c-0.1,0-0.2,0-0.2,0.1l-1.5,2.5c-0.1,0.1-0.2,0.1-0.3,0.1l-2-0.6
						c-0.1,0-0.1-0.1-0.1-0.1c0,0,0-0.1,0-0.1c0.2-0.3,0.5-0.7,0.8-1.3c0.3-0.5,0.7-1.1,1.1-1.8c0.4-0.7,0.9-1.3,1.3-2
						c0.5-0.7,0.9-1.4,1.3-2.1c0.4-0.7,0.8-1.3,1.2-1.8c0.4-0.6,0.7-1,0.9-1.4C21.9,0,22,0,22.1,0l3.3,1c0.1,0,0.2,0.1,0.2,0.2
						c0,0.5,0,1.1-0.1,1.8c0,0.7-0.1,1.5-0.1,2.3c0,0.8-0.1,1.7-0.1,2.5c0,0.9-0.1,1.7-0.1,2.4s-0.1,1.4-0.1,2c0,0.6-0.1,1-0.1,1.3
						l0,0.1c0,0.1-0.1,0.1-0.2,0.1l-2.2-0.7c-0.1,0-0.2-0.1-0.2-0.2l0.2-2.9C22.6,9.9,22.6,9.8,22.5,9.8z M22.9,7.9
						c0-0.2,0.1-0.6,0.1-1c0-0.4,0.1-0.9,0.1-1.5c0-0.5,0.1-1,0.1-1.5c0-0.5,0.1-0.9,0.1-1.3c0,0,0-0.1,0-0.1c0,0-0.1-0.1-0.2-0.1
						c-0.1,0-0.2-0.1-0.2-0.1c0,0-0.1,0-0.1,0C22.5,2.7,22.3,3,22,3.5c-0.3,0.4-0.5,0.9-0.8,1.3c-0.3,0.4-0.5,0.9-0.8,1.2
						c-0.2,0.4-0.4,0.7-0.5,0.9c0,0.1,0,0.1,0.1,0.1L22.7,8C22.8,8,22.9,8,22.9,7.9z"/>
				</g>
			</g>
		</g>
		<g id="XMLID_459_">
			<g id="XMLID_462_" class="st2">
				<g id="XMLID_75_">
					<path id="XMLID_76_" class="st3" d="M52.2,18.8l-4,1.8c-0.1,0.1-0.3,0-0.4-0.1c-0.2-0.2-0.4-0.5-0.7-0.9
						c-0.3-0.4-0.6-0.9-1-1.5c-0.4-0.6-0.8-1.2-1.2-1.8c-0.4-0.6-0.9-1.3-1.3-2c-0.4-0.7-0.9-1.3-1.3-1.9c-0.4-0.6-0.8-1.2-1.1-1.7
						c-0.1-0.1-0.2-0.1-0.3-0.1c-0.1,0.1-0.2,0.2-0.2,0.3c0.2,0.6,0.3,1.3,0.5,2c0.2,0.7,0.4,1.5,0.6,2.2c0.2,0.8,0.4,1.5,0.6,2.3
						c0.2,0.8,0.4,1.5,0.5,2.1c0.2,0.6,0.3,1.2,0.4,1.7s0.2,0.9,0.2,1.1c0,0.2,0,0.3-0.2,0.4l-4.1,1.8c-0.1,0.1-0.3,0-0.4-0.1
						c-0.4-0.5-0.8-1.2-1.3-2c-0.5-0.8-1.1-1.7-1.7-2.6s-1.2-1.9-1.9-2.9c-0.6-1-1.2-1.9-1.7-2.7c-0.5-0.8-1-1.5-1.4-2.1
						c-0.4-0.6-0.6-1-0.7-1.2c-0.1-0.1,0-0.2,0.1-0.3L33,9.2c0.1-0.1,0.2,0,0.3,0.1c0.2,0.4,0.5,0.9,0.9,1.5s0.7,1.3,1.2,2
						c0.4,0.7,0.9,1.4,1.3,2.2c0.5,0.7,0.9,1.5,1.3,2.1c0.4,0.7,0.8,1.3,1.2,1.8c0.4,0.6,0.6,1,0.8,1.3c0.1,0.2,0.3,0.2,0.4,0.1
						c0.1-0.1,0.2-0.1,0.2-0.2c0-0.1,0-0.1,0-0.3c-0.1-0.4-0.2-0.8-0.3-1.4s-0.3-1.2-0.5-1.9c-0.2-0.7-0.4-1.5-0.6-2.3
						c-0.2-0.8-0.4-1.6-0.6-2.3c-0.2-0.8-0.4-1.5-0.6-2.2c-0.2-0.7-0.3-1.3-0.5-1.9c-0.1-0.1,0-0.3,0.1-0.3l3.4-1.5
						c0.1-0.1,0.3,0,0.3,0.1c0.3,0.5,0.6,1,1,1.6c0.4,0.6,0.8,1.2,1.2,1.9c0.4,0.7,0.9,1.3,1.3,2c0.4,0.7,0.9,1.3,1.3,1.9
						c0.4,0.6,0.8,1.2,1.1,1.7c0.3,0.5,0.6,0.9,0.8,1.2c0.1,0.1,0.1,0.1,0.2,0.2c0,0,0.1,0,0.3,0c0.1-0.1,0.2-0.1,0.2-0.2
						c0-0.1,0-0.1,0-0.3c-0.1-0.4-0.2-0.9-0.4-1.5c-0.2-0.6-0.4-1.3-0.6-2.1c-0.2-0.8-0.4-1.6-0.7-2.4C47,9.6,46.8,8.8,46.6,8
						c-0.2-0.8-0.4-1.5-0.7-2.2c-0.2-0.7-0.4-1.2-0.5-1.7c0-0.2,0-0.3,0.2-0.3l2.6-1.1c0.1-0.1,0.2,0,0.3,0.1
						c0.1,0.3,0.2,0.8,0.4,1.5c0.2,0.7,0.4,1.6,0.7,2.5c0.2,1,0.5,2,0.8,3.1c0.3,1.1,0.5,2.2,0.8,3.2c0.3,1.1,0.5,2.1,0.7,3
						c0.2,0.9,0.4,1.7,0.5,2.3C52.4,18.6,52.3,18.7,52.2,18.8z"/>
				</g>
			</g>
			<path id="XMLID_460_" class="st5" d="M53.5,16.4l-4,1.8c-0.1,0.1-0.3,0-0.4-0.1c-0.2-0.2-0.4-0.5-0.7-0.9c-0.3-0.4-0.6-0.9-1-1.5
				c-0.4-0.6-0.8-1.2-1.2-1.8c-0.4-0.6-0.9-1.3-1.3-2c-0.4-0.7-0.9-1.3-1.3-1.9c-0.4-0.6-0.8-1.2-1.1-1.7c-0.1-0.1-0.2-0.1-0.3-0.1
				c-0.1,0.1-0.2,0.2-0.2,0.3c0.2,0.6,0.3,1.3,0.5,2c0.2,0.7,0.4,1.5,0.6,2.2c0.2,0.8,0.4,1.5,0.6,2.3c0.2,0.8,0.4,1.5,0.5,2.1
				c0.2,0.6,0.3,1.2,0.4,1.7c0.1,0.5,0.2,0.9,0.2,1.1c0,0.2,0,0.3-0.2,0.4L40.7,22c-0.1,0.1-0.3,0-0.4-0.1c-0.4-0.5-0.8-1.2-1.3-2
				s-1.1-1.7-1.7-2.6c-0.6-0.9-1.2-1.9-1.9-2.9c-0.6-1-1.2-1.9-1.7-2.7c-0.5-0.8-1-1.5-1.4-2.1c-0.4-0.6-0.6-1-0.7-1.2
				c-0.1-0.1,0-0.2,0.1-0.3l2.7-1.2c0.1-0.1,0.2,0,0.3,0.1c0.2,0.4,0.5,0.9,0.9,1.5s0.7,1.3,1.2,2c0.4,0.7,0.9,1.4,1.3,2.2
				s0.9,1.5,1.3,2.1c0.4,0.7,0.8,1.3,1.2,1.8s0.6,1,0.8,1.3c0.1,0.2,0.3,0.2,0.4,0.1c0.1-0.1,0.2-0.1,0.2-0.2c0-0.1,0-0.1,0-0.3
				c-0.1-0.4-0.2-0.8-0.3-1.4c-0.1-0.6-0.3-1.2-0.5-1.9c-0.2-0.7-0.4-1.5-0.6-2.3c-0.2-0.8-0.4-1.6-0.6-2.3
				c-0.2-0.8-0.4-1.5-0.6-2.2c-0.2-0.7-0.3-1.3-0.5-1.9c-0.1-0.1,0-0.3,0.1-0.3l3.4-1.5c0.1-0.1,0.3,0,0.3,0.1c0.3,0.5,0.6,1,1,1.6
				c0.4,0.6,0.8,1.2,1.2,1.9c0.4,0.7,0.9,1.3,1.3,2c0.4,0.7,0.9,1.3,1.3,1.9c0.4,0.6,0.8,1.2,1.1,1.7c0.3,0.5,0.6,0.9,0.8,1.2
				c0.1,0.1,0.1,0.1,0.2,0.2c0,0,0.1,0,0.3,0c0.1-0.1,0.2-0.1,0.2-0.2c0-0.1,0-0.1,0-0.3c-0.1-0.4-0.2-0.9-0.4-1.5
				c-0.2-0.6-0.4-1.3-0.6-2.1c-0.2-0.8-0.4-1.6-0.7-2.4c-0.2-0.8-0.5-1.7-0.7-2.4c-0.2-0.8-0.4-1.5-0.7-2.2s-0.4-1.2-0.5-1.7
				c0-0.2,0-0.3,0.2-0.3l2.6-1.1c0.1-0.1,0.2,0,0.3,0.1c0.1,0.3,0.2,0.8,0.4,1.5c0.2,0.7,0.4,1.6,0.7,2.5c0.2,1,0.5,2,0.8,3.1
				c0.3,1.1,0.5,2.2,0.8,3.2c0.3,1.1,0.5,2.1,0.7,3c0.2,0.9,0.4,1.7,0.5,2.3C53.8,16.2,53.7,16.3,53.5,16.4z"/>
		</g>
		<g id="XMLID_444_">
			<g id="XMLID_452_" class="st2">
				<g id="XMLID_71_">
					<path id="XMLID_72_" class="st3" d="M22.5,33.5l0.3-1.5c0-0.1,0-0.1,0.1-0.2c0-0.1,0.1-0.2,0.2-0.3l5.3-5.8
						c0.1-0.1,0.1-0.1,0.1-0.2c0,0,0-0.1,0-0.1c0-0.1,0-0.2-0.1-0.2L25,24.5c-0.1,0-0.2-0.1-0.1-0.2l0.3-1.4c0-0.1,0.1-0.2,0.2-0.1
						l5.9,1.2c0.1,0,0.1,0.1,0.1,0.2l-0.3,1.6c0,0.1,0,0.1-0.1,0.2c0,0.1-0.1,0.2-0.2,0.3l-5.3,5.8c0,0-0.1,0.1-0.1,0.1
						c0,0,0,0.1,0,0.1c0,0.1,0,0.1,0,0.1c0,0,0,0,0.1,0l3.9,0.8c0.1,0,0.2,0.1,0.1,0.2l-0.3,1.5c0,0.1-0.1,0.2-0.2,0.1l-6.3-1.3
						C22.5,33.6,22.4,33.6,22.5,33.5z"/>
				</g>
			</g>
			<g id="XMLID_445_">
				<g id="XMLID_67_">
					<path id="XMLID_68_" class="st6" d="M24.7,32.2l0.3-1.5c0-0.1,0-0.1,0.1-0.2c0-0.1,0.1-0.2,0.2-0.3l5.3-5.8
						c0.1-0.1,0.1-0.1,0.1-0.2c0,0,0-0.1,0-0.1c0-0.1,0-0.2-0.1-0.2l-3.4-0.7c-0.1,0-0.2-0.1-0.1-0.2l0.3-1.4c0-0.1,0.1-0.2,0.2-0.1
						l5.9,1.2c0.1,0,0.1,0.1,0.1,0.2l-0.3,1.6c0,0.1,0,0.1-0.1,0.2c0,0.1-0.1,0.2-0.2,0.3l-5.3,5.8c0,0-0.1,0.1-0.1,0.1
						c0,0,0,0.1,0,0.1c0,0.1,0,0.1,0,0.1c0,0,0,0,0.1,0l3.9,0.8c0.1,0,0.2,0.1,0.1,0.2l-0.3,1.5c0,0.1-0.1,0.2-0.2,0.1l-6.3-1.3
						C24.7,32.4,24.7,32.3,24.7,32.2z"/>
				</g>
			</g>
		</g>
	</g>
</g>
</svg>
