<?xml version="1.0" encoding="utf-8"?>
<!-- Generator: Adobe Illustrator 19.0.0, SVG Export Plug-In . SVG Version: 6.00 Build 0)  -->
<svg version="1.1" id="Capa_1" xmlns="http://www.w3.org/2000/svg" xmlns:xlink="http://www.w3.org/1999/xlink" x="0px" y="0px"
	 viewBox="-261.7 246.7 66.5 62" style="enable-background:new -261.7 246.7 66.5 62;" xml:space="preserve">
<style type="text/css">
	.st0{fill:#96979A;}
	.st1{fill:#B1B2B5;}
	.st2{fill:#808082;}
	.st3{fill:#534F56;}
	.st4{fill:#35383F;}
	.st5{fill:#1F1E21;}
	.st6{fill:#EFEFF2;}
	.st7{fill:#D8D8DA;}
	.st8{fill:#E5E6E9;}
	.st9{fill:#C84753;}
	.st10{fill:#D4727B;}
	.st11{fill:#C5353E;}
	.st12{fill:#F9F9F8;}
</style>
<g id="XMLID_1907_">
	<g id="XMLID_1913_">
		<rect id="XMLID_1886_" x="-261.7" y="265.4" class="st0" width="5.4" height="1.8"/>
		<g id="XMLID_1890_">
			<path id="XMLID_1893_" class="st1" d="M-259.2,266.3v-15.9h-1.5c-0.5,0-1,0.6-1,1.4v14.5H-259.2z"/>
			<path id="XMLID_1894_" class="st0" d="M-257.1,255.6h-4.6v-4.8c0-0.3,0.3-0.6,0.6-0.6h3.9c0.3,0,0.6,0.3,0.6,0.6v4.1
				C-256.5,255.3-256.8,255.6-257.1,255.6z"/>
			<polygon id="XMLID_1892_" class="st2" points="-261.7,255.6 -259.2,255.6 -259.2,256.7 			"/>
		</g>
	</g>
	<g id="XMLID_1912_">
		<g id="XMLID_1876_">
			<path id="XMLID_1877_" class="st1" d="M-196.9,266.3h1.7v-2c0-0.5-0.4-0.8-0.8-0.8h-0.9c0,0,0,0.1,0,0.1V266.3z"/>
			<path id="XMLID_1879_" class="st1" d="M-256.9,263.5c0,0,0-0.1,0-0.1h-0.9c-0.5,0-0.8,0.4-0.8,0.8v2h1.7V263.5z"/>
			<path id="XMLID_1874_" class="st3" d="M-255.5,266.3h57.2h1.4v-2.8c0,0,0-0.1,0-0.1c-0.1-1.9-1.6-3.4-3.5-3.4h-53
				c-1.9,0-3.4,1.5-3.5,3.4c0,0,0,0.1,0,0.1v2.8H-255.5z"/>
			<path id="XMLID_1884_" class="st0" d="M-196.9,269c0,0,0,0.1,0,0.1h0.9c0.5,0,0.8-0.4,0.8-0.8v-2h-1.7V269z"/>
			<path id="XMLID_1885_" class="st0" d="M-257.7,269.1h0.9c0,0,0-0.1,0-0.1v-2.7h-1.7v2C-258.6,268.7-258.2,269.1-257.7,269.1z"/>
			<path id="XMLID_1873_" class="st4" d="M-256.8,269.1c0.1,1.9,1.6,3.4,3.5,3.4h53c1.9,0,3.4-1.5,3.5-3.4c0,0,0-0.1,0-0.1v-2.7
				h-1.4h-57.2h-1.4v2.7C-256.9,269-256.8,269.1-256.8,269.1z"/>
		</g>
		<g id="XMLID_1909_">
			<g id="XMLID_1880_">
				<path id="XMLID_1875_" class="st5" d="M-206.9,267.1h-39.9c-0.2,0-0.3-0.1-0.3-0.3v-0.8c0-0.2,0.1-0.3,0.3-0.3h39.9
					c0.2,0,0.3,0.1,0.3,0.3v0.8C-206.6,266.9-206.7,267.1-206.9,267.1z"/>
				<g id="XMLID_1896_">
					<polygon id="XMLID_1899_" class="st6" points="-245.4,246.7 -245.4,266.3 -208.3,266.3 -208.3,255 -216.6,246.7 					"/>
					<polygon id="XMLID_1898_" class="st7" points="-216.6,246.7 -218.1,256.7 -208.3,255 					"/>
					<polygon id="XMLID_1897_" class="st8" points="-216.6,246.7 -208.3,255 -216.6,255 					"/>
				</g>
			</g>
			<g id="XMLID_1954_">
				
					<rect id="XMLID_1967_" x="-239.5" y="263.4" transform="matrix(1 -1.925830e-03 1.925830e-03 1 -0.5084 -0.4364)" class="st3" width="25.2" height="0.8"/>
				
					<rect id="XMLID_1964_" x="-239.5" y="257.9" transform="matrix(1 -1.925830e-03 1.925830e-03 1 -0.4979 -0.4365)" class="st3" width="25.2" height="0.8"/>
				
					<rect id="XMLID_1963_" x="-239.5" y="259.7" transform="matrix(1 -1.925830e-03 1.925830e-03 1 -0.5014 -0.4365)" class="st3" width="25.2" height="0.8"/>
				
					<rect id="XMLID_1962_" x="-239.5" y="261.6" transform="matrix(1 -1.925830e-03 1.925830e-03 1 -0.5049 -0.4365)" class="st3" width="25.2" height="0.8"/>
			</g>
		</g>
	</g>
	<g id="XMLID_1865_">
		<g id="XMLID_1863_">
			<path id="XMLID_1864_" class="st9" d="M-255,304.9c0,2.1,1.7,3.8,3.8,3.8h48.8c2.1,0,3.8-1.7,3.8-3.8v-24.1H-255V304.9z"/>
			<path id="XMLID_1866_" class="st10" d="M-202.5,268.3h-48.8c-2.1,0-3.8,1.7-3.8,3.8v8.9h56.3v-8.9
				C-198.8,270-200.4,268.3-202.5,268.3z"/>
		</g>
		<path id="XMLID_1872_" class="st11" d="M-202.5,304.8h-48.8c-2.1,0-3.8-1.7-3.8-3.8v3.9c0,2.1,1.7,3.8,3.8,3.8h48.8
			c2.1,0,3.8-1.7,3.8-3.8V301C-198.8,303.1-200.4,304.8-202.5,304.8z"/>
		<g id="XMLID_1862_">
			<rect id="XMLID_1314_" x="-251.6" y="284.5" class="st4" width="49.3" height="18.1"/>
			<g id="XMLID_1813_">
				<g id="XMLID_1316_">
					<path id="XMLID_1315_" class="st12" d="M-245.1,289.1h-2.3c-0.2,0-0.3-0.1-0.3-0.3v-2.3c0-0.2,0.1-0.3,0.3-0.3h2.3
						c0.2,0,0.3,0.1,0.3,0.3v2.3C-244.8,289-244.9,289.1-245.1,289.1z"/>
					<path id="XMLID_1317_" class="st12" d="M-240.8,289.1h-2.3c-0.2,0-0.3-0.1-0.3-0.3v-2.3c0-0.2,0.1-0.3,0.3-0.3h2.3
						c0.2,0,0.3,0.1,0.3,0.3v2.3C-240.5,289-240.6,289.1-240.8,289.1z"/>
					<path id="XMLID_1524_" class="st12" d="M-236.5,289.1h-2.3c-0.2,0-0.3-0.1-0.3-0.3v-2.3c0-0.2,0.1-0.3,0.3-0.3h2.3
						c0.2,0,0.3,0.1,0.3,0.3v2.3C-236.2,289-236.3,289.1-236.5,289.1z"/>
					<path id="XMLID_1559_" class="st12" d="M-232.2,289.1h-2.3c-0.2,0-0.3-0.1-0.3-0.3v-2.3c0-0.2,0.1-0.3,0.3-0.3h2.3
						c0.2,0,0.3,0.1,0.3,0.3v2.3C-231.9,289-232,289.1-232.2,289.1z"/>
					<path id="XMLID_1561_" class="st12" d="M-227.9,289.1h-2.3c-0.2,0-0.3-0.1-0.3-0.3v-2.3c0-0.2,0.1-0.3,0.3-0.3h2.3
						c0.2,0,0.3,0.1,0.3,0.3v2.3C-227.6,289-227.7,289.1-227.9,289.1z"/>
					<path id="XMLID_1562_" class="st12" d="M-223.6,289.1h-2.3c-0.2,0-0.3-0.1-0.3-0.3v-2.3c0-0.2,0.1-0.3,0.3-0.3h2.3
						c0.2,0,0.3,0.1,0.3,0.3v2.3C-223.3,289-223.4,289.1-223.6,289.1z"/>
					<path id="XMLID_1571_" class="st12" d="M-219.3,289.1h-2.3c-0.2,0-0.3-0.1-0.3-0.3v-2.3c0-0.2,0.1-0.3,0.3-0.3h2.3
						c0.2,0,0.3,0.1,0.3,0.3v2.3C-219,289-219.1,289.1-219.3,289.1z"/>
					<path id="XMLID_1715_" class="st12" d="M-215,289.1h-2.3c-0.2,0-0.3-0.1-0.3-0.3v-2.3c0-0.2,0.1-0.3,0.3-0.3h2.3
						c0.2,0,0.3,0.1,0.3,0.3v2.3C-214.7,289-214.8,289.1-215,289.1z"/>
					<path id="XMLID_1811_" class="st12" d="M-210.7,289.1h-2.3c-0.2,0-0.3-0.1-0.3-0.3v-2.3c0-0.2,0.1-0.3,0.3-0.3h2.3
						c0.2,0,0.3,0.1,0.3,0.3v2.3C-210.4,289-210.5,289.1-210.7,289.1z"/>
					<path id="XMLID_1812_" class="st12" d="M-206.4,289.1h-2.3c-0.2,0-0.3-0.1-0.3-0.3v-2.3c0-0.2,0.1-0.3,0.3-0.3h2.3
						c0.2,0,0.3,0.1,0.3,0.3v2.3C-206.1,289-206.2,289.1-206.4,289.1z"/>
				</g>
				<g id="XMLID_1814_">
					<path id="XMLID_1860_" class="st12" d="M-245.1,297h-2.3c-0.2,0-0.3-0.1-0.3-0.3v-2.3c0-0.2,0.1-0.3,0.3-0.3h2.3
						c0.2,0,0.3,0.1,0.3,0.3v2.3C-244.8,296.8-244.9,297-245.1,297z"/>
					<path id="XMLID_1859_" class="st12" d="M-240.8,297h-2.3c-0.2,0-0.3-0.1-0.3-0.3v-2.3c0-0.2,0.1-0.3,0.3-0.3h2.3
						c0.2,0,0.3,0.1,0.3,0.3v2.3C-240.5,296.8-240.6,297-240.8,297z"/>
					<path id="XMLID_1858_" class="st12" d="M-236.5,297h-2.3c-0.2,0-0.3-0.1-0.3-0.3v-2.3c0-0.2,0.1-0.3,0.3-0.3h2.3
						c0.2,0,0.3,0.1,0.3,0.3v2.3C-236.2,296.8-236.3,297-236.5,297z"/>
					<path id="XMLID_1857_" class="st12" d="M-232.2,297h-2.3c-0.2,0-0.3-0.1-0.3-0.3v-2.3c0-0.2,0.1-0.3,0.3-0.3h2.3
						c0.2,0,0.3,0.1,0.3,0.3v2.3C-231.9,296.8-232,297-232.2,297z"/>
					<path id="XMLID_1856_" class="st12" d="M-227.9,297h-2.3c-0.2,0-0.3-0.1-0.3-0.3v-2.3c0-0.2,0.1-0.3,0.3-0.3h2.3
						c0.2,0,0.3,0.1,0.3,0.3v2.3C-227.6,296.8-227.7,297-227.9,297z"/>
					<path id="XMLID_1855_" class="st12" d="M-223.6,297h-2.3c-0.2,0-0.3-0.1-0.3-0.3v-2.3c0-0.2,0.1-0.3,0.3-0.3h2.3
						c0.2,0,0.3,0.1,0.3,0.3v2.3C-223.3,296.8-223.4,297-223.6,297z"/>
					<path id="XMLID_1854_" class="st12" d="M-219.3,297h-2.3c-0.2,0-0.3-0.1-0.3-0.3v-2.3c0-0.2,0.1-0.3,0.3-0.3h2.3
						c0.2,0,0.3,0.1,0.3,0.3v2.3C-219,296.8-219.1,297-219.3,297z"/>
					<path id="XMLID_1853_" class="st12" d="M-215,297h-2.3c-0.2,0-0.3-0.1-0.3-0.3v-2.3c0-0.2,0.1-0.3,0.3-0.3h2.3
						c0.2,0,0.3,0.1,0.3,0.3v2.3C-214.7,296.8-214.8,297-215,297z"/>
					<path id="XMLID_1852_" class="st12" d="M-210.7,297h-2.3c-0.2,0-0.3-0.1-0.3-0.3v-2.3c0-0.2,0.1-0.3,0.3-0.3h2.3
						c0.2,0,0.3,0.1,0.3,0.3v2.3C-210.4,296.8-210.5,297-210.7,297z"/>
					<path id="XMLID_1851_" class="st12" d="M-206.4,297h-2.3c-0.2,0-0.3-0.1-0.3-0.3v-2.3c0-0.2,0.1-0.3,0.3-0.3h2.3
						c0.2,0,0.3,0.1,0.3,0.3v2.3C-206.1,296.8-206.2,297-206.4,297z"/>
				</g>
				<g id="XMLID_1839_">
					<path id="XMLID_1850_" class="st12" d="M-247.2,293h-2.3c-0.2,0-0.3-0.1-0.3-0.3v-2.3c0-0.2,0.1-0.3,0.3-0.3h2.3
						c0.2,0,0.3,0.1,0.3,0.3v2.3C-246.9,292.9-247,293-247.2,293z"/>
					<path id="XMLID_1849_" class="st12" d="M-242.9,293h-2.3c-0.2,0-0.3-0.1-0.3-0.3v-2.3c0-0.2,0.1-0.3,0.3-0.3h2.3
						c0.2,0,0.3,0.1,0.3,0.3v2.3C-242.6,292.9-242.7,293-242.9,293z"/>
					<path id="XMLID_1848_" class="st12" d="M-238.6,293h-2.3c-0.2,0-0.3-0.1-0.3-0.3v-2.3c0-0.2,0.1-0.3,0.3-0.3h2.3
						c0.2,0,0.3,0.1,0.3,0.3v2.3C-238.3,292.9-238.5,293-238.6,293z"/>
					<path id="XMLID_1847_" class="st12" d="M-234.3,293h-2.3c-0.2,0-0.3-0.1-0.3-0.3v-2.3c0-0.2,0.1-0.3,0.3-0.3h2.3
						c0.2,0,0.3,0.1,0.3,0.3v2.3C-234,292.9-234.2,293-234.3,293z"/>
					<path id="XMLID_1846_" class="st12" d="M-230,293h-2.3c-0.2,0-0.3-0.1-0.3-0.3v-2.3c0-0.2,0.1-0.3,0.3-0.3h2.3
						c0.2,0,0.3,0.1,0.3,0.3v2.3C-229.7,292.9-229.9,293-230,293z"/>
					<path id="XMLID_1845_" class="st12" d="M-225.7,293h-2.3c-0.2,0-0.3-0.1-0.3-0.3v-2.3c0-0.2,0.1-0.3,0.3-0.3h2.3
						c0.2,0,0.3,0.1,0.3,0.3v2.3C-225.4,292.9-225.6,293-225.7,293z"/>
					<path id="XMLID_1844_" class="st12" d="M-221.4,293h-2.3c-0.2,0-0.3-0.1-0.3-0.3v-2.3c0-0.2,0.1-0.3,0.3-0.3h2.3
						c0.2,0,0.3,0.1,0.3,0.3v2.3C-221.1,292.9-221.3,293-221.4,293z"/>
					<path id="XMLID_1843_" class="st12" d="M-217.1,293h-2.3c-0.2,0-0.3-0.1-0.3-0.3v-2.3c0-0.2,0.1-0.3,0.3-0.3h2.3
						c0.2,0,0.3,0.1,0.3,0.3v2.3C-216.8,292.9-217,293-217.1,293z"/>
					<path id="XMLID_1842_" class="st12" d="M-212.8,293h-2.3c-0.2,0-0.3-0.1-0.3-0.3v-2.3c0-0.2,0.1-0.3,0.3-0.3h2.3
						c0.2,0,0.3,0.1,0.3,0.3v2.3C-212.5,292.9-212.7,293-212.8,293z"/>
					<path id="XMLID_1841_" class="st12" d="M-208.6,293h-2.3c-0.2,0-0.3-0.1-0.3-0.3v-2.3c0-0.2,0.1-0.3,0.3-0.3h2.3
						c0.2,0,0.3,0.1,0.3,0.3v2.3C-208.2,292.9-208.4,293-208.6,293z"/>
					<path id="XMLID_1840_" class="st12" d="M-204.3,293h-2.3c-0.2,0-0.3-0.1-0.3-0.3v-2.3c0-0.2,0.1-0.3,0.3-0.3h2.3
						c0.2,0,0.3,0.1,0.3,0.3v2.3C-203.9,292.9-204.1,293-204.3,293z"/>
				</g>
				<g id="XMLID_1861_">
					<path id="XMLID_1867_" class="st12" d="M-212.8,300.9h-28.1c-0.2,0-0.3-0.1-0.3-0.3v-2.3c0-0.2,0.1-0.3,0.3-0.3h28.1
						c0.2,0,0.3,0.1,0.3,0.3v2.3C-212.5,300.8-212.7,300.9-212.8,300.9z"/>
				</g>
			</g>
		</g>
	</g>
	<g id="XMLID_1870_">
		<path id="XMLID_1878_" class="st4" d="M-234.8,267.4l-6.8,6.3c3.4,3.2,8.8,5.3,14.9,5.3s11.5-2.1,14.9-5.3l-6.8-6.3H-234.8z"/>
	</g>
</g>
</svg>
