<?xml version="1.0" encoding="utf-8"?>
<!-- Generator: Adobe Illustrator 19.0.0, SVG Export Plug-In . SVG Version: 6.00 Build 0)  -->
<svg version="1.1" id="Capa_1" xmlns="http://www.w3.org/2000/svg" xmlns:xlink="http://www.w3.org/1999/xlink" x="0px" y="0px"
	 viewBox="0 0 38 81.1" style="enable-background:new 0 0 38 81.1;" xml:space="preserve">
<style type="text/css">
	.st0{fill:none;}
	.st1{fill:#E2C336;}
	.st2{fill:#545454;}
	.st3{fill:#8E8E8E;}
	.st4{fill:#D5D5D5;}
	.st5{fill:#E8CF66;}
	.st6{fill:#706B6D;}
	.st7{fill:#A4A2A3;}
	.st8{fill:#DEDEDE;}
</style>
<g id="XMLID_1243_">
	<g id="XMLID_1247_">
		<rect id="XMLID_1293_" x="17.9" y="63.2" class="st0" width="0" height="1.8"/>
		<polygon id="XMLID_1292_" class="st1" points="18.7,46.5 16.5,44.2 14.3,46.5 12.8,45 15.3,56.1 16.5,61.9 17,64.1 18.8,64.1 
			18.8,62.1 18.8,56.1 18.8,46.5 		"/>
		<path id="XMLID_1291_" class="st1" d="M0,43.1c0,7.2,4,13.5,9.9,16.7v4.3h5l-0.6-2.6l-1.2-5.4L10,41.7h2l0.3,1.5l0,0l1.9,1.9
			l2.2-2.3l2.2,2.3l0.1-0.1V24.1C8.4,24.2,0,32.7,0,43.1z"/>
		<rect id="XMLID_1290_" x="14.9" y="64.1" class="st2" width="2.1" height="0"/>
		<polygon id="XMLID_1289_" class="st2" points="18.7,45.1 16.5,42.8 14.3,45.1 12.4,43.2 12.4,43.2 12.1,41.7 10,41.7 13.2,56.1 
			14.4,61.5 14.9,64.1 17,64.1 16.5,61.9 15.3,56.1 12.8,45 14.3,46.5 16.5,44.2 18.7,46.5 18.8,46.5 18.8,45 		"/>
		<path id="XMLID_1286_" class="st2" d="M13.4,78.8c0.9,1.3,3,2.2,5.4,2.2v-2.2H13.4z"/>
		<polygon id="XMLID_1283_" class="st3" points="18.8,67.6 16.7,67.6 10,69.7 10,69.7 18.8,69.7 		"/>
		<polygon id="XMLID_1280_" class="st3" points="18.8,73.2 16.7,73.2 10,75.3 10,75.3 18.8,75.3 		"/>
		<polygon id="XMLID_1277_" class="st4" points="10,75.3 9.9,75.3 9.9,78.8 13.4,78.8 18.8,78.8 18.8,77.9 18.8,76.1 18.8,75.3 		
			"/>
		<polygon id="XMLID_1274_" class="st4" points="17,64.1 14.9,64.1 9.9,64.1 9.9,67.6 16.7,67.6 18.8,67.6 18.8,66.9 18.8,64.1 		
			"/>
		<polygon id="XMLID_1271_" class="st4" points="10,69.7 9.9,69.7 9.9,73.2 16.7,73.2 18.8,73.2 18.8,72.6 18.8,70.4 18.8,69.7 		
			"/>
		<rect id="XMLID_1270_" x="18.8" y="64.1" class="st0" width="1.7" height="0"/>
		<path id="XMLID_1269_" class="st5" d="M19,24.1c-0.1,0-0.1,0-0.2,0V45l2.2-2.2l2.2,2.3l1.9-1.9l0,0l0.3-1.5h2l-3.2,14.5l-1.2,5.6
			l-0.5,2.4h5.4v-4.2c6-3.2,10.1-9.5,10.1-16.8C38,32.6,29.5,24.1,19,24.1z"/>
		<polygon id="XMLID_1268_" class="st5" points="23.2,46.5 21,44.2 18.8,46.5 18.8,56.1 18.8,62.1 18.8,64.1 20.4,64.1 20.9,62 
			22.2,56.1 24.7,45 		"/>
		<rect id="XMLID_1267_" x="20.4" y="64.1" class="st2" width="2.1" height="0"/>
		<polygon id="XMLID_1266_" class="st6" points="25.4,41.7 25.1,43.2 25.1,43.2 23.2,45.1 21,42.8 18.8,45 18.8,46.5 21,44.2 
			23.2,46.5 24.7,45 22.2,56.1 20.9,62 20.4,64.1 22.5,64.1 23.1,61.7 24.3,56.1 27.4,41.7 		"/>
		<path id="XMLID_1263_" class="st6" d="M24.7,78.8h-6v2.2c0.1,0,0.2,0,0.3,0C21.6,81.1,23.8,80.1,24.7,78.8z"/>
		<polygon id="XMLID_1260_" class="st7" points="18.8,69.7 21.1,69.7 27.9,67.6 18.8,67.6 		"/>
		<polygon id="XMLID_1257_" class="st7" points="18.8,75.3 21.1,75.3 27.9,73.2 18.8,73.2 		"/>
		<polygon id="XMLID_1254_" class="st8" points="21.1,75.3 18.8,75.3 18.8,76.1 18.8,77.9 18.8,78.8 24.7,78.8 27.9,78.8 27.9,75.3 
					"/>
		<polygon id="XMLID_1251_" class="st8" points="22.5,64.1 20.4,64.1 18.8,64.1 18.8,66.9 18.8,67.6 27.9,67.6 27.9,64.1 		"/>
		<polygon id="XMLID_1248_" class="st8" points="21.1,69.7 18.8,69.7 18.8,70.4 18.8,72.6 18.8,73.2 27.9,73.2 27.9,69.7 		"/>
	</g>
	<path id="XMLID_1246_" class="st1" d="M13.8,16.3c-4.2,1.3-5.2,2.3-6.5,6.5C6,18.5,5,17.5,0.8,16.3C5,15,6,14,7.3,9.8
		C8.6,14,9.6,15,13.8,16.3z"/>
	<path id="XMLID_1245_" class="st1" d="M28.7,16.5c-2.8,0.8-3.4,1.5-4.3,4.3c-0.8-2.8-1.5-3.4-4.3-4.3c2.8-0.8,3.4-1.5,4.3-4.3
		C25.3,15,25.9,15.7,28.7,16.5z"/>
	<path id="XMLID_1244_" class="st1" d="M20.3,4.3c-2.8,0.8-3.4,1.5-4.3,4.3c-0.8-2.8-1.5-3.4-4.3-4.3c2.8-0.8,3.4-1.5,4.3-4.3
		C16.9,2.8,17.5,3.4,20.3,4.3z"/>
</g>
</svg>
