<?xml version="1.0" encoding="utf-8"?>
<!-- Generator: Adobe Illustrator 19.0.0, SVG Export Plug-In . SVG Version: 6.00 Build 0)  -->
<svg version="1.1" id="Capa_1" xmlns="http://www.w3.org/2000/svg" xmlns:xlink="http://www.w3.org/1999/xlink" x="0px" y="0px"
	 viewBox="0 0 77.6 55.2" style="enable-background:new 0 0 77.6 55.2;" xml:space="preserve">
<style type="text/css">
	.st0{fill:#40A4C8;}
	.st1{fill:#B1B1B7;}
	.st2{fill:#33383F;}
	.st3{fill:#959499;}
	.st4{fill:#444246;}
</style>
<g id="XMLID_101_">
	<g id="XMLID_171_">
		<g id="XMLID_178_">
			<g id="XMLID_187_">
				<g id="XMLID_193_">
					<path id="XMLID_195_" class="st0" d="M61.2,23.6h-1.5c0-11.5-9.4-20.9-20.9-20.9s-20.9,9.4-20.9,20.9h-1.5
						c0-12.3,10-22.3,22.3-22.3S61.2,11.3,61.2,23.6z"/>
				</g>
				<rect id="XMLID_192_" x="36.8" y="0" class="st0" width="4" height="4"/>
				<rect id="XMLID_191_" x="15.2" y="21.6" class="st0" width="4" height="4"/>
				<rect id="XMLID_188_" x="58.4" y="21.6" class="st0" width="4" height="4"/>
			</g>
			<g id="XMLID_182_">
				<g id="XMLID_185_">
					<rect id="XMLID_186_" x="2" y="1.3" class="st0" width="73.6" height="1.5"/>
				</g>
				<circle id="XMLID_184_" class="st0" cx="1.9" cy="2" r="1.9"/>
				<circle id="XMLID_183_" class="st0" cx="75.7" cy="2" r="1.9"/>
			</g>
		</g>
		<g id="XMLID_174_">
			<path id="XMLID_196_" class="st1" d="M38.8,50.1V35.6l0,0c-1,0-1.7-0.8-1.7-1.7c0-0.7,0.4-1.3,1-1.6V13.8l-9.5,27.1h0l0,0l0,0h0
				l5.3,9.1c0.1,0,0.1,0,0.2,0H38.8z"/>
			<path id="XMLID_198_" class="st2" d="M34,50.1L34,50.1c-1.7,0.1-3.1,1.5-3.1,3.2v1.9h8v-5.1H34z"/>
			<path id="XMLID_200_" class="st2" d="M38.8,50.1L38.8,50.1l-4.7-0.1c-0.1,0-0.1,0-0.2,0l0,0H38.8z"/>
			<path id="XMLID_202_" class="st3" d="M43.5,50.1c0.1,0,0.1,0,0.2,0L49,41h0h0l0,0l0,0h0l-9.5-27.1v18.5c0.6,0.3,1,0.9,1,1.6
				c0,1-0.8,1.7-1.7,1.7v14.5H43.5z"/>
			<path id="XMLID_175_" class="st4" d="M43.7,50.1c-0.1,0-0.1,0-0.2,0h-4.7v0.1v5.1h8v-1.9C46.8,51.6,45.4,50.2,43.7,50.1z"/>
		</g>
	</g>
</g>
</svg>
