<?xml version="1.0" encoding="utf-8"?>
<!-- Generator: Adobe Illustrator 19.0.0, SVG Export Plug-In . SVG Version: 6.00 Build 0)  -->
<svg version="1.1" id="Capa_1" xmlns="http://www.w3.org/2000/svg" xmlns:xlink="http://www.w3.org/1999/xlink" x="0px" y="0px"
	 viewBox="0 0 88.8 58.9" style="enable-background:new 0 0 88.8 58.9;" xml:space="preserve">
<style type="text/css">
	.st0{fill:#C2C2C1;}
	.st1{fill:#49515E;}
	.st2{fill:#FFFFFF;}
	.st3{fill:#C1322F;}
	.st4{fill:#E5B527;}
	.st5{fill:#19935F;}
	.st6{fill:#A9A8A8;}
	.st7{fill:#C74F43;}
	.st8{fill:#68B2D3;}
	.st9{fill:#333C48;}
	.st10{fill:#D3A21B;}
	.st11{fill:#F0CE2B;}
</style>
<g id="XMLID_1466_">
	<g id="XMLID_1284_">
		<g id="XMLID_1455_">
			<g id="XMLID_1456_">
				<g id="XMLID_1471_">
					<g id="XMLID_1473_">
						<rect id="XMLID_1481_" x="0" class="st0" width="78.8" height="7"/>
						<path id="XMLID_1480_" class="st1" d="M3,48.8h72.8c1.7,0,3-1.4,3-3V7H0v38.8C0,47.5,1.4,48.8,3,48.8z"/>
						<g id="XMLID_1474_">
							<path id="XMLID_1479_" class="st2" d="M75.6,5H22.2c-0.2,0-0.4-0.2-0.4-0.4V2.4C21.8,2.2,22,2,22.2,2h53.4
								C75.8,2,76,2.2,76,2.4v2.2C76,4.8,75.8,5,75.6,5z"/>
							<g id="XMLID_1475_">
								<circle id="XMLID_1478_" class="st3" cx="3.5" cy="3.5" r="1.2"/>
								<circle id="XMLID_1477_" class="st4" cx="7.3" cy="3.5" r="1.2"/>
								<circle id="XMLID_1476_" class="st5" cx="11.2" cy="3.5" r="1.2"/>
							</g>
						</g>
					</g>
					<rect id="XMLID_1472_" y="6.9" class="st6" width="78.8" height="0.8"/>
				</g>
			</g>
		</g>
		<rect id="XMLID_1123_" x="4.7" y="10.9" class="st7" width="9.9" height="1.5"/>
		<rect id="XMLID_1358_" x="9.1" y="13.5" class="st8" width="29.9" height="1.5"/>
		<rect id="XMLID_1359_" x="11.5" y="16.1" class="st7" width="38.5" height="1.5"/>
		<rect id="XMLID_1360_" x="11.5" y="18.7" class="st8" width="3.1" height="1.5"/>
		<rect id="XMLID_1361_" x="11.5" y="21.4" class="st8" width="31.7" height="1.5"/>
		<rect id="XMLID_1362_" x="11.5" y="24" class="st8" width="28.7" height="1.5"/>
		<rect id="XMLID_1363_" x="11.5" y="26.6" class="st8" width="23.2" height="1.5"/>
		<rect id="XMLID_1364_" x="11.5" y="29.2" class="st8" width="13.3" height="1.5"/>
		<rect id="XMLID_1365_" x="8.2" y="31.9" class="st7" width="5.3" height="1.5"/>
		<rect id="XMLID_1368_" x="4.7" y="34.5" class="st8" width="20.5" height="1.5"/>
		<rect id="XMLID_1369_" x="8.2" y="37.1" class="st8" width="21.4" height="1.5"/>
		<rect id="XMLID_1370_" x="8.2" y="39.7" class="st8" width="18.7" height="1.5"/>
		<rect id="XMLID_1371_" x="4.7" y="42.4" class="st7" width="3.5" height="1.5"/>
	</g>
	<g id="XMLID_1417_">
		<path id="XMLID_1419_" class="st9" d="M73.9,27.2c-1.6-1-3.4-1.7-5.2-2.2c-0.9,1.9-2.8,3.3-5.1,3.3c0,0,0,0,0,0
			c-2,0-3.8-1.1-4.8-2.7c-0.1-0.2-0.2-0.3-0.3-0.5c-1.9,0.5-3.6,1.2-5.2,2.2c0.2,0.7,0.3,1.4,0.3,2c0,1.4-0.5,2.8-1.6,3.9
			c-0.6,0.6-1.3,1-2.1,1.3c-1.2,0.4-2.6,0.4-3.8,0c-1,1.6-1.7,3.4-2.2,5.2c1.9,0.9,3.3,2.8,3.3,5.1c0,1.7-0.7,3.1-1.9,4.2h5.9h24.5
			c1.7,0,3-1.4,3-3V34.7C77.5,34.6,73.2,29.2,73.9,27.2z"/>
		<g id="XMLID_1414_">
			<path id="XMLID_1416_" class="st10" d="M59.5,39.2c0-5.3,4.3-9.6,9.6-9.6v-6.8c-2.2,0-4.2-1.3-5-3.3c-1.9,0.5-3.6,1.2-5.2,2.2
				c0.7,2,0.3,4.3-1.3,5.9c-1.6,1.6-3.9,2-5.9,1.3c-1,1.6-1.7,3.4-2.2,5.2c1.9,0.9,3.3,2.8,3.3,5.1c0,2.3-1.3,4.2-3.3,5.1
				c0.5,1.9,1.2,3.6,2.2,5.2c2-0.7,4.3-0.3,5.9,1.3c1.6,1.6,2,3.9,1.3,5.9c1.6,1,3.4,1.7,5.2,2.2c0.9-1.9,2.8-3.2,5-3.3v-6.8
				C63.8,48.8,59.5,44.5,59.5,39.2z"/>
			<path id="XMLID_1415_" class="st11" d="M74.2,58.9c1.9-0.5,3.6-1.2,5.2-2.2c-0.7-2-0.3-4.3,1.3-5.9c1.6-1.6,3.9-2,5.9-1.3
				c1-1.6,1.7-3.4,2.2-5.2c-1.9-0.9-3.3-2.8-3.3-5.1c0-2.3,1.3-4.2,3.3-5.1c-0.5-1.9-1.2-3.6-2.2-5.2c-2,0.7-4.3,0.3-5.9-1.3
				s-2-3.9-1.3-5.9c-1.6-1-3.4-1.7-5.2-2.2c-0.9,1.9-2.8,3.3-5.1,3.3c0,0,0,0,0,0v6.8c0,0,0,0,0,0c5.3,0,9.6,4.3,9.6,9.6
				c0,5.3-4.3,9.6-9.6,9.6c0,0,0,0,0,0v6.8c0,0,0,0,0,0C71.4,55.6,73.3,56.9,74.2,58.9z"/>
		</g>
	</g>
</g>
</svg>
