<?xml version="1.0" encoding="utf-8"?>
<!-- Generator: Adobe Illustrator 19.0.0, SVG Export Plug-In . SVG Version: 6.00 Build 0)  -->
<svg version="1.1" id="Capa_1" xmlns="http://www.w3.org/2000/svg" xmlns:xlink="http://www.w3.org/1999/xlink" x="0px" y="0px"
	 viewBox="0 0 73 86.1" style="enable-background:new 0 0 73 86.1;" xml:space="preserve">
<style type="text/css">
	.st0{fill:#758789;}
	.st1{fill:none;stroke:#A83331;stroke-width:0.5;stroke-miterlimit:10;stroke-dasharray:1.5;}
	.st2{fill:none;stroke:#DAB438;stroke-width:0.5;stroke-miterlimit:10;stroke-dasharray:1.5;}
	.st3{fill:none;stroke:#569583;stroke-width:0.5;stroke-miterlimit:10;stroke-dasharray:1.5;}
	.st4{fill:#569583;}
	.st5{fill:#FFFFFF;}
	.st6{fill:#BFC2C6;}
	.st7{fill:#DAB438;}
	.st8{fill:#A83331;}
	.st9{fill:#E9EDED;}
	.st10{fill:#33383F;}
	.st11{fill:#D6BA91;}
	.st12{fill:#11729F;}
</style>
<g id="XMLID_620_">
	<g id="XMLID_619_">
		<rect id="XMLID_770_" x="42.2" y="46.7" class="st0" width="1.1" height="1.1"/>
		<g id="XMLID_488_">
			<polyline id="XMLID_242_" class="st1" points="10.1,24.9 10.1,32.9 31.2,32.9 31.2,39.1 			"/>
			<polyline id="XMLID_246_" class="st2" points="42.7,39.3 42.7,31.5 62.4,31.5 62.4,25.1 			"/>
			<g id="XMLID_290_">
				<line id="XMLID_243_" class="st3" x1="36.6" y1="39.3" x2="36.6" y2="7.8"/>
				<g id="XMLID_270_">
					<g id="XMLID_244_">
						<rect id="XMLID_245_" x="24.7" y="0" class="st4" width="23.8" height="18.9"/>
					</g>
					<g id="XMLID_274_">
						<g id="XMLID_278_">
							<polygon id="XMLID_289_" class="st5" points="38.4,10.9 38.4,10.9 38.4,10.9 							"/>
							<path id="XMLID_279_" class="st5" d="M40.6,12.4c-0.4-0.1-1.6-0.3-2.2-1.5c0,0,0,0,0,0c-0.5,0.6-1.1,1-1.8,1v0c0,0,0,0,0,0
								c0,0,0,0,0,0v0c0,0,0,0,0,0c-0.7,0-1.3-0.4-1.8-1l0,0l0,0c-0.7,1.3-1.8,1.4-2.2,1.5c-0.7,0.2-0.8,0.7-0.8,0.7
								c1.1,1.4,2.9,2.3,4.8,2.3c0,0,0,0,0,0c2,0,3.7-0.9,4.8-2.3C41.5,13.1,41.3,12.6,40.6,12.4z"/>
						</g>
						<path id="XMLID_277_" class="st5" d="M39.7,7.7c-0.1-0.1-0.2-0.2-0.4-0.3c0,0,0-0.1,0-0.1c0.1-1.1,0.1-2.1-0.4-2.8
							c-0.5-0.7-1.6-1.1-2.4-1.1v0l0,0c0,0,0,0,0,0l0,0c0,0,0,0,0,0c-0.8,0-1.9,0.4-2.3,1.1c-0.5,0.7-0.4,1.7-0.4,2.8
							c0,0,0,0.1,0,0.1c-0.1,0-0.3,0.2-0.4,0.3c-0.1,0.2,0,0.4,0,0.6c0.1,0.2,0.1,0.4,0.3,0.5C34,9,34.1,9.1,34.2,9.1
							c0.1,0.4,0.3,0.7,0.5,1.1c0.1,0.1,0.2,0.2,0.2,0.3c0,0,0,0,0.1,0.1c0.1,0.1,0.2,0.2,0.3,0.2c0,0,0,0,0.1,0.1
							c0.1,0.1,0.2,0.1,0.3,0.2c0,0,0.1,0,0.1,0.1c0.1,0.1,0.2,0.1,0.4,0.1c0,0,0.1,0,0.1,0c0.1,0,0.3,0,0.4,0.1c0,0,0,0,0,0
							c0,0,0,0,0,0c0.1,0,0.3,0,0.4-0.1c0,0,0,0,0,0c0.4-0.1,0.8-0.4,1.2-0.8l0,0c0,0,0,0,0,0c0.1-0.1,0.2-0.2,0.2-0.3
							c0.2-0.3,0.4-0.7,0.5-1.1c0.1,0,0.3-0.1,0.4-0.2c0.1-0.1,0.2-0.3,0.3-0.5C39.7,8.1,39.8,7.9,39.7,7.7z"/>
						<path id="XMLID_276_" class="st6" d="M38.4,10.9C38.4,10.8,38.4,10.8,38.4,10.9c0-0.1,0-0.1,0-0.1c0,0,0-0.1,0-0.1
							c0,0,0,0,0,0c0-0.1,0-0.1,0-0.2c-0.3,0.4-0.7,0.6-1.2,0.8c0,0,0,0,0,0c-0.1,0-0.3,0.1-0.4,0.1v0l0,0c0,0,0,0,0,0c0,0,0,0,0,0
							c0,0,0,0,0,0v0c0,0,0,0,0,0c0,0,0,0,0,0c-0.1,0-0.3,0-0.4-0.1c0,0-0.1,0-0.1,0c-0.1,0-0.2-0.1-0.4-0.1c0,0-0.1,0-0.1-0.1
							c-0.1-0.1-0.2-0.1-0.3-0.2c0,0,0,0-0.1-0.1c-0.1-0.1-0.2-0.2-0.3-0.2c0,0,0,0-0.1-0.1l0,0c0,0,0,0.1,0,0.1c0,0,0,0,0,0
							c0,0,0,0.1,0,0.1c0,0,0,0,0,0c0,0,0,0,0,0.1c0,0,0,0,0,0c0,0,0,0.1,0,0.1l0,0c0.5,0.6,1.1,0.9,1.8,1c0,0,0,0,0,0v0
							c0,0,0,0,0,0c0,0,0,0,0,0v0C37.3,11.8,37.9,11.4,38.4,10.9L38.4,10.9z"/>
					</g>
				</g>
			</g>
			<g id="XMLID_271_">
				<g id="XMLID_247_">
					<rect id="XMLID_248_" x="52" y="9.5" class="st7" width="21" height="16.6"/>
				</g>
				<g id="XMLID_249_">
					<rect id="XMLID_241_" x="56.2" y="12.3" class="st5" width="12.7" height="1.4"/>
					<rect id="XMLID_250_" x="56.2" y="14.5" class="st5" width="9.8" height="0.7"/>
					<rect id="XMLID_252_" x="56.2" y="15.8" class="st5" width="9.8" height="0.7"/>
					<rect id="XMLID_255_" x="56.2" y="17.2" class="st5" width="9.8" height="0.7"/>
					<rect id="XMLID_265_" x="56.2" y="18.5" class="st5" width="9.8" height="0.7"/>
					<rect id="XMLID_266_" x="56.2" y="19.8" class="st5" width="9.8" height="0.7"/>
					<rect id="XMLID_267_" x="56.2" y="21.2" class="st5" width="9.8" height="0.7"/>
					<rect id="XMLID_268_" x="56.2" y="22.5" class="st5" width="9.8" height="0.7"/>
				</g>
			</g>
			<g id="XMLID_272_">
				<g id="XMLID_251_">
					<rect id="XMLID_257_" x="0" y="8.9" class="st8" width="20.5" height="16.2"/>
				</g>
				<polygon id="XMLID_269_" class="st5" points="6.6,12.8 13.9,17 6.6,21.2 				"/>
			</g>
		</g>
		<g id="XMLID_438_">
			<g id="XMLID_120_">
				<path id="XMLID_121_" class="st9" d="M44,69.8l-8.2,1.1c-2.2,0.3-4.3-1.3-4.6-3.5l-2.7-21c-0.3-2.2,1.3-4.3,3.5-4.6l8.2-1.1
					c2.2-0.3,4.3,1.3,4.6,3.5l2.7,21C47.8,67.5,46.2,69.6,44,69.8z"/>
				<path id="XMLID_126_" class="st10" d="M38,51.3l-1.2,0.2c-0.2,0-0.4-0.1-0.5-0.4l-0.6-4.6c0-0.2,0.1-0.4,0.4-0.5l1.2-0.2
					c0.2,0,0.4,0.1,0.5,0.4l0.6,4.6C38.4,51,38.3,51.2,38,51.3z"/>
			</g>
			<g id="XMLID_176_">
				<path id="XMLID_509_" class="st11" d="M32.1,65.8V51.5c0-0.4,0.4-0.8,0.8-0.8h2.3c0.4,0,0.8,0.4,0.8,0.8v14.2
					c0,0.4-0.4,0.8-0.8,0.8h-2.3C32.5,66.6,32.1,66.2,32.1,65.8z"/>
				<path id="XMLID_508_" class="st11" d="M36,67.6V56.5c0-0.4,0.4-0.8,0.8-0.8h2.4c0.4,0,0.8,0.4,0.8,0.8v11.1
					c0,0.4-0.4,0.8-0.8,0.8h-2.4C36.4,68.4,36,68,36,67.6z"/>
				<path id="XMLID_500_" class="st11" d="M39.9,66.5v-7.4c0-0.4,0.4-0.8,0.8-0.8H43c0.4,0,0.8,0.4,0.8,0.8v7.4
					c0,0.4-0.4,0.8-0.8,0.8h-2.3C40.3,67.3,39.9,66.9,39.9,66.5z"/>
				<path id="XMLID_499_" class="st11" d="M43.7,67.4V61c0-0.4,0.4-0.8,0.8-0.8h2.3c0.4,0,0.8,0.4,0.8,0.8v6.4
					c0,0.4-0.4,0.8-0.8,0.8h-2.3C44.1,68.2,43.7,67.8,43.7,67.4z"/>
				<rect id="XMLID_497_" x="32.1" y="64.4" class="st11" width="15.5" height="14.6"/>
				<rect id="XMLID_440_" x="30.8" y="78.6" class="st12" width="18.2" height="7.5"/>
				<path id="XMLID_498_" class="st11" d="M30.2,60.1C30.2,60.1,30.2,60.1,30.2,60.1c1.4,0.6,0.2,2.6,2.2,5.1c0.8,1,1.8,1.3,2.3,1.8
					L32.1,72c0,0-2.7-1.9-4-5.8C27.4,63.9,27.6,59.7,30.2,60.1z"/>
			</g>
		</g>
	</g>
</g>
</svg>
