<?xml version="1.0" encoding="utf-8"?>
<!-- Generator: Adobe Illustrator 16.0.3, SVG Export Plug-In . SVG Version: 6.00 Build 0)  -->
<!DOCTYPE svg PUBLIC "-//W3C//DTD SVG 1.1//EN" "http://www.w3.org/Graphics/SVG/1.1/DTD/svg11.dtd">
<svg version="1.1" id="Layer_1" xmlns="http://www.w3.org/2000/svg" xmlns:xlink="http://www.w3.org/1999/xlink" x="0px" y="0px"
	 width="142.562px" height="58.174px" viewBox="0 0 142.562 58.174" enable-background="new 0 0 142.562 58.174"
	 xml:space="preserve">
<polygon fill="#E65100" points="140.851,21.781 140.334,21.781 140.334,23.12 140.086,23.12 140.086,21.781 139.567,21.781 
	139.567,21.563 140.851,21.563 "/>
<polygon fill="#E65100" points="142.298,21.563 141.782,22.515 141.268,21.563 141.005,21.563 141.005,23.12 141.25,23.12 
	141.25,22 141.715,22.848 141.852,22.848 142.313,22 142.313,23.12 142.562,23.12 142.562,21.563 "/>
<path fill="#E65100" d="M4.059,4.059h50.055v50.057H4.059V4.059z M0,58.174h58.173V0H0V58.174z"/>
<g>
	<defs>
		<rect id="SVGID_1_" width="142.561" height="58.174"/>
	</defs>
	<clipPath id="SVGID_2_">
		<use xlink:href="#SVGID_1_"  overflow="visible"/>
	</clipPath>
	<path clip-path="url(#SVGID_2_)" fill="#E65100" d="M29.174,41.765h-4.655V31.553c0-1.436-0.266-2.495-0.799-3.179
		c-0.532-0.682-1.285-1.024-2.257-1.024c-0.417,0-0.858,0.093-1.32,0.277c-0.464,0.187-0.903,0.447-1.32,0.782
		c-0.417,0.336-0.799,0.735-1.147,1.199c-0.347,0.463-0.602,0.972-0.764,1.527v10.629h-4.654V16.409h4.654v10.524
		c0.672-1.181,1.581-2.089,2.727-2.726s2.414-0.955,3.803-0.955c1.181,0,2.142,0.202,2.884,0.607c0.74,0.405,1.32,0.944,1.736,1.615
		c0.417,0.672,0.706,1.436,0.869,2.293c0.161,0.857,0.243,1.736,0.243,2.64V41.765z"/>
	<path clip-path="url(#SVGID_2_)" fill="#E65100" d="M32.369,16.409h4.655v4.619h-4.655V16.409z M32.369,23.564h4.655v18.201h-4.655
		V23.564z"/>
	<path clip-path="url(#SVGID_2_)" fill="#E65100" d="M41.261,16.86h4.654v15.631h-4.654V16.86z M41.261,36.52h4.654v5.245h-4.654
		V36.52z"/>
	<path clip-path="url(#SVGID_2_)" fill="#E65100" d="M72.729,42.168c-1.527,0-3.021-0.243-4.48-0.729s-2.709-1.18-3.752-2.084
		l1.737-2.918c1.112,0.788,2.194,1.384,3.248,1.789c1.054,0.405,2.102,0.607,3.143,0.607c0.926,0,1.656-0.174,2.188-0.521
		c0.532-0.348,0.8-0.845,0.8-1.494c0-0.648-0.313-1.122-0.938-1.424c-0.625-0.301-1.644-0.648-3.057-1.042
		c-1.181-0.324-2.188-0.636-3.022-0.938c-0.833-0.302-1.505-0.643-2.014-1.025c-0.51-0.381-0.881-0.821-1.112-1.32
		c-0.231-0.497-0.347-1.094-0.347-1.788c0-0.926,0.179-1.76,0.538-2.501c0.359-0.741,0.863-1.373,1.511-1.893
		c0.648-0.521,1.407-0.92,2.275-1.199c0.869-0.277,1.812-0.417,2.831-0.417c1.367,0,2.646,0.197,3.839,0.591s2.286,1.031,3.282,1.91
		l-1.876,2.814c-0.926-0.694-1.822-1.204-2.691-1.529c-0.868-0.324-1.731-0.485-2.588-0.485c-0.787,0-1.447,0.161-1.979,0.485
		c-0.533,0.325-0.799,0.846-0.799,1.564c0,0.325,0.063,0.59,0.191,0.798c0.127,0.21,0.33,0.396,0.608,0.557
		c0.278,0.163,0.642,0.318,1.094,0.469c0.451,0.152,1.013,0.307,1.686,0.47c1.25,0.324,2.321,0.648,3.213,0.973
		c0.891,0.324,1.62,0.693,2.188,1.11c0.567,0.418,0.984,0.898,1.25,1.442c0.267,0.544,0.4,1.198,0.4,1.962
		c0,1.784-0.66,3.191-1.979,4.221C76.794,41.653,74.999,42.168,72.729,42.168"/>
	<path clip-path="url(#SVGID_2_)" fill="#E65100" d="M93.154,42.169c-1.437,0-2.688-0.32-3.751-0.956
		c-1.066-0.637-1.9-1.499-2.501-2.588V49.22h-4.655V23.619h4.063v3.127c0.672-1.066,1.54-1.905,2.605-2.519
		c1.065-0.613,2.293-0.92,3.682-0.92c1.228,0,2.362,0.249,3.404,0.746c1.042,0.499,1.939,1.171,2.692,2.015
		c0.752,0.846,1.343,1.841,1.771,2.987c0.428,1.147,0.643,2.357,0.643,3.63c0,1.321-0.197,2.56-0.591,3.717
		c-0.394,1.158-0.943,2.166-1.649,3.022c-0.707,0.857-1.546,1.529-2.519,2.014C95.377,41.925,94.311,42.169,93.154,42.169
		 M91.591,38.208c0.695,0,1.337-0.15,1.928-0.451s1.095-0.706,1.511-1.216c0.417-0.509,0.74-1.101,0.973-1.771
		c0.231-0.672,0.348-1.367,0.348-2.085c0-0.764-0.128-1.476-0.383-2.135c-0.254-0.661-0.606-1.234-1.059-1.721
		c-0.451-0.485-0.984-0.868-1.599-1.146c-0.613-0.277-1.279-0.416-1.996-0.416c-0.44,0-0.893,0.075-1.355,0.226
		c-0.463,0.15-0.892,0.364-1.285,0.642s-0.747,0.602-1.059,0.973c-0.313,0.37-0.551,0.776-0.712,1.216v4.271
		c0.416,1.043,1.053,1.906,1.909,2.588C89.668,37.867,90.595,38.208,91.591,38.208"/>
	<path clip-path="url(#SVGID_2_)" fill="#E65100" d="M103.4,16.464h4.654v4.619H103.4V16.464z M103.4,23.619h4.654V41.82H103.4
		V23.619z"/>
	<path clip-path="url(#SVGID_2_)" fill="#E65100" d="M122.227,27.648c-1.412,0.024-2.675,0.295-3.786,0.816
		c-1.111,0.522-1.911,1.303-2.397,2.345V41.82h-4.653V23.619h4.271v3.89c0.324-0.625,0.706-1.186,1.146-1.684
		c0.439-0.498,0.915-0.932,1.425-1.303c0.509-0.37,1.023-0.654,1.545-0.85c0.521-0.198,1.024-0.296,1.511-0.296h0.573
		c0.127,0,0.249,0.012,0.365,0.035V27.648z"/>
	<path clip-path="url(#SVGID_2_)" fill="#E65100" d="M131.501,42.168c-1.459,0-2.778-0.25-3.96-0.746
		c-1.181-0.498-2.188-1.176-3.021-2.033c-0.833-0.856-1.477-1.852-1.929-2.987c-0.45-1.134-0.677-2.327-0.677-3.577
		c0-1.297,0.221-2.519,0.66-3.665c0.44-1.146,1.077-2.153,1.91-3.021c0.834-0.869,1.847-1.558,3.04-2.067
		c1.191-0.51,2.529-0.764,4.012-0.764c1.481,0,2.808,0.254,3.978,0.764c1.169,0.509,2.165,1.193,2.986,2.049
		c0.821,0.857,1.447,1.853,1.876,2.987c0.429,1.135,0.643,2.316,0.643,3.543c0,0.301-0.006,0.59-0.018,0.869
		c-0.012,0.277-0.041,0.509-0.087,0.694h-14.067c0.069,0.719,0.243,1.354,0.521,1.91c0.278,0.556,0.637,1.03,1.077,1.424
		c0.44,0.395,0.938,0.694,1.494,0.903c0.555,0.208,1.134,0.313,1.735,0.313c0.927,0,1.802-0.227,2.623-0.677
		c0.822-0.451,1.385-1.049,1.686-1.789l3.994,1.111c-0.672,1.39-1.743,2.53-3.213,3.421
		C135.293,41.723,133.538,42.168,131.501,42.168 M136.226,31.191c-0.116-1.366-0.62-2.46-1.512-3.283
		c-0.892-0.821-1.974-1.232-3.248-1.232c-0.625,0-1.21,0.11-1.754,0.33c-0.544,0.22-1.024,0.527-1.441,0.92
		c-0.416,0.394-0.758,0.868-1.024,1.424c-0.267,0.556-0.423,1.17-0.469,1.841H136.226z"/>
</g>
</svg>
