<?xml version="1.0" encoding="utf-8"?>
<!-- Generator: Adobe Illustrator 19.0.0, SVG Export Plug-In . SVG Version: 6.00 Build 0)  -->
<svg version="1.1" id="Capa_1" xmlns="http://www.w3.org/2000/svg" xmlns:xlink="http://www.w3.org/1999/xlink" x="0px" y="0px"
	 viewBox="0 0 84.9 65.3" style="enable-background:new 0 0 84.9 65.3;" xml:space="preserve">
<style type="text/css">
	.st0{fill:#BCC1C3;}
	.st1{fill:#33383F;}
	.st2{fill:#E9EDED;}
	.st3{fill:#C75429;}
	.st4{fill:#DADCE0;}
	.st5{opacity:0.5;fill:#666666;}
	.st6{fill:#BA3E39;}
	.st7{fill:#C64F48;}
	.st8{fill:#FFFFFF;}
	.st9{fill:#BC4017;}
	.st10{fill:#E5B527;}
	.st11{fill:#EBC55F;}
	.st12{fill:#11729F;}
	.st13{fill:#1684B8;}
	.st14{fill:#1B9055;}
	.st15{fill:#169481;}
	.st16{fill:#178C75;}
	.st17{fill:#82438A;}
	.st18{fill:#8E5391;}
	.st19{fill:#BFC2C6;}
</style>
<g id="XMLID_611_">
	<g id="XMLID_491_">
		<g id="XMLID_516_">
			<polygon id="XMLID_523_" class="st0" points="48.7,64.2 29.3,64.2 31.3,51.8 46.7,51.8 			"/>
			<g id="XMLID_518_">
				<g id="XMLID_520_">
					<path id="XMLID_522_" class="st1" d="M66.9,17.2h-56c-1.4,0-2.6,1.2-2.6,2.6v30.6h61.2V19.8C69.5,18.3,68.3,17.2,66.9,17.2z"/>
					<path id="XMLID_521_" class="st2" d="M8.3,56.4c0,1.4,1.2,2.6,2.6,2.6h56c1.4,0,2.6-1.2,2.6-2.6v-6H8.3V56.4z"/>
				</g>
				<path id="XMLID_519_" class="st2" d="M66.5,48.1H11.3c-0.2,0-0.3-0.1-0.3-0.3V20.1c0-0.2,0.1-0.3,0.3-0.3h55.2
					c0.2,0,0.3,0.1,0.3,0.3v27.7C66.8,48,66.7,48.1,66.5,48.1z"/>
			</g>
			<rect id="XMLID_517_" x="27.9" y="64" class="st2" width="22.2" height="1.3"/>
		</g>
		<path id="XMLID_527_" class="st3" d="M75,26.1C75,26.1,75,26.1,75,26.1c-4.6,0-8.4,3.1-9.6,7.4l-3.8-0.1l3.5,3.8
			c0.6,4.9,4.7,8.8,9.8,8.8c0,0,0,0,0,0c5.5,0,9.9-4.5,9.9-9.9S80.5,26.1,75,26.1z"/>
		<path id="XMLID_778_" class="st4" d="M50,22l-0.6,1.5l0.9-0.4l0.2-0.6C50.3,22.4,50.2,22.2,50,22z"/>
		<path id="XMLID_784_" class="st5" d="M14.4,35l2.6-2.8l-1.6,0l-0.9,1c-0.4,3.3-2.9,5.8-6.1,6.3v1.8C11.5,40.8,14.1,38.2,14.4,35z"
			/>
		<path id="XMLID_788_" class="st5" d="M65.1,37.2l-1.9-2l-1.6,0l3.5,3.8c0.4,3,2,5.5,4.3,7.1v-1.8C67.1,42.7,65.5,40.1,65.1,37.2z"
			/>
		<path id="XMLID_812_" class="st5" d="M26.4,24.5C26.4,24.5,26.5,24.5,26.4,24.5c1.8,0,3.6-0.4,5.1-1.2l4.1,1.8l-0.9-2.1l-3.3-1.4
			c-1.5,0.8-3.2,1.2-5.1,1.2c0,0,0,0,0,0c-4.2,0-7.8-2.2-9.7-5.6h-0.8C17.5,21.4,21.6,24.5,26.4,24.5z"/>
		<path id="XMLID_813_" class="st5" d="M34.1,19.7l0.5,1.3c1-1.1,1.9-2.4,2.4-3.8h-0.8C35.7,18.1,34.9,19,34.1,19.7z"/>
		<path id="XMLID_818_" class="st5" d="M56.3,23.1C56.2,23.1,56.2,23.1,56.3,23.1c-1.4,0-2.6-0.3-3.7-0.9l-2.2,0.9l-0.9,2.1l3.1-1.3
			c1.1,0.6,2.4,0.9,3.7,0.9c0,0,0,0,0,0c4.4,0,8-3.4,8.4-7.7h-0.3C63.2,20.6,60,23.1,56.3,23.1z"/>
		<path id="XMLID_819_" class="st5" d="M50.5,20.8c-1.1-1-1.9-2.3-2.3-3.7h-0.4c0.2,1.9,1,3.6,2.2,4.9L50.5,20.8z"/>
		<g id="XMLID_695_">
			<path id="XMLID_750_" class="st5" d="M20.5,59c-2.4-1.7-3.9-4.3-4.2-7.4c0,0.3-0.1,0.6-0.1,0.9c0,2.5,0.9,4.7,2.4,6.5
				c0,0,0,0,0,0L20.5,59C20.6,59,20.6,59,20.5,59z"/>
			<path id="XMLID_751_" class="st4" d="M36.3,51.7c0-0.1,0-0.1,0-0.2C36.3,51.6,36.3,51.7,36.3,51.7C36.3,51.7,36.3,51.8,36.3,51.7
				L36.3,51.7C36.3,51.8,36.3,51.7,36.3,51.7z"/>
			<path id="XMLID_752_" class="st5" d="M32.1,59L32.1,59l1.8,0c0,0,0,0,0,0c1.5-1.8,2.4-4,2.4-6.5c0-0.3,0-0.5-0.1-0.7h0
				C36,54.8,34.4,57.4,32.1,59z"/>
		</g>
		<g id="XMLID_441_">
			<path id="XMLID_622_" class="st6" d="M17,30.5l-2.7,0.1c-0.8-3.1-3.6-5.4-7-5.4c0,0,0,0,0,0c-4,0-7.2,3.3-7.2,7.3
				s3.2,7.3,7.2,7.3c0,0,0,0,0,0c3.7,0,6.8-2.8,7.2-6.4L17,30.5z"/>
			<g id="XMLID_442_">
				<g id="XMLID_443_">
					<g id="XMLID_590_">
						<g id="XMLID_591_">
							<g id="XMLID_593_">
								<polygon id="XMLID_597_" class="st6" points="13.9,30.5 13.9,33.8 17,30.5 								"/>
								<g id="XMLID_594_">
									<path id="XMLID_596_" class="st7" d="M0,32.4c0,4,3.2,7.3,7.2,7.3V25.1C3.2,25.1,0,28.4,0,32.4z"/>
									<path id="XMLID_595_" class="st6" d="M14.5,32.4c0-4-3.3-7.3-7.3-7.3c0,0,0,0,0,0v14.5c0,0,0,0,0,0
										C11.3,39.7,14.5,36.4,14.5,32.4z"/>
								</g>
							</g>
						</g>
					</g>
					<g id="XMLID_446_">
						<g id="XMLID_110_">
							<path id="XMLID_115_" class="st8" d="M3.1,33.4v-1.7c0-0.1,0-0.1,0.1-0.1H5c0.1,0,0.1,0,0.1,0.1v1.7c0,0.1,0,0.1-0.1,0.1H3.2
								C3.1,33.5,3.1,33.5,3.1,33.4z"/>
							<path id="XMLID_113_" class="st8" d="M6.3,33.4v-1.7c0-0.1,0-0.1,0.1-0.1h1.8c0.1,0,0.1,0,0.1,0.1v1.7c0,0.1,0,0.1-0.1,0.1
								H6.4C6.3,33.5,6.3,33.5,6.3,33.4z"/>
							<path id="XMLID_111_" class="st8" d="M9.5,33.4v-1.7c0-0.1,0-0.1,0.1-0.1h1.8c0.1,0,0.1,0,0.1,0.1v1.7c0,0.1,0,0.1-0.1,0.1
								H9.6C9.5,33.5,9.5,33.5,9.5,33.4z"/>
						</g>
					</g>
				</g>
			</g>
		</g>
		<g id="XMLID_116_">
			<g id="XMLID_484_">
				<g id="XMLID_493_">
					<g id="XMLID_562_">
						<g id="XMLID_563_">
							<g id="XMLID_564_">
								<polygon id="XMLID_568_" class="st3" points="65.9,33.4 65.9,38 61.6,33.3 								"/>
								<g id="XMLID_565_">
									<path id="XMLID_567_" class="st9" d="M84.9,36c0,5.5-4.4,9.9-9.9,9.9V26.1C80.5,26.1,84.9,30.5,84.9,36z"/>
									<path id="XMLID_566_" class="st3" d="M65,36c0-5.5,4.5-9.9,9.9-9.9c0,0,0,0,0,0v19.9c0,0,0,0,0,0C69.5,45.9,65,41.5,65,36z
										"/>
								</g>
							</g>
						</g>
					</g>
				</g>
			</g>
			<g id="XMLID_136_">
				<g id="XMLID_135_">
					<path id="XMLID_157_" class="st8" d="M77.1,29.9C77.1,29.9,77.1,30,77.1,29.9c-0.6,0.2-0.3,1.5-1.6,2.8
						c-0.3,0.3-0.5,0.5-0.8,0.6l1.5,1.3c0.1-0.1,0.8-0.8,1.3-1.7C78,32,78.1,29.9,77.1,29.9z"/>
					<rect id="XMLID_133_" x="72.8" y="33.4" class="st8" width="5.4" height="6.4"/>
					<g id="XMLID_134_">
						<path id="XMLID_154_" class="st8" d="M81.2,34.2c0-0.5-0.4-0.8-0.8-0.8h-3.1c-0.5,0-0.8,0.4-0.8,0.8c0,0.4,0.3,0.7,0.6,0.8
							c-0.4,0.1-0.6,0.4-0.6,0.8c0,0.4,0.3,0.8,0.8,0.8c-0.4,0-0.8,0.4-0.8,0.8c0,0.4,0.3,0.8,0.7,0.8c-0.4,0.1-0.7,0.4-0.7,0.8
							c0,0.5,0.4,0.8,0.8,0.8H79c0.5,0,0.8-0.4,0.8-0.8c0-0.4-0.3-0.7-0.6-0.8h0.2c0.5,0,0.8-0.4,0.8-0.8c0-0.4-0.3-0.7-0.7-0.8H80
							c0.5,0,0.8-0.4,0.8-0.8c0-0.3-0.2-0.6-0.5-0.7h0.1C80.9,35,81.2,34.7,81.2,34.2z"/>
						<g id="XMLID_128_">
							<path id="XMLID_141_" class="st2" d="M76.5,39c0-0.4,0.3-0.8,0.7-0.8c-0.4-0.1-0.7-0.4-0.7-0.8c0-0.4,0.3-0.8,0.8-0.8
								c-0.4,0-0.8-0.4-0.8-0.8c0-0.4,0.3-0.7,0.6-0.8c-0.4-0.1-0.6-0.4-0.6-0.8c0-0.5,0.4-0.8,0.8-0.8h-0.6c-0.5,0-0.8,0.4-0.8,0.8
								c0,0.4,0.3,0.7,0.6,0.8c-0.4,0.1-0.6,0.4-0.6,0.8c0,0.4,0.3,0.8,0.8,0.8c-0.4,0-0.8,0.4-0.8,0.8c0,0.4,0.3,0.8,0.7,0.8
								c-0.4,0.1-0.7,0.4-0.7,0.8c0,0.5,0.4,0.8,0.8,0.8h0.6C76.9,39.8,76.5,39.5,76.5,39z"/>
						</g>
					</g>
				</g>
				<rect id="XMLID_127_" x="69.9" y="32.8" class="st2" width="3.1" height="7.5"/>
			</g>
		</g>
		<g id="XMLID_132_">
			<path id="XMLID_583_" class="st10" d="M34.1,19.7c2.3-2.1,3.7-5.1,3.7-8.4C37.8,5.1,32.7,0,26.4,0c0,0,0,0,0,0
				C20.1,0,15,5.1,15,11.4s5.1,11.4,11.4,11.4c0,0,0,0,0,0c1.8,0,3.5-0.4,5.1-1.2l4.1,1.8L34.1,19.7z"/>
			<g id="XMLID_463_">
				<g id="XMLID_464_">
					<g id="XMLID_475_">
						<polygon id="XMLID_483_" class="st10" points="27.1,19.7 34.1,19.7 35.6,23.3 						"/>
						<g id="XMLID_480_">
							<path id="XMLID_482_" class="st11" d="M15,11.4c0,6.3,5.1,11.4,11.4,11.4V0C20.1,0,15,5.1,15,11.4z"/>
							<path id="XMLID_481_" class="st10" d="M37.8,11.4C37.8,5.1,32.7,0,26.4,0c0,0,0,0,0,0v22.8c0,0,0,0,0,0
								C32.7,22.8,37.8,17.7,37.8,11.4z"/>
						</g>
					</g>
					<path id="XMLID_465_" class="st8" d="M25.6,9.5c0,0.2-0.1,0.5-0.1,0.7c-0.1,0.2-0.2,0.4-0.3,0.6s-0.2,0.3-0.4,0.4
						c-0.2,0.1-0.4,0.2-0.7,0.3s-0.5,0.1-0.9,0.1s-0.6,0-0.9-0.1c-0.2-0.1-0.4-0.2-0.7-0.3c-0.2-0.1-0.3-0.2-0.4-0.4
						c-0.1-0.2-0.2-0.4-0.3-0.6C21,10,20.9,9.7,20.9,9.5c0-0.2,0-0.5,0-0.7c0-0.2,0-0.4,0-0.7c0-0.2,0.1-0.5,0.1-0.7
						c0.1-0.2,0.1-0.4,0.3-0.6c0.1-0.2,0.2-0.3,0.4-0.4c0.2-0.1,0.4-0.2,0.7-0.3C22.6,6,22.9,6,23.2,6s0.6,0,0.9,0.1
						c0.2,0.1,0.5,0.2,0.7,0.3c0.2,0.1,0.3,0.2,0.4,0.4s0.2,0.4,0.3,0.6c0.1,0.2,0.1,0.5,0.1,0.7c0,0.2,0,0.5,0,0.7
						C25.6,9,25.6,9.3,25.6,9.5z M28.9,6.2c0,0,0.1,0,0.1,0h1.3c0.1,0,0.2,0.1,0.1,0.2L24,16.9c0,0-0.1,0.1-0.1,0.1c0,0-0.1,0-0.1,0
						h-1.3c-0.1,0-0.2-0.1-0.1-0.2l6.5-10.6C28.8,6.3,28.9,6.2,28.9,6.2z M22.6,9.6c0,0.3,0.1,0.5,0.2,0.6c0,0.1,0.1,0.1,0.2,0.1
						c0.1,0,0.2,0,0.2,0c0.2,0,0.3,0,0.4-0.1c0.1-0.1,0.1-0.3,0.2-0.6c0-0.3,0.1-0.6,0.1-0.8c0-0.3,0-0.6-0.1-0.9
						c0-0.3-0.1-0.5-0.2-0.6c-0.1-0.1-0.2-0.1-0.4-0.1c-0.1,0-0.2,0-0.2,0c-0.1,0-0.1,0.1-0.2,0.1c-0.1,0.1-0.1,0.3-0.2,0.6
						c0,0.3-0.1,0.6-0.1,0.9C22.6,9.1,22.6,9.4,22.6,9.6z M31.9,15.1c0,0.2-0.1,0.5-0.1,0.7c-0.1,0.2-0.2,0.4-0.3,0.6
						c-0.1,0.2-0.2,0.3-0.4,0.4c-0.2,0.1-0.4,0.2-0.7,0.3c-0.2,0.1-0.5,0.1-0.9,0.1c-0.3,0-0.6,0-0.9-0.1c-0.2-0.1-0.5-0.2-0.7-0.3
						c-0.2-0.1-0.3-0.2-0.4-0.4c-0.1-0.2-0.2-0.4-0.3-0.6c-0.1-0.2-0.1-0.5-0.2-0.7c0-0.2,0-0.5,0-0.7c0-0.2,0-0.5,0-0.7
						c0-0.2,0.1-0.5,0.2-0.7c0.1-0.2,0.2-0.4,0.3-0.6s0.2-0.3,0.4-0.4c0.2-0.1,0.4-0.2,0.7-0.3c0.2-0.1,0.5-0.1,0.9-0.1
						c0.4,0,0.7,0,0.9,0.1c0.2,0.1,0.4,0.2,0.7,0.3c0.2,0.1,0.3,0.3,0.4,0.4c0.1,0.2,0.2,0.4,0.3,0.6c0.1,0.2,0.1,0.5,0.1,0.7
						c0,0.2,0,0.5,0,0.7C32,14.6,32,14.9,31.9,15.1z M29,15.2c0,0.3,0.1,0.5,0.2,0.6c0,0.1,0.1,0.1,0.2,0.1c0.1,0,0.2,0,0.2,0
						c0.2,0,0.3-0.1,0.4-0.2c0.1-0.1,0.1-0.3,0.2-0.6c0-0.3,0.1-0.6,0.1-0.8c0-0.3,0-0.6-0.1-0.9c0-0.3-0.1-0.5-0.2-0.6
						c-0.1-0.1-0.2-0.2-0.4-0.2c-0.1,0-0.2,0-0.2,0c-0.1,0-0.1,0.1-0.2,0.1c-0.1,0.1-0.1,0.3-0.2,0.6c0,0.3-0.1,0.6-0.1,0.9
						C28.9,14.7,29,15,29,15.2z"/>
				</g>
			</g>
		</g>
		<g id="XMLID_555_">
			<path id="XMLID_592_" class="st12" d="M56.2,6.2C56.2,6.2,56.2,6.2,56.2,6.2c-4.7,0-8.5,3.8-8.5,8.5c0,2.5,1.1,4.7,2.7,6.2
				l-1.1,2.7l3.1-1.3c1.1,0.6,2.4,0.9,3.7,0.9c0,0,0,0,0,0c4.7,0,8.4-3.8,8.4-8.5C64.6,10,60.9,6.2,56.2,6.2z"/>
			<g id="XMLID_556_">
				<g id="XMLID_557_">
					<g id="XMLID_560_">
						<g id="XMLID_576_">
							<polygon id="XMLID_580_" class="st13" points="55.7,20.8 50.5,20.8 49.3,23.5 							"/>
							<g id="XMLID_577_">
								<path id="XMLID_579_" class="st12" d="M64.6,14.6c0,4.7-3.8,8.5-8.4,8.5V6.2C60.9,6.2,64.6,10,64.6,14.6z"/>
								<path id="XMLID_578_" class="st13" d="M47.7,14.6c0-4.7,3.8-8.5,8.5-8.5c0,0,0,0,0,0v16.9c0,0,0,0,0,0
									C51.5,23.1,47.7,19.3,47.7,14.6z"/>
							</g>
						</g>
					</g>
					<path id="XMLID_558_" class="st8" d="M56.1,9.7h1c0.1,0,0.1,0,0.1,0.1v1c0,0,0,0.1,0,0.1c0.3,0,0.5,0.1,0.7,0.1
						c0.2,0,0.4,0.1,0.5,0.1c0,0,0.1,0,0.1,0c0,0,0,0,0,0l-0.1,1.4c0,0,0,0.1-0.1,0.1c-0.2,0-0.4-0.1-0.7-0.1c-0.2,0-0.5,0-0.7,0
						c-0.3,0-0.5,0-0.6,0.1c-0.1,0.1-0.2,0.2-0.2,0.5c0,0.1,0,0.1,0,0.2c0,0.1,0.1,0.1,0.1,0.2c0.1,0.1,0.2,0.2,0.3,0.3
						c0.1,0.1,0.3,0.3,0.6,0.5c0.3,0.3,0.5,0.5,0.7,0.7c0.2,0.2,0.3,0.4,0.4,0.5s0.1,0.3,0.2,0.5c0,0.2,0,0.4,0,0.6
						c0,0.6-0.1,1.1-0.4,1.4c-0.3,0.3-0.6,0.5-1.1,0.6c0,0,0,0,0,0.1v1.1c0,0.1,0,0.1-0.1,0.1h-1c-0.1,0-0.1,0-0.1-0.1v-1
						c0,0,0-0.1,0-0.1c-0.1,0-0.3,0-0.4,0c-0.2,0-0.3,0-0.5,0c-0.2,0-0.3,0-0.5-0.1c-0.1,0-0.3-0.1-0.3-0.1c-0.1,0-0.1,0-0.1-0.1
						L54,17c0,0,0-0.1,0.1,0c0.2,0,0.5,0.1,0.7,0.1c0.3,0,0.5,0,0.8,0c0.3,0,0.5,0,0.6-0.1c0.1-0.1,0.1-0.2,0.1-0.4
						c0-0.1,0-0.2,0-0.3c0-0.1-0.1-0.2-0.2-0.3c-0.1-0.1-0.2-0.2-0.4-0.3c-0.2-0.1-0.4-0.3-0.6-0.5c-0.2-0.2-0.4-0.4-0.6-0.5
						c-0.1-0.2-0.3-0.3-0.3-0.5c-0.1-0.2-0.1-0.3-0.2-0.5c0-0.2,0-0.4,0-0.6c0-0.3,0-0.6,0.1-0.9c0.1-0.2,0.2-0.4,0.4-0.6
						c0.2-0.2,0.4-0.3,0.6-0.3c0.2-0.1,0.5-0.1,0.8-0.2c0,0,0,0,0-0.1v-1C55.9,9.7,56,9.7,56.1,9.7z"/>
				</g>
			</g>
		</g>
		<g id="XMLID_103_">
			<path id="XMLID_536_" class="st14" d="M57.6,46.9C57.5,46.9,57.5,46.9,57.6,46.9c-0.9,0-1.6,0.2-2.4,0.4v0l-2.5-1.1l0.8,1.8
				c-2.3,1.4-3.8,3.9-3.8,6.8c0,4.4,3.6,8,8,8c0,0,0,0,0,0c4.4,0,7.9-3.6,7.9-8C65.5,50.4,61.9,46.9,57.6,46.9z"/>
			<g id="XMLID_167_">
				<g id="XMLID_173_">
					<g id="XMLID_404_">
						<g id="XMLID_406_">
							<polygon id="XMLID_429_" class="st15" points="55.2,52.2 55.2,47.3 52.6,46.2 							"/>
							<g id="XMLID_407_">
								<path id="XMLID_409_" class="st16" d="M65.5,54.8c0,4.4-3.6,8-7.9,8V46.9C61.9,46.9,65.5,50.4,65.5,54.8z"/>
								<path id="XMLID_408_" class="st15" d="M49.6,54.8c0-4.4,3.6-8,8-8c0,0,0,0,0,0v15.9c0,0,0,0,0,0
									C53.1,62.8,49.6,59.2,49.6,54.8z"/>
							</g>
						</g>
					</g>
					<g id="XMLID_197_">
						<path id="XMLID_210_" class="st8" d="M61.3,55.5c-0.1,0.4-0.2,0.8-0.5,1.2c-0.2,0.3-0.5,0.6-0.9,0.8c-0.4,0.2-0.8,0.3-1.4,0.3
							c-0.2,0-0.3,0-0.4,0c-0.1,0-0.2,0-0.2-0.1c-0.1,0-0.1-0.1-0.1-0.1s0,0-0.1,0c0,0-0.1,0-0.1,0s-0.1,0-0.1,0.1
							c-0.1,0-0.1,0.1-0.2,0.1c-0.1,0-0.2,0-0.3,0c-0.3,0-0.5,0-0.7-0.1c-0.2-0.1-0.3-0.2-0.5-0.4c-0.1-0.2-0.2-0.3-0.3-0.5
							c-0.1-0.2-0.1-0.4-0.1-0.7c0-0.1,0-0.3,0-0.5c0-0.2,0-0.4,0.1-0.5c0.1-0.5,0.2-0.9,0.3-1.2c0.1-0.3,0.3-0.6,0.4-0.8
							c0.2-0.2,0.4-0.3,0.6-0.4c0.3-0.1,0.6-0.1,0.9-0.1c0.5,0,1,0,1.3,0.1c0.3,0.1,0.5,0.2,0.5,0.3c0,0.1,0,0.1,0,0.2
							c0,0.1,0,0.1,0,0.2l-0.5,3c0,0.1,0,0.2,0,0.2c0,0.1,0,0.1,0.1,0.1c0.2,0,0.4-0.1,0.6-0.2c0.2-0.1,0.3-0.3,0.4-0.5
							c0.1-0.2,0.2-0.5,0.2-0.8c0.1-0.3,0.1-0.7,0.1-1.1c0-0.4,0-0.8-0.1-1.1c-0.1-0.3-0.2-0.6-0.4-0.8c-0.2-0.2-0.4-0.3-0.8-0.4
							c-0.3-0.1-0.7-0.1-1.2-0.1c-0.7,0-1.3,0.1-1.7,0.3c-0.4,0.2-0.8,0.5-1,0.9c-0.2,0.4-0.4,0.9-0.5,1.4c-0.1,0.5-0.1,1.1-0.1,1.7
							c0,0.5,0.1,0.9,0.2,1.3c0.1,0.4,0.3,0.7,0.6,0.9c0.3,0.2,0.6,0.4,1,0.5c0.4,0.1,0.9,0.2,1.5,0.2c0.6,0,1.2-0.1,1.7-0.2
							c0.1,0,0.1,0,0.1,0.1l0.1,0.7c0,0.1,0,0.1-0.1,0.1c-0.1,0-0.3,0.1-0.4,0.1c-0.2,0-0.3,0-0.5,0.1c-0.2,0-0.4,0-0.5,0
							c-0.2,0-0.4,0-0.5,0c-1.4,0-2.4-0.3-3.1-0.9c-0.7-0.6-1-1.6-1-2.9c0-0.7,0.1-1.3,0.2-2c0.1-0.6,0.3-1.2,0.7-1.6
							c0.3-0.5,0.8-0.8,1.4-1.1c0.6-0.3,1.4-0.4,2.3-0.4c0.5,0,1,0.1,1.4,0.2c0.4,0.1,0.8,0.3,1,0.5c0.3,0.3,0.5,0.6,0.6,1
							c0.1,0.4,0.2,0.9,0.2,1.6C61.5,54.6,61.4,55.1,61.3,55.5z M58.3,53.7C58.3,53.7,58.3,53.7,58.3,53.7c0-0.1,0-0.2-0.1-0.2
							c-0.1,0-0.2,0-0.4,0c-0.1,0-0.2,0-0.3,0c-0.1,0-0.2,0.1-0.2,0.2c-0.1,0.1-0.1,0.2-0.2,0.4c-0.1,0.2-0.1,0.4-0.2,0.7
							c0,0.1,0,0.2,0,0.3c0,0.1,0,0.2,0,0.3c0,0.1,0,0.2,0,0.3c0,0.1,0,0.2,0,0.2c0,0.1,0,0.3,0,0.4c0,0.1,0,0.2,0.1,0.2
							c0,0.1,0.1,0.1,0.2,0.1c0.1,0,0.2,0,0.4,0c0.1,0,0.2,0,0.2,0c0,0,0,0,0-0.1l0.5-2.8C58.3,53.8,58.3,53.8,58.3,53.7z"/>
					</g>
				</g>
			</g>
		</g>
		<g id="XMLID_447_">
			<path id="XMLID_582_" class="st17" d="M34.3,44.7l1.3-3.1l-3.1,1.3c-1.7-1.3-3.9-2.2-6.2-2.2c0,0,0,0,0,0
				c-5.6,0-10.1,4.5-10.1,10.1s4.5,10.1,10.1,10.1c0,0,0,0,0,0c5.6,0,10.1-4.5,10.1-10.1C36.4,48.5,35.6,46.4,34.3,44.7z"/>
			<g id="XMLID_448_">
				<g id="XMLID_492_">
					<g id="XMLID_501_">
						<g id="XMLID_502_">
							<g id="XMLID_503_">
								<polygon id="XMLID_507_" class="st17" points="32.3,49.2 32.3,43 35.6,41.6 								"/>
								<g id="XMLID_504_">
									<path id="XMLID_506_" class="st18" d="M16.2,50.8c0,5.6,4.5,10.1,10.1,10.1V40.7C20.7,40.7,16.2,45.2,16.2,50.8z"/>
									<path id="XMLID_505_" class="st17" d="M36.4,50.8c0-5.6-4.5-10.1-10.1-10.1c0,0,0,0,0,0v20.2c0,0,0,0,0,0
										C31.9,60.9,36.4,56.4,36.4,50.8z"/>
								</g>
							</g>
						</g>
					</g>
				</g>
				<g id="XMLID_449_">
					<g id="XMLID_30_">
						<polygon id="XMLID_93_" class="st8" points="28.1,52.3 28.1,52.3 28.1,52.3 						"/>
						<path id="XMLID_107_" class="st8" d="M30.3,53.9c-0.4-0.1-1.6-0.3-2.2-1.5c0,0,0,0,0,0c-0.5,0.6-1.1,1-1.8,1v0c0,0,0,0,0,0
							c0,0,0,0,0,0v0c0,0,0,0,0,0c-0.7,0-1.3-0.4-1.8-1l0,0l0,0c-0.7,1.3-1.8,1.4-2.2,1.5c-0.7,0.2-0.8,0.7-0.8,0.7
							c1.1,1.4,2.9,2.3,4.8,2.3c0,0,0,0,0,0c2,0,3.7-0.9,4.8-2.3C31.1,54.6,31,54,30.3,53.9z"/>
					</g>
					<path id="XMLID_92_" class="st8" d="M29.4,49.2c-0.1-0.1-0.2-0.2-0.4-0.3c0,0,0-0.1,0-0.1c0.1-1.1,0.1-2.1-0.4-2.8
						c-0.5-0.7-1.6-1.1-2.4-1.1v0l0,0l0,0l0,0c0,0,0,0,0,0c-0.8,0-1.9,0.4-2.3,1.1c-0.5,0.7-0.4,1.7-0.4,2.8c0,0,0,0.1,0,0.1
						c-0.1,0-0.3,0.2-0.4,0.3c-0.1,0.2,0,0.4,0,0.6c0.1,0.2,0.1,0.4,0.3,0.5c0.1,0.1,0.3,0.2,0.4,0.2c0.1,0.4,0.3,0.7,0.5,1.1
						c0.1,0.1,0.2,0.2,0.2,0.3c0,0,0,0,0.1,0.1c0.1,0.1,0.2,0.2,0.3,0.2c0,0,0,0,0.1,0.1c0.1,0.1,0.2,0.1,0.3,0.2c0,0,0.1,0,0.1,0.1
						c0.1,0.1,0.2,0.1,0.4,0.1c0,0,0.1,0,0.1,0c0.1,0,0.3,0,0.4,0.1c0,0,0,0,0,0c0,0,0,0,0,0c0.1,0,0.3,0,0.4-0.1c0,0,0,0,0,0
						c0.4-0.1,0.8-0.4,1.2-0.8l0,0c0,0,0,0,0,0c0.1-0.1,0.2-0.2,0.2-0.3c0.2-0.3,0.4-0.7,0.5-1.1c0.1,0,0.3-0.1,0.4-0.2
						c0.1-0.1,0.2-0.3,0.3-0.5C29.4,49.6,29.5,49.4,29.4,49.2z"/>
					<path id="XMLID_453_" class="st19" d="M28.1,52.3C28,52.3,28,52.3,28.1,52.3c0-0.1,0-0.1,0-0.1c0,0,0-0.1,0-0.1c0,0,0,0,0,0
						c0-0.1,0-0.1,0-0.2c-0.3,0.4-0.7,0.6-1.2,0.8c0,0,0,0,0,0c-0.1,0-0.3,0.1-0.4,0.1v0l0,0l0,0c0,0,0,0,0,0c0,0,0,0,0,0v0
						c0,0,0,0,0,0c0,0,0,0,0,0c-0.1,0-0.3,0-0.4-0.1c0,0-0.1,0-0.1,0c-0.1,0-0.2-0.1-0.4-0.1c0,0-0.1,0-0.1-0.1
						c-0.1-0.1-0.2-0.1-0.3-0.2c0,0,0,0-0.1-0.1c-0.1-0.1-0.2-0.2-0.3-0.2c0,0,0,0-0.1-0.1l0,0c0,0,0,0.1,0,0.1c0,0,0,0,0,0
						c0,0,0,0.1,0,0.1c0,0,0,0,0,0c0,0,0,0,0,0.1c0,0,0,0,0,0c0,0,0,0.1,0,0.1l0,0c0.5,0.6,1.1,0.9,1.8,1c0,0,0,0,0,0v0c0,0,0,0,0,0
						c0,0,0,0,0,0v0C27,53.3,27.6,52.9,28.1,52.3L28.1,52.3z"/>
				</g>
			</g>
		</g>
	</g>
</g>
</svg>
