<?xml version="1.0" encoding="utf-8"?>
<!-- Generator: Adobe Illustrator 19.0.0, SVG Export Plug-In . SVG Version: 6.00 Build 0)  -->
<svg version="1.1" id="Capa_1" xmlns="http://www.w3.org/2000/svg" xmlns:xlink="http://www.w3.org/1999/xlink" x="0px" y="0px"
	 viewBox="0 0 75.2 56.6" style="enable-background:new 0 0 75.2 56.6;" xml:space="preserve">
<style type="text/css">
	.st0{fill:none;stroke:#BB4E45;stroke-width:2;stroke-linecap:round;stroke-linejoin:round;stroke-miterlimit:10;}
	.st1{fill:#F6E9DA;}
	.st2{fill:#C64F47;}
	.st3{fill:#EDE1C2;}
	.st4{fill:#CF7765;}
	.st5{fill:#F9F1D7;}
</style>
<g id="XMLID_1296_">
	<g id="XMLID_1297_">
		<g id="XMLID_1321_">
			<line id="XMLID_1324_" class="st0" x1="64.9" y1="21.6" x2="74.2" y2="20.3"/>
			<line id="XMLID_1323_" class="st0" x1="57.5" y1="8.5" x2="63.2" y2="1"/>
			<line id="XMLID_1322_" class="st0" x1="61.6" y1="36.2" x2="69.1" y2="41.9"/>
		</g>
		<g id="XMLID_1298_">
			<g id="XMLID_1302_">
				<path id="XMLID_1320_" class="st1" d="M0.1,30.6C0.1,30.6,0.1,30.7,0.1,30.6C0.1,30.7,0.1,30.6,0.1,30.6L0.1,30.6z"/>
				<path id="XMLID_1319_" class="st2" d="M0.1,30.7c0,0,0,0.1,0,0.1c1,6.7,7.7,11.3,15.5,10.9l0-0.2C7.9,41.9,1.2,37.3,0.1,30.7z"
					/>
				<path id="XMLID_1318_" class="st2" d="M15.6,41.5l-1.9-12.9l-13.6,2c0,0,0,0.1,0,0.1C1.2,37.3,7.9,41.9,15.6,41.5z"/>
				<path id="XMLID_1317_" class="st1" d="M52.5,46.8L52.5,46.8c0-0.1-0.1-0.1-0.1-0.1C52.5,46.8,52.5,46.8,52.5,46.8z"/>
				<path id="XMLID_1316_" class="st3" d="M45.2,24.3c0-0.1,0-0.1,0-0.2l-14.3,2.1l-17.1,2.5l1.9,12.9l0,0.2l0,0.1L28,40
					c11.1-1,20.8,4.4,23.6,6.2C49.4,44,46.6,34.4,45.2,24.3z"/>
				<rect id="XMLID_1315_" x="15.6" y="41.5" class="st1" width="0" height="0.2"/>
				
					<rect id="XMLID_1314_" x="8.1" y="35.1" transform="matrix(-0.144 -0.9896 0.9896 -0.144 -17.9774 54.6227)" class="st1" width="13" height="0"/>
				<path id="XMLID_1313_" class="st2" d="M52.4,46.7c-0.1-0.1-0.4-0.3-0.7-0.5C51.9,46.5,52.1,46.7,52.4,46.7z"/>
				<path id="XMLID_1312_" class="st2" d="M50,30c-0.5,0.2-1.1,0.4-1.7,0.4l-0.8,0.1c-0.4-2.1-0.8-4.3-1.2-6.7l-1.2,0.2
					c0,0.1,0,0.1,0,0.2c1.5,10.1,4.3,19.7,6.5,22c0.4,0.2,0.6,0.4,0.7,0.5c0,0,0.1,0,0.1,0c0.1,0,0.1,0,0.2,0
					c2-0.3,2.4-9.4,1.3-19.6C53,28.4,51.7,29.4,50,30z"/>
				<path id="XMLID_1311_" class="st3" d="M55,22.6l-1.6,0.2l-4.3,0.6l-2.7,0.4c0.3,2.3,0.7,4.6,1.2,6.7l0.8-0.1
					c0.6-0.1,1.2-0.2,1.7-0.4c1.6-0.6,3-1.6,3.9-2.9c0.5-0.7,0.8-1.4,1-2.1c0.2-0.7,0.2-1.5,0.1-2.2C55.1,22.7,55,22.7,55,22.6z"/>
				<path id="XMLID_1310_" class="st1" d="M11.8,15.9L11.8,15.9l4.3-0.7c-0.9,0-1.7,0-2.6,0.2C5.1,16.6-0.9,23.4,0.1,30.6l0,0l0,0
					C-0.7,24,4.4,17.8,11.8,15.9z"/>
				<path id="XMLID_1309_" class="st4" d="M0.1,30.6l13.6-2l-1.8-12.7C4.4,17.8-0.7,24,0.1,30.6z"/>
				<path id="XMLID_1308_" class="st1" d="M45.8,0.6c0,0,0,0-0.1,0.1C45.7,0.7,45.7,0.6,45.8,0.6L45.8,0.6z"/>
				<path id="XMLID_1307_" class="st5" d="M24.2,14l-8.1,1.2l-4.4,0.6l0,0.1l1.8,12.7l17.1-2.5l14.3-2.1c-1.4-10.1-1.5-20,0-22.7
					C42.9,3.9,35.1,11.8,24.2,14z"/>
				<rect id="XMLID_1306_" x="12.8" y="15.9" class="st1" width="0" height="12.8"/>
				<path id="XMLID_1305_" class="st2" d="M45.1,1.3c0.3-0.3,0.5-0.5,0.6-0.7C45.5,0.8,45.3,1,45.1,1.3z"/>
				<path id="XMLID_1304_" class="st4" d="M45.9,0.6c-0.1,0-0.1,0-0.2,0c0,0-0.1,0-0.1,0c-0.1,0.1-0.3,0.4-0.6,0.7
					c-1.5,2.8-1.4,12.7,0,22.7l1.2-0.2c0,0,0,0,0-0.1c-0.3-2.2-0.6-4.3-0.7-6.3l0.8-0.1c0.6-0.1,1.2-0.1,1.8-0.1
					c1.7,0.1,3.3,0.7,4.5,1.6C50.9,8.9,47.9,0.3,45.9,0.6z"/>
				<path id="XMLID_1303_" class="st5" d="M54.3,20.7c-0.4-0.7-0.9-1.3-1.6-1.8c-1.2-1-2.8-1.5-4.5-1.6c-0.6,0-1.2,0-1.8,0.1
					l-0.8,0.1c0.2,2,0.4,4.1,0.7,6.3c0,0,0,0,0,0.1l2.7-0.4l4.3-0.6l1.6-0.2C54.9,21.9,54.7,21.3,54.3,20.7z"/>
			</g>
			<g id="XMLID_1299_">
				<path id="XMLID_1301_" class="st4" d="M15.6,41.8l4.3,12.5c0.2,1.5,1.6,2.5,3.1,2.3l1.2-0.2l-4.7-15.2L15.6,41.8z"/>
				<path id="XMLID_1300_" class="st2" d="M27.6,53.1l-4.3-12.5l-3.8,0.6l4.7,15.2l1.1-0.2C26.8,56,27.8,54.6,27.6,53.1z"/>
			</g>
		</g>
	</g>
</g>
</svg>
