<?xml version="1.0" encoding="utf-8"?>
<!-- Generator: Adobe Illustrator 19.0.0, SVG Export Plug-In . SVG Version: 6.00 Build 0)  -->
<svg version="1.1" id="Capa_1" xmlns="http://www.w3.org/2000/svg" xmlns:xlink="http://www.w3.org/1999/xlink" x="0px" y="0px"
	 viewBox="0 0 220 170" style="enable-background:new 0 0 220 170;" xml:space="preserve">
<style type="text/css">
	.st0{fill:#DD5113;}
</style>
<g id="XMLID_363_">
	<g id="XMLID_376_">
		<path id="XMLID_50_" class="st0" d="M191,107.9V63.2h-56.3V19.9H49.4v23.9H33.7v21.9h34.5V43.9l5.2,3v23H49.4v12.3H30.3v69.3h51
			V82.6l5.3,3v55h48.1v-28.3H97.1V66.4l4.5-3v44.5H191z M46.1,59l4.9-8.5l4.9,8.5H46.1z M47.1,124.5l8.8-15.3l8.8,15.3H47.1z
			 M119.1,29.6L124,38h-9.8L119.1,29.6z M109.3,70.1c0.4-0.7,1.3-1,2-0.6l29.6,16.4l2.1,1.1l3.1,1.7l3.1-1.7l2.1-1.1l29.6-16.4
			c0.7-0.4,1.6-0.1,2,0.6s0.1,1.6-0.6,2l-27.9,15.5l18,10c0.5,0.3,0.7,0.9,0.4,1.4c-0.2,0.3-0.5,0.5-0.9,0.5c-0.2,0-0.3,0-0.5-0.1
			l-19.1-10.6l-5.4,3c-0.2,0.1-0.5,0.2-0.7,0.2s-0.5-0.1-0.7-0.2l-5.4-3l-19.1,10.6c-0.5,0.3-1.1,0.1-1.4-0.4
			c-0.3-0.5-0.1-1.1,0.4-1.4l18-10l-27.9-15.5C109.2,71.7,108.9,70.8,109.3,70.1z"/>
	</g>
</g>
</svg>
