<?xml version="1.0" encoding="utf-8"?>
<!-- Generator: Adobe Illustrator 19.0.0, SVG Export Plug-In . SVG Version: 6.00 Build 0)  -->
<svg version="1.1" id="Capa_1" xmlns="http://www.w3.org/2000/svg" xmlns:xlink="http://www.w3.org/1999/xlink" x="0px" y="0px"
	 viewBox="0 0 220 170" style="enable-background:new 0 0 220 170;" xml:space="preserve">
<style type="text/css">
	.st0{fill:#DD5113;}
</style>
<g id="XMLID_61_">
	<rect id="XMLID_158_" x="82.8" y="142.7" class="st0" width="48.3" height="19.6"/>
	<path id="XMLID_95_" class="st0" d="M86.2,137.8L66,91.6l0.1,0L66,91.2c-2-4.3-3.1-8.9-3.3-13.5c-0.3-8.9,2.8-17.1,8.8-23.1
		c1.2-1.3,2.9-1.9,4.7-1.9c1.8,0,3.6,0.7,4.9,2.1c2.6,2.7,2.6,7.1,0,9.7c-2.6,2.6-4.2,6.1-4.7,10c-0.1,1-0.2,1.8-0.2,2.6
		c0,2.4,0.5,4.8,1.5,7.1l0.1,0.3l0.1,0.3c0.2,0.5,0.5,1.1,0.8,1.7l0.1,0.2l0.1,0c3.8,6.1,11,9.9,18.7,9.9c11.9,0,21.5-8.7,21.5-19.5
		c0-0.2,0-0.5,0-0.7l0-0.2c-2.1-11.5-13.3-19.8-26.5-19.8c-0.7,0-1.4,0-2.1,0.1c-0.2,0-0.4,0-0.6,0c-3.4,0-6.2-2.7-6.5-6.2
		c-0.3-3.7,2.5-6.9,6.1-7.2c1.1-0.1,2.3-0.1,3.4-0.1c8.8,0,17.1,2.7,24.2,7.8l0.6,0.5l0-0.1l1.8,1.5c0.1,0.1,0.2,0.2,0.4,0.3
		c0.1,0.1,0.2,0.2,0.3,0.3c0.8,0.7,1.4,1.2,1.9,1.8c0.1,0.1,0.3,0.3,0.4,0.5l0.3,0.3c0.5,0.5,1.2,1.3,1.8,2c0.2,0.2,0.3,0.4,0.4,0.6
		l0.2,0.3c0.5,0.6,1,1.3,1.5,2c0.2,0.3,0.3,0.6,0.5,0.8l0.2,0.3c0.4,0.7,0.8,1.3,1.1,1.9c0.2,0.4,0.4,0.7,0.5,1.1l0.4,0.8
		c0.2,0.5,0.4,0.9,0.6,1.4c0.2,0.5,0.4,1,0.5,1.5l0.3,0.8c0.1,0.4,0.3,0.7,0.4,1.1c0.2,0.6,0.3,1.3,0.5,1.9l0.1,0.3
		c0,0.2,0.1,0.4,0.1,0.5c0.1,0.3,0.1,0.5,0.2,0.8c0.2,1.2,0.4,2.4,0.5,3.5l0,0.1c0,0.1,0,0.1,0,0.2c0,0.5,0,0.8,0,1.2
		c0,0.1,0,0.2-0.1,0.2l-0.1,0.3l0.3,0.1l2.4,0.5l0.1-0.3c0.2-0.8,0.2-1.6,0.2-2.3c-0.7-10-5.5-19.2-13.4-26
		c-0.7-0.6-1.4-1.1-2.1-1.6l-0.2-0.1L112,16.6c-0.9-3.9,1.5-7.8,5.4-8.7c0.5-0.1,1.1-0.2,1.7-0.2c3.4,0,6.3,2.3,7.1,5.6l15.4,66
		c0.2,0.7,0.2,1.4,0.2,2.1l0,0.3l0,0l-0.1,0.3c-0.1,0.4-0.1,0.8-0.3,1.1l-12.6,54.8H86.2z"/>
	<g id="XMLID_155_">
		<path id="XMLID_63_" class="st0" d="M135.3,41.1l5.4-21c0.8-3.3,3.8-5.6,7.2-5.6c0.6,0,1.2,0.1,1.9,0.2c1.9,0.5,3.6,1.7,4.6,3.4
			c1,1.7,1.3,3.7,0.8,5.7l-12.5,49L135.3,41.1z"/>
	</g>
	<g id="XMLID_152_">
		<path id="XMLID_153_" class="st0" d="M153.4,41.3l-9.5,35.2L156.7,51C158.3,47.4,156.9,43.2,153.4,41.3z"/>
	</g>
</g>
</svg>
