<?xml version="1.0" encoding="utf-8"?>
<!-- Generator: Adobe Illustrator 19.0.0, SVG Export Plug-In . SVG Version: 6.00 Build 0)  -->
<svg version="1.1" id="Capa_1" xmlns="http://www.w3.org/2000/svg" xmlns:xlink="http://www.w3.org/1999/xlink" x="0px" y="0px"
	 viewBox="0 0 260 260" style="enable-background:new 0 0 260 260;" xml:space="preserve">
<style type="text/css">
	.st0{fill:#DE5113;}
</style>
<g id="XMLID_118_">
	<g id="XMLID_159_">
		<rect id="XMLID_165_" x="103" y="187.9" class="st0" width="48.3" height="19.6"/>
		<path id="XMLID_164_" class="st0" d="M162.1,127.2l0.1-0.6l-0.1,0c0-0.7,0-1.5-0.2-2.2l-15.4-66c-0.8-3.5-3.9-5.9-7.4-5.9
			c-0.6,0-1.1,0.1-1.7,0.2c-4.1,0.9-6.6,5-5.7,9.1l7.7,33.3c0.8,0.6,1.6,1.2,2.3,1.8c7.9,6.7,12.6,15.9,13.3,25.8
			c0.1,0.8,0,1.5-0.1,2.3l-2.1-0.5c0-0.1,0.1-0.2,0.1-0.3c0-0.4,0.1-0.8,0-1.2c0-0.1,0-0.1,0-0.2c0,0,0-0.1,0-0.1
			c-0.1-1.2-0.2-2.4-0.5-3.6c-0.1-0.5-0.2-0.9-0.3-1.4c-0.2-0.7-0.3-1.5-0.5-2.2c-0.2-0.5-0.4-1.1-0.5-1.6c-0.2-0.6-0.4-1.2-0.7-1.8
			c-0.2-0.6-0.5-1.2-0.8-1.8c-0.2-0.5-0.5-1-0.7-1.5c-0.3-0.7-0.7-1.3-1.1-1.9c-0.2-0.4-0.5-0.8-0.7-1.2c-0.5-0.7-1-1.4-1.5-2
			c-0.2-0.3-0.4-0.6-0.7-0.9c-0.6-0.7-1.2-1.4-1.8-2c-0.2-0.2-0.4-0.5-0.7-0.7c-0.6-0.6-1.2-1.2-1.9-1.8c-0.2-0.2-0.4-0.4-0.7-0.6
			l-0.6-0.5c-0.1-0.1-0.3-0.2-0.4-0.3l-1.5-1.2l0,0.2c-7.7-5.6-17.4-8.6-27.8-7.7c-3.8,0.3-6.7,3.6-6.4,7.5c0.3,3.9,3.6,6.9,7.4,6.5
			c13.9-0.9,26,7.5,28.2,19.4c0,0.3,0.1,0.6,0.1,0.9c0,10.6-9.5,19.2-21.2,19.2c-8,0-15-4-18.6-9.9l-0.1,0c-0.3-0.5-0.5-1.1-0.8-1.7
			c0-0.1-0.1-0.2-0.1-0.3c0-0.1-0.1-0.2-0.1-0.3c-0.9-2.2-1.5-4.5-1.5-7c0-0.9,0.1-1.7,0.2-2.6c0.4-3.8,2-7.2,4.6-9.8
			c2.7-2.8,2.7-7.3,0-10.2c-2.7-2.8-7.2-2.9-10-0.1c-6,6.1-9.2,14.3-8.9,23.3c0.2,4.7,1.3,9.3,3.3,13.6l-0.1,0l20.5,46.8h43l12.7-55
			C161.9,127.9,162,127.6,162.1,127.2z"/>
		<g id="XMLID_162_">
			<path id="XMLID_163_" class="st0" d="M169.9,59.5c-4.2-1.1-8.4,1.5-9.5,5.6l-5.4,21.1l7.7,32.9L175.6,69
				C176.6,64.8,174.1,60.6,169.9,59.5z"/>
		</g>
		<g id="XMLID_160_">
			<path id="XMLID_161_" class="st0" d="M173.6,86.4l-9.9,36.4l13.2-26.7C178.5,92.5,177,88.3,173.6,86.4z"/>
		</g>
	</g>
</g>
</svg>
