<?xml version="1.0" encoding="utf-8"?>
<!-- Generator: Adobe Illustrator 19.0.0, SVG Export Plug-In . SVG Version: 6.00 Build 0)  -->
<svg version="1.1" id="Capa_1" xmlns="http://www.w3.org/2000/svg" xmlns:xlink="http://www.w3.org/1999/xlink" x="0px" y="0px"
	 viewBox="0 0 220 170" style="enable-background:new 0 0 220 170;" xml:space="preserve">
<style type="text/css">
	.st0{fill:#DD5113;}
</style>
<g id="XMLID_32_">
	<path id="XMLID_389_" class="st0" d="M175.9,148.3L175.9,148.3L93.6,55.6l0,0c-2.2-2-6-0.9-9.3,2s-4.8,6.6-3.1,9l0,0l82.4,92.6l0,0
		c2.2,2,6,0.8,9.2-2.1C176,154.3,177.7,150.7,175.9,148.3z M106,82.1c-0.9,0.8-2.1,1.9-3.1,3.3L84.5,64.9l0-0.1
		c-0.3-0.4,0.2-2.3,2.3-4.2c2.2-1.9,4.1-2.2,4.5-1.8l0.1,0.1l18.3,20.6C108.2,80.3,106.9,81.3,106,82.1z"/>
	<polygon id="XMLID_126_" class="st0" points="120,13.2 139.2,27 158.4,13.2 144.7,32.4 158.4,51.6 139.2,37.8 120,51.6 133.8,32.4 
			"/>
	<polygon id="XMLID_125_" class="st0" points="48.3,90.7 67.5,104.5 86.7,90.7 72.9,109.9 86.7,129.1 67.5,115.3 48.3,129.1 
		62.1,109.9 	"/>
	<polygon id="XMLID_127_" class="st0" points="43.4,51.4 54.5,59.3 65.6,51.4 57.6,62.5 65.6,73.6 54.5,65.6 43.4,73.6 51.3,62.5 	
		"/>
	<polygon id="XMLID_128_" class="st0" points="70.5,9.7 81.6,17.7 92.7,9.7 84.8,20.8 92.7,31.9 81.6,23.9 70.5,31.9 78.5,20.8 	"/>
	<polygon id="XMLID_129_" class="st0" points="144.1,72.7 155.2,80.7 166.3,72.7 158.3,83.8 166.3,94.9 155.2,87 144.1,94.9 
		152,83.8 	"/>
</g>
</svg>
