<?xml version="1.0" encoding="utf-8"?>
<!-- Generator: Adobe Illustrator 19.0.0, SVG Export Plug-In . SVG Version: 6.00 Build 0)  -->
<svg version="1.1" id="Capa_1" xmlns="http://www.w3.org/2000/svg" xmlns:xlink="http://www.w3.org/1999/xlink" x="0px" y="0px"
	 viewBox="0 0 260 260" style="enable-background:new 0 0 260 260;" xml:space="preserve">
<style type="text/css">
	.st0{fill:#DE5113;}
</style>
<g id="XMLID_24_">
	<g id="XMLID_94_">
		<path id="XMLID_96_" class="st0" d="M183.3,132.6l-48.8,19.1c-2.9,1.1-6.1,1.1-9,0l-48.8-19.1v32.2c0,0,0,0,0,0s0,0,0,0v0.3h0
			c0.6,6.8,24.2,17.4,53.3,17.4c29.1,0,52.7-10.6,53.3-17.4h0v-0.3c0,0,0,0,0,0s0,0,0,0V132.6z"/>
		<path id="XMLID_95_" class="st0" d="M62.2,120.3l67.8,26.5l88.7-34.6L130,77.6l-88.7,34.6l14.4,5.6v30.4h0.4
			c-1.9,1-3.2,3.1-3.2,5.4c0,1.4,0.5,2.7,1.2,3.7c-1.9,4.3-3,11.1-3,18.7c0,0,0,0,0,0c0,1.6,1,3.1,2.4,3.4c1.7,0.4,3.6,0.6,5.5,0.6
			c1.9,0,3.7-0.2,5.5-0.6c1.4-0.3,2.4-1.7,2.4-3.4c0,0,0,0,0,0c0-7.6-1.2-14.4-3-18.7c0.8-1,1.2-2.3,1.2-3.7c0-2.3-1.3-4.4-3.2-5.4
			h0.4V120.3z"/>
	</g>
</g>
</svg>
