<?xml version="1.0" encoding="utf-8"?>
<!-- Generator: Adobe Illustrator 19.0.0, SVG Export Plug-In . SVG Version: 6.00 Build 0)  -->
<svg version="1.1" id="Capa_1" xmlns="http://www.w3.org/2000/svg" xmlns:xlink="http://www.w3.org/1999/xlink" x="0px" y="0px"
	 viewBox="0 0 220 170" style="enable-background:new 0 0 220 170;" xml:space="preserve">
<style type="text/css">
	.st0{fill:#DD5113;}
</style>
<g id="XMLID_140_">
	<path id="XMLID_146_" class="st0" d="M104.8,113.2c-4.4,0.6-29.7-8.7-44.4-20c-1,5.2-1.8,11.9-2,20.2c0,9.7,12.4,23.8,46.1,25.9
		c0.5,0,0.9,0,1.4-0.1c0,0,0.1,0,0.1,0c40.8-6.6,56.8-27.8,56.8-27.8l-3.4-22.7C159.4,88.6,124.3,110.4,104.8,113.2z"/>
	<path id="XMLID_144_" class="st0" d="M196.5,56c0,0-19.5-8.1-40.1-14.7c-17.5-5.6-35.7-9.8-42.6-10.6c-11.9,2.1-26.9,4.5-41.6,8.4
		c-20.8,5.5-40.8,13.1-48.8,18.8c-0.6,1.3-0.4,3.8,0,4.6c3.6,3.1,8,6.9,13.2,10.9c-1.1,12.5-0.9,21.5,0.8,35.7
		c-1.6,0.9-2.7,2.6-2.7,4.5c0,1.5,0.7,2.9,1.7,3.8c-2.9,5.3-3.6,20.2-1.4,19.5c5.9-1.8,9.9-6.3,10.1-12c0.1-3.6-0.6-6-1.8-7.5
		c1-0.9,1.7-2.3,1.7-3.8c0-2-1.2-3.8-2.9-4.6c-1.5-12.9-1.9-21.4-1.1-32.2c16.1,11.8,38.2,24.6,63.6,29c0,0,17.4-3,46.3-17.5
		c27.5-13.8,45.4-27.7,45.4-27.7S197.5,58.5,196.5,56z"/>
</g>
</svg>
