<?xml version="1.0" encoding="utf-8"?>
<!-- Generator: Adobe Illustrator 19.0.0, SVG Export Plug-In . SVG Version: 6.00 Build 0)  -->
<svg version="1.1" id="Capa_1" xmlns="http://www.w3.org/2000/svg" xmlns:xlink="http://www.w3.org/1999/xlink" x="0px" y="0px"
	 viewBox="0 0 220 170" style="enable-background:new 0 0 220 170;" xml:space="preserve">
<style type="text/css">
	.st0{fill:#DD5113;}
</style>
<g id="XMLID_65_">
	<path id="XMLID_66_" class="st0" d="M110,22.4c-34.6,0-62.6,28-62.6,62.6s28,62.6,62.6,62.6s62.6-28,62.6-62.6S144.6,22.4,110,22.4
		z M124.6,60c4.2,0,7.7,3.8,7.7,8.5c0,4.7-3.4,8.5-7.7,8.5c-4.2,0-7.7-3.8-7.7-8.5C116.9,63.8,120.3,60,124.6,60z M95.4,60
		c4.2,0,7.7,3.8,7.7,8.5c0,4.7-3.4,8.5-7.7,8.5s-7.7-3.8-7.7-8.5C87.8,63.8,91.2,60,95.4,60z M110,128.9
		c-24.2,0-43.9-19.7-43.9-43.9c0-1.8,1.5-3.3,3.3-3.3s3.3,1.5,3.3,3.3c0,20.6,16.8,37.4,37.4,37.4s37.4-16.8,37.4-37.4
		c0-1.8,1.5-3.3,3.3-3.3c1.8,0,3.3,1.5,3.3,3.3C153.9,109.2,134.2,128.9,110,128.9z"/>
</g>
</svg>
