<?xml version="1.0" encoding="utf-8"?>
<!-- Generator: Adobe Illustrator 19.0.0, SVG Export Plug-In . SVG Version: 6.00 Build 0)  -->
<svg version="1.1" id="Capa_1" xmlns="http://www.w3.org/2000/svg" xmlns:xlink="http://www.w3.org/1999/xlink" x="0px" y="0px"
	 viewBox="0 0 260 260" style="enable-background:new 0 0 260 260;" xml:space="preserve">
<style type="text/css">
	.st0{fill:#DE5113;}
</style>
<g id="XMLID_65_">
	<g id="XMLID_143_">
		<path id="XMLID_144_" class="st0" d="M130,67.4c-34.6,0-62.6,28-62.6,62.6s28,62.6,62.6,62.6s62.6-28,62.6-62.6
			S164.6,67.4,130,67.4z M144.6,105c4.2,0,7.7,3.8,7.7,8.5c0,4.7-3.4,8.5-7.7,8.5c-4.2,0-7.7-3.8-7.7-8.5
			C136.9,108.8,140.3,105,144.6,105z M115.4,105c4.2,0,7.7,3.8,7.7,8.5c0,4.7-3.4,8.5-7.7,8.5s-7.7-3.8-7.7-8.5
			C107.8,108.8,111.2,105,115.4,105z M130,173.9c-24.2,0-43.9-19.7-43.9-43.9c0-1.8,1.5-3.3,3.3-3.3s3.3,1.5,3.3,3.3
			c0,20.6,16.8,37.4,37.4,37.4s37.4-16.8,37.4-37.4c0-1.8,1.5-3.3,3.3-3.3c1.8,0,3.3,1.5,3.3,3.3C173.9,154.2,154.2,173.9,130,173.9
			z"/>
	</g>
</g>
</svg>
