<?xml version="1.0" encoding="utf-8"?>
<!-- Generator: Adobe Illustrator 19.0.0, SVG Export Plug-In . SVG Version: 6.00 Build 0)  -->
<svg version="1.1" id="Capa_1" xmlns="http://www.w3.org/2000/svg" xmlns:xlink="http://www.w3.org/1999/xlink" x="0px" y="0px"
	 viewBox="0 0 220 170" style="enable-background:new 0 0 220 170;" xml:space="preserve">
<style type="text/css">
	.st0{fill:#DD5113;}
</style>
<g id="XMLID_359_">
	<path id="XMLID_380_" class="st0" d="M127.1,75.5l-1.4,0.3c-1.3,0.2-2.2,0.5-2.7,0.8c-0.9,0.5-1.4,1.4-1.4,2.5c0,1,0.3,1.8,0.9,2.2
		c0.6,0.5,1.3,0.7,2.1,0.7c1.3,0,2.5-0.4,3.6-1.1c1.1-0.8,1.7-2.1,1.7-4.1v-2.2c-0.4,0.2-0.8,0.4-1.2,0.6
		C128.3,75.2,127.7,75.4,127.1,75.5z"/>
	<path id="XMLID_385_" class="st0" d="M91.2,72.6c-0.7-0.3-1.8-0.5-3.1-0.5h-7.6v8.2H88c1.3,0,2.4-0.2,3.1-0.5c1.4-0.7,2-2,2-3.9
		C93.1,74.3,92.5,73.2,91.2,72.6z"/>
	<path id="XMLID_403_" class="st0" d="M91.2,66.2c0.8-0.5,1.3-1.4,1.3-2.7c0-1.4-0.6-2.4-1.7-2.8c-1-0.3-2.2-0.5-3.6-0.5h-6.7v6.8
		H88C89.3,66.9,90.4,66.7,91.2,66.2z"/>
	<path id="XMLID_412_" class="st0" d="M175.7,68.6c-0.9-0.7-1.9-1.1-3-1.1c-1.7,0-3,0.7-3.8,2s-1.2,3-1.2,4.9c0,2.1,0.4,3.8,1.2,5.1
		c0.8,1.3,2.1,1.9,3.8,1.9c1.7,0,3-0.6,3.9-1.9c0.9-1.3,1.3-2.9,1.3-4.9C177.8,71.8,177.1,69.8,175.7,68.6z"/>
	<path id="XMLID_415_" class="st0" d="M197.3,35.2H68.7c-2,0-4,0.8-5.4,2.3L36.8,65.4c-2.7,2.9-2.7,7.4,0,10.2l0.4,0.5
		c2.5-1.9,5.2-3.5,8.3-4.6c-0.6-4.2,3.1-7.8,7.3-6.8c2.2,0.5,4,2.3,4.5,4.5c1,4.4-2.9,8.2-7.3,7.3c-0.4-0.1-0.9-0.3-1.3-0.5
		c0-0.3,0-0.6-0.1-0.9c-0.4-0.9-1.4-1.4-2.3-1.1c-13.6,4.6-23.3,19-28,32.5c-2.9,8.3-6,21.1,1.1,27c1.3,1.1,3.1,1.4,4.5,1.3
		c1.3-0.1,2.5-0.6,3.3-1.3c5.4-4.8,5.7-14.1,6.4-23.7c0.7-9,2.2-20.8,8.7-28.1l20.9,21.9c1.4,1.5,3.3,2.3,5.4,2.3h128.6
		c4.1,0,7.4-3.3,7.4-7.4V42.6C204.7,38.5,201.4,35.2,197.3,35.2z M30.1,109.4c-0.7,9.3-1,17.4-5.1,21c-0.4,0.3-1.9,0.8-3.3-0.3
		c-1.3-0.9-5.5-5.6,0.3-22.3c3.5-10.1,8.4-17,12.9-21.6C31.6,93.3,30.7,101.7,30.1,109.4z M98.3,81.2c-0.6,1-1.3,1.8-2.2,2.4
		c-1,0.8-2.1,1.3-3.5,1.5c-1.3,0.3-2.8,0.4-4.4,0.4H74.3V54.8h14.9c3.8,0.1,6.4,1.2,8,3.3c0.9,1.3,1.4,2.9,1.4,4.7
		c0,1.9-0.5,3.4-1.4,4.5c-0.5,0.6-1.3,1.2-2.4,1.8c1.6,0.6,2.8,1.5,3.6,2.7c0.8,1.2,1.2,2.8,1.2,4.5C99.6,78.1,99.2,79.8,98.3,81.2z
		 M114,68.3c-2.4,0-4,0.8-4.8,2.3c-0.5,0.9-0.7,2.2-0.7,4.1v10.9h-6V62.8h5.7v4c0.9-1.5,1.7-2.6,2.4-3.1c1.1-0.9,2.6-1.4,4.4-1.4
		c0.1,0,0.2,0,0.3,0c0.1,0,0.2,0,0.5,0v6.1c-0.4,0-0.7-0.1-1-0.1C114.5,68.3,114.2,68.3,114,68.3z M137,85.6h-6.5
		c-0.2-0.5-0.3-0.9-0.4-1.3c-0.1-0.4-0.1-0.9-0.2-1.4c-0.8,0.9-1.8,1.7-2.9,2.3c-1.3,0.7-2.8,1.1-4.4,1.1c-2.1,0-3.8-0.6-5.2-1.8
		c-1.4-1.2-2-2.9-2-5c0-2.8,1.1-4.8,3.3-6.1c1.2-0.7,3-1.2,5.3-1.5l2-0.3c1.1-0.1,1.9-0.3,2.4-0.5c0.9-0.4,1.3-0.9,1.3-1.7
		c0-0.9-0.3-1.6-1-1.9c-0.7-0.4-1.6-0.5-2.9-0.5c-1.4,0-2.4,0.3-3,1c-0.4,0.5-0.7,1.2-0.8,2.1h-5.8c0.1-2,0.7-3.6,1.7-4.9
		c1.6-2,4.3-3,8.2-3c2.5,0,4.7,0.5,6.7,1.5c1.9,1,2.9,2.9,2.9,5.6v10.5c0,0.7,0,1.6,0,2.6c0,0.8,0.2,1.3,0.4,1.6
		c0.2,0.3,0.5,0.5,0.9,0.7V85.6z M159.5,85.6h-6.1V71.7c0-1.2-0.2-2.1-0.5-2.8c-0.6-1.2-1.7-1.8-3.3-1.8c-2,0-3.4,0.9-4.1,2.6
		c-0.4,0.9-0.6,2.1-0.6,3.5v12.4h-6V62.8h5.8v3.3c0.8-1.2,1.5-2,2.2-2.5c1.2-0.9,2.8-1.4,4.7-1.4c2.4,0,4.3,0.6,5.8,1.9
		c1.5,1.2,2.2,3.3,2.2,6.1V85.6z M183.7,85.6h-5.8v-3.2c-0.9,1.4-1.8,2.3-2.9,3c-1.1,0.6-2.4,0.9-4.1,0.9c-2.7,0-4.9-1.1-6.7-3.2
		c-1.8-2.2-2.7-4.9-2.7-8.3c0-3.9,0.9-7,2.7-9.2s4.2-3.4,7.2-3.4c1.4,0,2.6,0.3,3.7,0.9s1.9,1.4,2.6,2.5V54.8h6.1V85.6z"/>
</g>
</svg>
