<?xml version="1.0" encoding="utf-8"?>
<!-- Generator: Adobe Illustrator 19.0.0, SVG Export Plug-In . SVG Version: 6.00 Build 0)  -->
<svg version="1.1" id="Capa_1" xmlns="http://www.w3.org/2000/svg" xmlns:xlink="http://www.w3.org/1999/xlink" x="0px" y="0px"
	 viewBox="0 0 260 260" style="enable-background:new 0 0 260 260;" xml:space="preserve">
<style type="text/css">
	.st0{fill:#DE5113;}
</style>
<g id="XMLID_23_">
	<g id="XMLID_251_">
		<polygon id="XMLID_264_" class="st0" points="142.1,72.8 134.1,72.8 134.1,64.9 125.9,64.9 125.9,72.8 117.9,72.8 117.9,81.1 
			125.9,81.1 125.9,89 134.1,89 134.1,81.1 142.1,81.1 		"/>
		<g id="XMLID_252_">
			<g id="XMLID_255_">
				<g id="XMLID_262_">
					<path id="XMLID_263_" class="st0" d="M121.1,193.5c-0.5,0-1-0.1-1.5-0.3l-6.9-3.1c-1.8-0.8-2.6-2.9-1.8-4.7l6.7-14.8
						c1.2-2.6,3.8-4.3,6.7-4.3c1,0,2,0.2,3,0.7c1.8,0.8,3.1,2.3,3.8,4.1c0.7,1.8,0.6,3.8-0.2,5.6l-6.7,14.8
						C123.7,192.7,122.5,193.5,121.1,193.5z"/>
				</g>
				<g id="XMLID_260_">
					<path id="XMLID_261_" class="st0" d="M105.1,186.3c-0.5,0-1-0.1-1.4-0.3l-6.9-3.1c-0.9-0.4-1.5-1.1-1.8-2
						c-0.3-0.9-0.3-1.8,0.1-2.7l9.3-20.7c1.2-2.6,3.8-4.3,6.7-4.3c1,0,2,0.2,3,0.7c1.8,0.8,3.1,2.3,3.8,4.1c0.7,1.8,0.6,3.8-0.2,5.6
						l-9.3,20.7C107.8,185.5,106.5,186.3,105.1,186.3z"/>
				</g>
				<g id="XMLID_258_">
					<path id="XMLID_259_" class="st0" d="M89.2,179.1c-0.5,0-1-0.1-1.4-0.3l-6.9-3.1c-1.8-0.8-2.6-2.9-1.8-4.7l6.7-14.8
						c1.2-2.6,3.8-4.3,6.7-4.3c1,0,2,0.2,3,0.6c3.7,1.7,5.3,6,3.7,9.7L92.4,177C91.8,178.3,90.6,179.1,89.2,179.1z"/>
				</g>
				<g id="XMLID_256_">
					<path id="XMLID_257_" class="st0" d="M73.2,171.9c-0.5,0-1-0.1-1.4-0.3l-6.9-3.1c-0.9-0.4-1.5-1.1-1.8-2
						c-0.3-0.9-0.3-1.8,0.1-2.7l4-8.9c1.2-2.6,3.8-4.3,6.7-4.3c1,0,2,0.2,3,0.6c1.8,0.8,3.1,2.3,3.8,4.1c0.7,1.8,0.6,3.8-0.2,5.6
						l-4,8.9C75.9,171.1,74.6,171.9,73.2,171.9z"/>
				</g>
			</g>
			<path id="XMLID_254_" class="st0" d="M228.6,149.5l-4.5-49.8l-55.5,17.5l-31.6-14.1c-1.1-0.7-2.4-1.1-3.7-1.1
				c-1.5,0-3,0.5-4.2,1.4l-15.1,11c-1.3,1-2.3,2.4-2.7,3.9l-3.9,16c-0.5,1.8-0.2,3.8,0.7,5.4c1,1.6,2.5,2.8,4.3,3.3
				c0.6,0.2,1.2,0.2,1.8,0.2c3.2,0,6-2.2,6.9-5.3l3.2-13.6l10.5-7l26.3,12.4l0,0l36.7,16.8c3.8,1.7,5.5,6.3,4.6,10.8L228.6,149.5z"
				/>
			<path id="XMLID_253_" class="st0" d="M197,148.7L134.8,120l-8.6,5.6l-3.1,12.9c-1,4-4.6,6.8-8.8,6.8c-0.8,0-1.6-0.1-2.3-0.3
				c-2.3-0.6-4.3-2.1-5.5-4.2c-1.2-2.1-1.6-4.5-0.9-6.8l3.9-16c0.5-2,1.7-3.8,3.4-5l2.3-1.7l-5.1-2.3l-20.4,11.5l-16.5-7l-41.9,30.8
				l31.9,14.3l2-4.5c1.5-3.3,4.8-5.5,8.5-5.5c1.3,0,2.6,0.3,3.8,0.8c2.3,1,4,2.9,4.9,5.2c0.4,1,0.5,2,0.5,3l1-2.2
				c1.5-3.3,4.8-5.5,8.5-5.5c1.3,0,2.6,0.3,3.8,0.8c2.3,1,4,2.9,4.9,5.2c0.4,1,0.5,2,0.5,3l1-2.2c1.5-3.3,4.8-5.5,8.5-5.5
				c1.3,0,2.6,0.3,3.8,0.8c4.7,2.1,6.7,7.6,4.6,12.3l-1,2.2c1.6-1.3,3.7-2.2,5.9-2.2c1.3,0,2.6,0.3,3.8,0.8c2.3,1,4,2.9,4.9,5.2
				c0.9,2.3,0.8,4.8-0.2,7.1l-4.6,10.3l0.4,0.2l0,0l0,0l15.5,6.8c0.8,0.4,1.6,0.5,2.5,0.5c2.6,0,4.9-1.6,5.9-4.2
				c1.4-3.5-0.1-7.6-3.4-9.1l-9.3-4.4l1.6-1.5l21.9,10c0.8,0.4,1.7,0.6,2.6,0.6c2.7,0,5-1.7,6.1-4.3c1.4-3.6-0.1-7.7-3.5-9.3
				l-16.1-7.3l1.8-1.7l26.4,12.1c0.6,0.3,1.2,0.4,1.9,0.4c2.4,0,4.7-1.8,5.8-4.5c1.4-3.6,0.3-7.5-2.5-8.8l-20.6-9.5l1.8-1.7
				l24.4,11.2c0.7,0.3,1.5,0.5,2.3,0.5c2.8,0,5.4-2,6.6-5C201.7,154.7,200.3,150.2,197,148.7z"/>
		</g>
	</g>
</g>
</svg>
