<?xml version="1.0" encoding="utf-8"?>
<!-- Generator: Adobe Illustrator 19.0.0, SVG Export Plug-In . SVG Version: 6.00 Build 0)  -->
<svg version="1.1" id="Capa_1" xmlns="http://www.w3.org/2000/svg" xmlns:xlink="http://www.w3.org/1999/xlink" x="0px" y="0px"
	 viewBox="0 0 220 170" style="enable-background:new 0 0 220 170;" xml:space="preserve">
<style type="text/css">
	.st0{fill:#DD5113;}
</style>
<g id="XMLID_48_">
	<polygon id="XMLID_143_" class="st0" points="166.3,14.7 140,33.7 153,35.6 132,85.8 105.4,55.6 46.6,165.4 81.8,165.4 108.6,80.2 
		139.9,111.4 162.2,38.7 173.4,46.2 	"/>
	<path id="XMLID_398_" class="st0" d="M108.9,6.6l0,9.4l-9.4,0c-1.1,0-2.1,1.1-2.1,2.4l0,4.2c0,1.3,0.9,2.4,2.1,2.4l9.4,0l0,9.4
		c0,1.1,1.1,2.1,2.4,2.1l4.2,0c1.3,0,2.4-0.9,2.4-2.1l0-9.4l9.4,0c1.1,0,2.1-1.1,2.1-2.4l0-4.2c0-1.3-0.9-2.4-2.1-2.4l-9.4,0l0-9.4
		c0-1.1-1.1-2.1-2.4-2.1l-4.2,0C110,4.6,108.9,5.5,108.9,6.6z"/>
</g>
</svg>
