<?xml version="1.0" encoding="utf-8"?>
<!-- Generator: Adobe Illustrator 19.0.0, SVG Export Plug-In . SVG Version: 6.00 Build 0)  -->
<svg version="1.1" id="Capa_1" xmlns="http://www.w3.org/2000/svg" xmlns:xlink="http://www.w3.org/1999/xlink" x="0px" y="0px"
	 viewBox="0 0 260 260" style="enable-background:new 0 0 260 260;" xml:space="preserve">
<style type="text/css">
	.st0{fill:#DE5113;}
</style>
<g id="XMLID_176_">
	<g id="XMLID_284_">
		<g id="XMLID_295_">
			<g id="XMLID_298_">
				<rect id="XMLID_299_" x="48.5" y="66.3" class="st0" width="8.5" height="24.9"/>
			</g>
			<g id="XMLID_296_">
				<rect id="XMLID_297_" x="40.3" y="74.5" class="st0" width="24.9" height="8.5"/>
			</g>
		</g>
		<g id="XMLID_285_">
			<g id="XMLID_292_">
				<path id="XMLID_294_" class="st0" d="M95,137.3c-13.6,0-24.6-11.1-24.6-24.6S81.4,88,95,88s24.6,11.1,24.6,24.6
					S108.6,137.3,95,137.3z"/>
				<path id="XMLID_293_" class="st0" d="M123,157.1c0-7.9-3.3-15-8.5-20.1c-5.1,4.9-11.9,7.9-19.5,7.9s-14.5-3-19.5-7.9
					c-5.3,5.1-8.5,12.2-8.5,20.1l-1.7,36.5h59.5L123,157.1z"/>
			</g>
			<g id="XMLID_289_">
				<path id="XMLID_291_" class="st0" d="M149.4,131.4c11.8,0,21.4-9.6,21.4-21.4s-9.6-21.4-21.4-21.4c-11.8,0-21.4,9.6-21.4,21.4
					S137.6,131.4,149.4,131.4z"/>
				<path id="XMLID_290_" class="st0" d="M130.7,180.2h44.4l-1.5-31.7c0-6.8-2.8-13-7.4-17.4c-4.4,4.3-10.3,6.9-16.9,6.9
					c-6.6,0-12.5-2.6-16.9-6.9c-2.6,2.5-4.5,5.5-5.8,8.9c1.8,4,2.8,8.4,2.8,12.9L130.7,180.2z"/>
			</g>
			<g id="XMLID_286_">
				<path id="XMLID_288_" class="st0" d="M197.3,125.9c10.3,0,18.6-8.3,18.6-18.6s-8.3-18.6-18.6-18.6c-10.3,0-18.6,8.3-18.6,18.6
					S187,125.9,197.3,125.9z"/>
				<path id="XMLID_287_" class="st0" d="M181,168.4h38.7l-1.3-27.6c0-6-2.5-11.3-6.4-15.2c-3.8,3.7-9,6-14.7,6s-10.9-2.3-14.7-6
					c-2.2,2.2-4,4.8-5.1,7.8c1.6,3.5,2.4,7.3,2.5,11.3L181,168.4z"/>
			</g>
		</g>
	</g>
</g>
</svg>
