<?xml version="1.0" encoding="utf-8"?>
<!-- Generator: Adobe Illustrator 19.0.0, SVG Export Plug-In . SVG Version: 6.00 Build 0)  -->
<svg version="1.1" id="Capa_1" xmlns="http://www.w3.org/2000/svg" xmlns:xlink="http://www.w3.org/1999/xlink" x="0px" y="0px"
	 viewBox="0 0 220 170" style="enable-background:new 0 0 220 170;" xml:space="preserve">
<style type="text/css">
	.st0{fill:#DD5113;}
</style>
<g id="XMLID_64_">
	<g id="XMLID_94_">
		<g id="XMLID_106_">
			<g id="XMLID_107_">
				<g id="XMLID_110_">
					<g id="XMLID_117_">
						<path id="XMLID_118_" class="st0" d="M100.6,155.8c-0.5,0-1-0.1-1.5-0.3l-6.9-3.1c-1.8-0.8-2.6-2.9-1.8-4.7l6.7-14.8
							c1.2-2.6,3.8-4.3,6.7-4.3c1,0,2,0.2,3,0.7c1.8,0.8,3.1,2.3,3.8,4.1c0.7,1.8,0.6,3.8-0.2,5.6l-6.7,14.8
							C103.3,154.9,102,155.8,100.6,155.8z"/>
					</g>
					<g id="XMLID_115_">
						<path id="XMLID_116_" class="st0" d="M84.6,148.6c-0.5,0-1-0.1-1.4-0.3l-6.9-3.1c-0.9-0.4-1.5-1.1-1.8-2
							c-0.3-0.9-0.3-1.8,0.1-2.7l9.3-20.7c1.2-2.6,3.8-4.3,6.7-4.3c1,0,2,0.2,3,0.7c1.8,0.8,3.1,2.3,3.8,4.1
							c0.7,1.8,0.6,3.8-0.2,5.6l-9.3,20.7C87.3,147.7,86,148.6,84.6,148.6z"/>
					</g>
					<g id="XMLID_113_">
						<path id="XMLID_114_" class="st0" d="M68.7,141.4c-0.5,0-1-0.1-1.4-0.3l-6.9-3.1c-1.8-0.8-2.6-2.9-1.8-4.7l6.7-14.8
							c1.2-2.6,3.8-4.3,6.7-4.3c1,0,2,0.2,3,0.6c3.7,1.7,5.3,6,3.7,9.7l-6.7,14.8C71.3,140.6,70.1,141.4,68.7,141.4z"/>
					</g>
					<g id="XMLID_111_">
						<path id="XMLID_112_" class="st0" d="M52.7,134.2c-0.5,0-1-0.1-1.4-0.3l-6.9-3.1c-0.9-0.4-1.5-1.1-1.8-2
							c-0.3-0.9-0.3-1.8,0.1-2.7l4-8.9c1.2-2.6,3.8-4.3,6.7-4.3c1,0,2,0.2,3,0.6c1.8,0.8,3.1,2.3,3.8,4.1c0.7,1.8,0.6,3.8-0.2,5.6
							l-4,8.9C55.4,133.4,54.1,134.2,52.7,134.2z"/>
					</g>
				</g>
				<path id="XMLID_109_" class="st0" d="M208.1,111.8l-4.5-49.8l-55.5,17.5l-31.6-14.1c-1.1-0.7-2.4-1.1-3.7-1.1
					c-1.5,0-3,0.5-4.2,1.4l-15.1,11c-1.3,1-2.3,2.4-2.7,3.9l-3.9,16c-0.5,1.8-0.2,3.8,0.7,5.4c1,1.6,2.5,2.8,4.3,3.3
					c0.6,0.2,1.2,0.2,1.8,0.2c3.2,0,6-2.2,6.9-5.3l3.2-13.6l10.5-7l26.3,12.4l0,0l36.7,16.8c3.8,1.7,5.5,6.3,4.6,10.8L208.1,111.8z"
					/>
				<path id="XMLID_108_" class="st0" d="M126,156.9c-0.8,0-1.6-0.2-2.3-0.5l-14.9-6.5l-0.5-0.3l4.4-9.8c1.1-2.4,1.2-5,0.2-7.5
					c-0.9-2.4-2.7-4.4-5.1-5.4c-1.3-0.6-2.6-0.9-4-0.9c-1.6,0-3.2,0.4-4.7,1.3l0.3-0.6c2.2-4.9,0-10.7-4.9-12.9
					c-1.3-0.6-2.6-0.9-4-0.9c-3.8,0-7.3,2.3-8.9,5.8l-0.2,0.5c-0.1-0.4-0.2-0.8-0.3-1.3c-0.9-2.4-2.7-4.4-5.1-5.4
					c-1.3-0.6-2.6-0.9-4-0.9c-3.8,0-7.3,2.3-8.9,5.8l-0.2,0.5c-0.1-0.4-0.2-0.8-0.3-1.3c-0.9-2.4-2.7-4.4-5.1-5.4
					c-1.3-0.6-2.6-0.9-4-0.9c-3.8,0-7.3,2.3-8.9,5.8l-1.8,4l-30.7-13.8l41-30.1l16.4,6.9l20.4-11.5l4.1,1.9l-1.7,1.2
					c-1.8,1.3-3.1,3.2-3.6,5.3l-3.9,16.1c-0.6,2.4-0.3,5,1,7.2c1.3,2.2,3.4,3.8,5.8,4.4c0.8,0.2,1.6,0.3,2.4,0.3
					c4.3,0,8.1-2.9,9.2-7.1l3-12.7l8.2-5.4l62,28.6c3.1,1.4,4.3,5.6,2.8,9.4c-1.1,2.9-3.6,4.7-6.1,4.7c-0.7,0-1.4-0.2-2.1-0.5
					l-24.7-11.3l-2.6,2.4l21.2,9.8c2.6,1.2,3.6,4.8,2.2,8.2c-1,2.5-3.2,4.2-5.3,4.2c-0.6,0-1.1-0.1-1.7-0.4l-26.7-12.3l-2.6,2.4
					l16.8,7.6c3.1,1.4,4.6,5.3,3.2,8.6c-1,2.4-3.2,4-5.6,4c-0.8,0-1.6-0.2-2.4-0.5l-22.2-10.2l-2.4,2.2l10,4.7
					c3.1,1.4,4.5,5.2,3.2,8.5C130.4,155.4,128.3,156.9,126,156.9z"/>
			</g>
		</g>
	</g>
	<path id="XMLID_47_" class="st0" d="M105,15.1l0,9.4l-9.4,0c-1.1,0-2.1,1.1-2.1,2.4l0,4.2c0,1.3,0.9,2.4,2.1,2.4l9.4,0l0,9.4
		c0,1.1,1.1,2.1,2.4,2.1l4.2,0c1.3,0,2.4-0.9,2.4-2.1l0-9.4l9.4,0c1.1,0,2.1-1.1,2.1-2.4l0-4.2c0-1.3-0.9-2.4-2.1-2.4l-9.4,0l0-9.4
		c0-1.1-1.1-2.1-2.4-2.1l-4.2,0C106.1,13.1,105,14,105,15.1z"/>
</g>
</svg>
