<?xml version="1.0" encoding="utf-8"?>
<!-- Generator: Adobe Illustrator 19.0.0, SVG Export Plug-In . SVG Version: 6.00 Build 0)  -->
<svg version="1.1" id="Capa_1" xmlns="http://www.w3.org/2000/svg" xmlns:xlink="http://www.w3.org/1999/xlink" x="0px" y="0px"
	 viewBox="0 0 220 170" style="enable-background:new 0 0 220 170;" xml:space="preserve">
<style type="text/css">
	.st0{fill:#DD5113;}
</style>
<g id="XMLID_162_">
	<path id="XMLID_111_" class="st0" d="M23,27.6l0,9.4l-9.4,0c-1.1,0-2.1,1.1-2.1,2.4l0,4.2c0,1.3,0.9,2.4,2.1,2.4l9.4,0l0,9.4
		c0,1.1,1.1,2.1,2.4,2.1l4.2,0c1.3,0,2.4-0.9,2.4-2.1l0-9.4l9.4,0c1.1,0,2.1-1.1,2.1-2.4l0-4.2c0-1.3-0.9-2.4-2.1-2.4L32,37l0-9.4
		c0-1.1-1.1-2.1-2.4-2.1l-4.2,0C24.1,25.5,23,26.4,23,27.6z"/>
	<path id="XMLID_164_" class="st0" d="M81.3,97.1c7-4.3,11.7-12,11.7-20.8c0-13.5-10.9-24.5-24.4-24.5c-13.5,0-24.5,10.9-24.5,24.4
		c0,8.8,4.6,16.6,11.6,20.9c-13.9,4-25.5,16.3-25.5,30.7v16.7h76.4v-16.7h0C106.7,113.3,95.2,101.1,81.3,97.1z"/>
	<path id="XMLID_183_" class="st0" d="M163.1,127.8c0-12.4-9.9-22.9-21.8-26.3c6-3.7,10-10.3,10.1-17.8c0-11.6-9.3-21-20.9-21
		c-11.6,0-21,9.3-21,20.9c0,7.6,4,14.2,10,17.9c-4.9,1.4-9.4,4-13.1,7.4c3.7,5.6,5.8,12.2,5.8,18.9h0v16.7h50.9L163.1,127.8
		L163.1,127.8z"/>
	<path id="XMLID_204_" class="st0" d="M208.5,127.8c0-10.3-8.2-19-18.1-21.9c5-3.1,8.4-8.6,8.4-14.9c0-9.6-7.8-17.5-17.4-17.5
		c-9.6,0-17.5,7.8-17.5,17.4c0,6.3,3.3,11.8,8.3,14.9c-3.3,1-6.5,2.6-9.2,4.7c3.5,5.1,5.5,11.1,5.5,17.2h0v16.7h40L208.5,127.8
		L208.5,127.8z"/>
</g>
</svg>
