<?xml version="1.0" encoding="utf-8"?>
<!-- Generator: Adobe Illustrator 19.0.0, SVG Export Plug-In . SVG Version: 6.00 Build 0)  -->
<svg version="1.1" id="Capa_1" xmlns="http://www.w3.org/2000/svg" xmlns:xlink="http://www.w3.org/1999/xlink" x="0px" y="0px"
	 viewBox="0 0 260 260" style="enable-background:new 0 0 260 260;" xml:space="preserve">
<style type="text/css">
	.st0{fill:#DE5113;}
</style>
<g id="XMLID_20_">
	<g id="XMLID_279_">
		<path id="XMLID_306_" class="st0" d="M186.2,166.5c-14.3-17.6-37.8-28.1-62.8-28.1c-25,0-48.5,10.5-62.8,28.1
			c-1.3,1.6-1.3,3.9,0,5.6l0,0c14.3,17.6,37.8,28.1,62.8,28.1c25,0,48.5-10.5,62.8-28.1l0,0C187.5,170.5,187.5,168.2,186.2,166.5z
			 M102.2,188.5c-12.7-3.5-24-10.1-32.4-19.2c8.4-9,19.7-15.7,32.4-19.2c-4.6,5.1-7.4,11.8-7.4,19.2
			C94.8,176.7,97.6,183.4,102.2,188.5z M123.4,177.6c-4.6,0-8.3-3.7-8.3-8.3c0-0.3,0.1-0.6,0.1-0.9c0.8,0.5,1.7,0.8,2.7,0.8
			c2.9,0,5.3-2.4,5.3-5.3c0-1-0.3-1.9-0.8-2.7c0.3,0,0.6-0.1,0.9-0.1c4.6,0,8.3,3.7,8.3,8.3C131.7,173.9,128,177.6,123.4,177.6z
			 M144.6,188.5c4.6-5.1,7.4-11.8,7.4-19.2c0-7.4-2.8-14.1-7.4-19.2c12.7,3.5,24,10.1,32.3,19.2C168.6,178.4,157.3,185,144.6,188.5z
			"/>
		<path id="XMLID_301_" class="st0" d="M199.7,105.9c-8.9-11-23.6-17.5-39.2-17.5c-15.6,0-30.2,6.5-39.2,17.5c-0.8,1-0.8,2.5,0,3.5
			l0,0c8.9,11,23.6,17.5,39.2,17.5c15.6,0,30.2-6.5,39.2-17.5l0,0C200.6,108.3,200.6,106.9,199.7,105.9z M147.4,119.6
			c-7.9-2.2-15-6.3-20.2-12c5.2-5.6,12.3-9.8,20.2-12c-2.9,3.2-4.6,7.4-4.6,12C142.7,112.2,144.5,116.4,147.4,119.6z M160.6,112.8
			c-2.8,0-5.2-2.3-5.2-5.2c0-0.2,0-0.4,0.1-0.6c0.5,0.3,1.1,0.5,1.7,0.5c1.8,0,3.3-1.5,3.3-3.3c0-0.6-0.2-1.2-0.5-1.7
			c0.2,0,0.4-0.1,0.6-0.1c2.8,0,5.2,2.3,5.2,5.2C165.7,110.5,163.4,112.8,160.6,112.8z M173.8,119.6c2.9-3.2,4.6-7.4,4.6-12
			c0-4.6-1.8-8.8-4.6-12c7.9,2.2,15,6.3,20.2,12C188.8,113.3,181.7,117.4,173.8,119.6z"/>
		<path id="XMLID_280_" class="st0" d="M130.6,74c-7.2-8.9-19.1-14.2-31.6-14.2c-12.6,0-24.4,5.3-31.6,14.2c-0.7,0.8-0.7,2,0,2.8h0
			c7.2,8.9,19.1,14.2,31.6,14.2c12.6,0,24.4-5.3,31.6-14.2h0C131.3,75.9,131.3,74.8,130.6,74z M88.3,85c-6.4-1.8-12.1-5.1-16.3-9.7
			c4.2-4.6,9.9-7.9,16.3-9.7c-2.3,2.6-3.7,5.9-3.7,9.7S86,82.5,88.3,85z M99,79.5c-2.3,0-4.2-1.9-4.2-4.2c0-0.2,0-0.3,0-0.4
			c0.4,0.2,0.9,0.4,1.4,0.4c1.5,0,2.7-1.2,2.7-2.7c0-0.5-0.1-1-0.4-1.4c0.1,0,0.3,0,0.4,0c2.3,0,4.2,1.9,4.2,4.2
			C103.2,77.7,101.3,79.5,99,79.5z M109.7,85c2.3-2.6,3.7-5.9,3.7-9.7s-1.4-7.1-3.7-9.7c6.4,1.8,12.1,5.1,16.3,9.7
			C121.8,79.9,116.1,83.2,109.7,85z"/>
	</g>
</g>
</svg>
