<?xml version="1.0" encoding="utf-8"?>
<!-- Generator: Adobe Illustrator 19.0.0, SVG Export Plug-In . SVG Version: 6.00 Build 0)  -->
<svg version="1.1" id="Capa_1" xmlns="http://www.w3.org/2000/svg" xmlns:xlink="http://www.w3.org/1999/xlink" x="0px" y="0px"
	 viewBox="0 0 220 170" style="enable-background:new 0 0 220 170;" xml:space="preserve">
<style type="text/css">
	.st0{fill:#DD5113;}
</style>
<g id="XMLID_93_">
	<g id="XMLID_157_">
		<path id="XMLID_166_" class="st0" d="M92.4,118.1c-2.4,0-4.3-1.9-4.3-4.3c0-0.7,0.2-1.3,0.4-1.8c-0.1,0-0.3,0-0.4,0
			c-4.3,0-7.7,3.5-7.7,7.7c0,4.3,3.5,7.7,7.7,7.7c4.3,0,7.7-3.5,7.7-7.7c0-0.9-0.2-1.8-0.5-2.7C94.6,117.6,93.6,118.1,92.4,118.1z"
			/>
		<path id="XMLID_172_" class="st0" d="M146.2,114.4c-14.3-18.5-35.5-29.2-58.1-29.2s-43.7,10.6-58.1,29.2c-0.8,1-1,2.3-0.7,3.5
			c0,0.8,0.3,1.5,0.7,2.1c14.7,20.3,35.8,31.9,58,31.9c22.2,0,43.3-11.6,58-31.9c0.4-0.6,0.7-1.4,0.7-2.1
			C147.2,116.7,147,115.4,146.2,114.4z M88.1,93.2c13.6,0,26.2,4.1,37,11.8c-0.6-0.2-1.2-0.3-1.7-0.5c-10.8-3.3-22.9-5.1-35.3-5.1
			c-12.4,0-24.5,1.8-35.3,5.1c-0.6,0.2-1.2,0.3-1.7,0.5C61.9,97.3,74.6,93.2,88.1,93.2z M101.7,119.6c0,8-7,14.4-15.2,13.5
			c-6.1-0.7-11.1-5.6-11.9-11.7c-0.7-5.6,2-10.6,6.4-13.3c0,0,0,0,0,0c2.3-0.1,4.7-0.2,7.1-0.2c2.4,0,4.7,0.1,7.1,0.2c0,0,0,0,0,0
			C99.1,110.4,101.7,114.7,101.7,119.6z M88.1,143.9c-18.3,0-35.9-9.1-48.9-25.1c4.8-2.7,10.3-4.9,16.2-6.7c4.4-1.2,9-2.2,13.8-2.9
			c-2,3.6-3,7.9-2.6,12.4c1,10.1,9.1,18.3,19.2,19.4c12.9,1.4,23.9-8.8,23.9-21.5c0-3.8-1-7.3-2.7-10.4c4.8,0.7,9.4,1.7,13.8,2.9
			c5.9,1.8,11.4,4,16.2,6.7C124,134.8,106.4,143.9,88.1,143.9z"/>
	</g>
	<g id="XMLID_167_">
		<path id="XMLID_188_" class="st0" d="M153.4,63.5c-1.6,0-3-1.3-3-3c0-0.4,0.1-0.9,0.3-1.3c-0.1,0-0.2,0-0.3,0
			c-2.9,0-5.3,2.4-5.3,5.3c0,2.9,2.4,5.3,5.3,5.3c2.9,0,5.3-2.4,5.3-5.3c0-0.6-0.1-1.3-0.3-1.8C154.9,63.2,154.2,63.5,153.4,63.5z"
			/>
		<path id="XMLID_168_" class="st0" d="M190.2,61c-9.8-12.7-24.3-20-39.7-20s-29.9,7.3-39.7,20c-0.5,0.7-0.7,1.6-0.5,2.4
			c0,0.5,0.2,1,0.5,1.4c10.1,13.9,24.5,21.8,39.7,21.8c15.2,0,29.6-8,39.7-21.8c0.3-0.4,0.5-0.9,0.5-1.4
			C190.9,62.6,190.7,61.7,190.2,61z M150.5,46.5c9.3,0,17.9,2.8,25.3,8.1c-0.4-0.1-0.8-0.2-1.2-0.3c-7.4-2.2-15.7-3.5-24.1-3.5
			c-8.5,0-16.7,1.2-24.1,3.5c-0.4,0.1-0.8,0.2-1.2,0.3C132.5,49.4,141.2,46.5,150.5,46.5z M159.8,64.6c0,5.1-4.2,9.3-9.3,9.3
			c-5.1,0-9.3-4.2-9.3-9.3c0-3.3,1.8-6.3,4.4-7.9c1.6-0.1,3.2-0.1,4.8-0.1c1.6,0,3.2,0.1,4.8,0.1C158,58.3,159.8,61.2,159.8,64.6z
			 M150.5,81.2C138,81.2,126,75,117.1,64c3.3-1.8,7.1-3.4,11.1-4.6c3-0.8,6.2-1.5,9.4-2c-1.2,2.1-1.8,4.5-1.8,7.1
			c0,8.1,6.6,14.8,14.8,14.8c8.1,0,14.8-6.6,14.8-14.8c0-2.6-0.7-5-1.8-7.1c3.3,0.5,6.4,1.1,9.4,2c4,1.2,7.8,2.7,11.1,4.6
			C175,75,163,81.2,150.5,81.2z"/>
	</g>
	<g id="XMLID_189_">
		<path id="XMLID_205_" class="st0" d="M75.4,37c-1.4,0-2.5-1.1-2.5-2.5c0-0.4,0.1-0.7,0.2-1.1c-0.1,0-0.2,0-0.2,0
			c-2.5,0-4.4,2-4.4,4.4c0,2.5,2,4.4,4.4,4.4c2.5,0,4.4-2,4.4-4.4c0-0.5-0.1-1.1-0.3-1.5C76.7,36.8,76.1,37,75.4,37z"/>
		<path id="XMLID_190_" class="st0" d="M106.4,34.9c-8.3-10.7-20.5-16.8-33.5-16.8s-25.2,6.1-33.5,16.8c-0.5,0.6-0.6,1.3-0.4,2
			c0,0.4,0.2,0.9,0.4,1.2C48,49.8,60.2,56.5,72.9,56.5c12.8,0,25-6.7,33.4-18.4c0.3-0.4,0.4-0.8,0.4-1.2
			C107,36.2,106.9,35.5,106.4,34.9z M72.9,22.7c7.8,0,15.1,2.4,21.4,6.8c-0.3-0.1-0.7-0.2-1-0.3c-6.2-1.9-13.2-2.9-20.4-2.9
			c-7.1,0-14.1,1-20.4,2.9c-0.3,0.1-0.7,0.2-1,0.3C57.8,25.1,65.1,22.7,72.9,22.7z M80.8,37.9c0,4.3-3.5,7.8-7.8,7.8
			c-4.3,0-7.8-3.5-7.8-7.8c0-2.8,1.5-5.3,3.7-6.7c1.4-0.1,2.7-0.1,4.1-0.1c1.4,0,2.7,0,4.1,0.1C79.3,32.6,80.8,35.1,80.8,37.9z
			 M72.9,51.9c-10.5,0-20.7-5.2-28.2-14.5c2.8-1.5,5.9-2.8,9.3-3.9c2.5-0.7,5.2-1.3,7.9-1.7c-1,1.8-1.6,3.8-1.6,6
			c0,6.9,5.6,12.4,12.4,12.4s12.4-5.6,12.4-12.4c0-2.2-0.6-4.2-1.6-6c2.7,0.4,5.4,1,7.9,1.7c3.4,1,6.6,2.3,9.3,3.9
			C93.6,46.7,83.5,51.9,72.9,51.9z"/>
	</g>
</g>
</svg>
