<?xml version="1.0" encoding="utf-8"?>
<!-- Generator: Adobe Illustrator 19.0.0, SVG Export Plug-In . SVG Version: 6.00 Build 0)  -->
<svg version="1.1" id="Capa_1" xmlns="http://www.w3.org/2000/svg" xmlns:xlink="http://www.w3.org/1999/xlink" x="0px" y="0px"
	 viewBox="0 0 220 170" style="enable-background:new 0 0 220 170;" xml:space="preserve">
<style type="text/css">
	.st0{fill:#DD5113;}
</style>
<g id="XMLID_2_">
	<g id="XMLID_19_">
		<path id="XMLID_22_" class="st0" d="M72.4,89.6V13c0-3.6-3.1-6.5-6.9-6.5s-6.9,2.9-6.9,6.5v76.6H72.4z"/>
		<path id="XMLID_21_" class="st0" d="M58.6,138.4V157c0,3.6,3.1,6.5,6.9,6.5s6.9-2.9,6.9-6.5v-18.6H58.6z"/>
	</g>
	<path id="XMLID_17_" class="st0" d="M76,132.5H55c-1.9,0-3.4-1.5-3.4-3.4V98.9c0-1.9,1.5-3.4,3.4-3.4l21,0c1.9,0,3.4,1.5,3.4,3.4
		v30.2C79.3,131,77.8,132.5,76,132.5z"/>
	<g id="XMLID_12_">
		<path id="XMLID_15_" class="st0" d="M103.1,75.6V157c0,3.6,3.1,6.5,6.9,6.5s6.9-2.9,6.9-6.5V75.6H103.1z"/>
		<path id="XMLID_13_" class="st0" d="M116.9,26.8V13c0-3.6-3.1-6.5-6.9-6.5s-6.9,2.9-6.9,6.5v13.8H116.9z"/>
	</g>
	<path id="XMLID_11_" class="st0" d="M120.5,69.7h-21c-1.9,0-3.4-1.5-3.4-3.4V36.1c0-1.9,1.5-3.4,3.4-3.4h21c1.9,0,3.4,1.5,3.4,3.4
		v30.2C123.8,68.2,122.3,69.7,120.5,69.7z"/>
	<g id="XMLID_4_">
		<path id="XMLID_6_" class="st0" d="M161.4,68.7V13c0-3.6-3.1-6.5-6.9-6.5s-6.9,2.9-6.9,6.5v55.7H161.4z"/>
		<path id="XMLID_5_" class="st0" d="M147.6,117.5V157c0,3.6,3.1,6.5,6.9,6.5s6.9-2.9,6.9-6.5v-39.5H147.6z"/>
	</g>
	<path id="XMLID_3_" class="st0" d="M165,111.6h-21c-1.9,0-3.4-1.5-3.4-3.4V78c0-1.9,1.5-3.4,3.4-3.4h21c1.9,0,3.4,1.5,3.4,3.4v30.2
		C168.3,110.1,166.8,111.6,165,111.6z"/>
</g>
</svg>
