<?xml version="1.0" encoding="utf-8"?>
<!-- Generator: Adobe Illustrator 19.0.0, SVG Export Plug-In . SVG Version: 6.00 Build 0)  -->
<svg version="1.1" id="Capa_1" xmlns="http://www.w3.org/2000/svg" xmlns:xlink="http://www.w3.org/1999/xlink" x="0px" y="0px"
	 viewBox="0 0 260 260" style="enable-background:new 0 0 260 260;" xml:space="preserve">
<style type="text/css">
	.st0{fill:#DE5113;}
</style>
<g id="XMLID_2_">
	<g id="XMLID_215_">
		<g id="XMLID_240_">
			<path id="XMLID_242_" class="st0" d="M92.4,134.6V58c0-3.6-3.1-6.5-6.9-6.5s-6.9,2.9-6.9,6.5v76.6H92.4z"/>
			<path id="XMLID_241_" class="st0" d="M78.6,183.4V202c0,3.6,3.1,6.5,6.9,6.5s6.9-2.9,6.9-6.5v-18.6H78.6z"/>
		</g>
		<path id="XMLID_238_" class="st0" d="M96,177.5H75c-1.9,0-3.4-1.5-3.4-3.4v-30.2c0-1.9,1.5-3.4,3.4-3.4h21c1.9,0,3.4,1.5,3.4,3.4
			v30.2C99.3,176,97.8,177.5,96,177.5z"/>
		<g id="XMLID_235_">
			<path id="XMLID_237_" class="st0" d="M123.1,120.6V202c0,3.6,3.1,6.5,6.9,6.5s6.9-2.9,6.9-6.5v-81.4H123.1z"/>
			<path id="XMLID_236_" class="st0" d="M136.9,71.8V58c0-3.6-3.1-6.5-6.9-6.5s-6.9,2.9-6.9,6.5v13.8H136.9z"/>
		</g>
		<path id="XMLID_225_" class="st0" d="M140.5,114.7h-21c-1.9,0-3.4-1.5-3.4-3.4V81.1c0-1.9,1.5-3.4,3.4-3.4h21
			c1.9,0,3.4,1.5,3.4,3.4v30.2C143.8,113.2,142.3,114.7,140.5,114.7z"/>
		<g id="XMLID_217_">
			<path id="XMLID_219_" class="st0" d="M181.4,113.7V58c0-3.6-3.1-6.5-6.9-6.5s-6.9,2.9-6.9,6.5v55.7H181.4z"/>
			<path id="XMLID_218_" class="st0" d="M167.6,162.5V202c0,3.6,3.1,6.5,6.9,6.5s6.9-2.9,6.9-6.5v-39.5H167.6z"/>
		</g>
		<path id="XMLID_216_" class="st0" d="M185,156.6h-21c-1.9,0-3.4-1.5-3.4-3.4V123c0-1.9,1.5-3.4,3.4-3.4h21c1.9,0,3.4,1.5,3.4,3.4
			v30.2C188.3,155.1,186.8,156.6,185,156.6z"/>
	</g>
</g>
</svg>
