<?xml version="1.0" encoding="utf-8"?>
<!-- Generator: Adobe Illustrator 19.0.0, SVG Export Plug-In . SVG Version: 6.00 Build 0)  -->
<svg version="1.1" id="Capa_1" xmlns="http://www.w3.org/2000/svg" xmlns:xlink="http://www.w3.org/1999/xlink" x="0px" y="0px"
	 viewBox="0 0 220 170" style="enable-background:new 0 0 220 170;" xml:space="preserve">
<style type="text/css">
	.st0{fill:#DD5113;}
</style>
<g id="XMLID_139_">
	<path id="XMLID_229_" class="st0" d="M68.8,73.3c-6.5,0-7.9,4.9-7.9,4.9s-1.4-4.9-7.9-4.9c-3.9,0-7.9,3.2-7.9,7.5
		c0,10.8,16,19.5,16,19.5s15.6-8.7,15.6-19.5C76.7,76.5,72.8,73.3,68.8,73.3z"/>
	<path id="XMLID_230_" class="st0" d="M165.6,73.3c-6.5,0-7.9,4.9-7.9,4.9s-1.4-4.9-7.9-4.9c-3.9,0-7.9,3.2-7.9,7.5
		c0,10.8,16,19.5,16,19.5s15.6-8.7,15.6-19.5C173.5,76.5,169.6,73.3,165.6,73.3z"/>
	<path id="XMLID_269_" class="st0" d="M213.7,60.5c-8.2-5.1-32.4-10-53.3-9.7c-8,0.1-19.6,0.5-29.6,3.3c-5,0.8-16.3,2.6-20.7,2.6
		c-4.5,0-15.7-1.8-20.7-2.6c-9.9-2.8-21.6-3.1-29.6-3.3c-20.9-0.4-45.2,4.6-53.3,9.7c-2,1.2,1.3,5.3,3.5,7.1c1.8,1.4,7,0.8,7.1,1.3
		c1.2,4.1,4,15.7,6.7,24.4c2.8,8.9,7,17.2,14.9,21.7c6.3,3.6,19.3,4.3,24.2,4.3c6.1,0,16.3-2.7,22.4-6.3c11-6.4,18.9-32.8,19.7-35.5
		c1.2-1.7,3-3.5,5.4-3.5c2.4,0,4,1.9,5,3.6c1,3.3,8.8,29.1,19.7,35.4c6.1,3.5,16.3,6.3,22.4,6.3c4.9,0,17.8-0.7,24.2-4.3
		c7.9-4.5,12.1-12.8,14.9-21.7c2.7-8.7,5.5-20.2,6.7-24.4c0.1-0.5,5.3,0.1,7.1-1.3C212.3,65.8,215.7,61.7,213.7,60.5z M80.1,107.6
		c-8.8,5.7-26.2,6.3-35.4,2C33.2,104.2,25.6,77.7,30,67.1c4.8-11.6,50.5-12.6,63.4,0.7C102.8,77.7,89.9,101.1,80.1,107.6z
		 M175.3,109.5c-9.2,4.3-26.7,3.8-35.4-2c-9.8-6.4-22.7-29.9-13.2-39.7c12.8-13.3,58.5-12.4,63.4-0.7
		C194.4,77.7,186.8,104.2,175.3,109.5z"/>
</g>
</svg>
