<?xml version="1.0" encoding="utf-8"?>
<!-- Generator: Adobe Illustrator 19.0.0, SVG Export Plug-In . SVG Version: 6.00 Build 0)  -->
<svg version="1.1" id="Capa_1" xmlns="http://www.w3.org/2000/svg" xmlns:xlink="http://www.w3.org/1999/xlink" x="0px" y="0px"
	 viewBox="0 0 260 260" style="enable-background:new 0 0 260 260;" xml:space="preserve">
<style type="text/css">
	.st0{fill:#DE5113;}
</style>
<g id="XMLID_7_">
	<g id="XMLID_10_">
		<polygon id="XMLID_33_" class="st0" points="67.7,150 46.8,150 46.8,160.2 63.8,160.2 		"/>
		<polygon id="XMLID_16_" class="st0" points="134.6,132.4 144.1,113.2 158.6,154.8 208.1,73.4 194,61.4 160.8,129.8 145.8,86.7 
			129.7,119 		"/>
		<polygon id="XMLID_14_" class="st0" points="124.3,129.9 98.7,181.8 90.5,150 77.2,150 73.3,160.2 82.6,160.2 95.6,211.2 
			129.2,143.3 		"/>
	</g>
	<polygon id="XMLID_9_" class="st0" points="152.7,201.3 119.8,109.9 100.5,142.3 86.7,117.4 63,179.2 59.4,179.2 86.1,108.2 
		100.6,134.6 120.6,101.1 153.6,192.7 182.7,144.6 193.7,163.1 191.4,166.9 182.6,151.9 	"/>
	<polygon id="XMLID_8_" class="st0" points="183.7,62.6 213.2,48.8 211.8,81.7 	"/>
</g>
</svg>
