<?xml version="1.0" encoding="utf-8"?>
<!-- Generator: Adobe Illustrator 19.0.0, SVG Export Plug-In . SVG Version: 6.00 Build 0)  -->
<svg version="1.1" id="Capa_1" xmlns="http://www.w3.org/2000/svg" xmlns:xlink="http://www.w3.org/1999/xlink" x="0px" y="0px"
	 viewBox="0 0 220 170" style="enable-background:new 0 0 220 170;" xml:space="preserve">
<style type="text/css">
	.st0{fill:#DD5113;}
</style>
<path id="XMLID_35_" class="st0" d="M106.9,73c1-1.7,2.4-3.1,4-4.4c1.6-1.2,2.9-1.8,3.9-1.8c0.8,0,1.2,0.5,1.2,1.4
	c0,1.3-0.8,2.5-2.5,3.5C111.9,72.9,109.7,73.3,106.9,73z M137.9,52.9c0-0.2-0.1-0.3-0.4-0.3c-1.6,0-5.6,6.1-12,18.4
	c3.9-4.1,6.9-7.8,9.1-11.1C136.8,56.6,137.9,54.2,137.9,52.9z M116.7,99.3c1.6-1,2.5-2.2,2.5-3.5c0-0.9-0.4-1.4-1.2-1.4
	c-1,0-2.3,0.6-3.9,1.8c-1.6,1.2-2.9,2.6-4,4.4C112.9,100.8,115.1,100.4,116.7,99.3z M187.5,81.2c0,31.3-34.8,56.8-77.5,56.8
	c-13.3,0-26.5-2.5-38.1-7.4l-2.2-0.9l-1.9,1.5c-10.9,9-21.4,12.8-28.7,14.2c5.6-6.7,10-14.5,12.9-23.3l0.8-2.6l-2-1.8
	C39,107.7,32.5,94.6,32.5,81.2c0-31.3,34.8-56.8,77.5-56.8C152.7,24.4,187.5,49.9,187.5,81.2z M80.1,54.6c0,2,1.8,2.9,5.4,2.9
	c1.2,0,5.4-0.4,12.6-1.4l-4.4,6.6c-1.9,2.8-3.3,5.1-4.4,6.7c-1,1.6-2.3,3.5-3.6,5.7c-2.7,4.4-3.9,7-3.9,8.1c0,1.6,0.9,2.5,2.7,2.5
	c0.8,0,1.6-0.4,2.3-1.4c0.6-0.9,2-3.3,4.1-7.2c2.4-4.3,4.4-8.1,6.2-11.3c2.3-4.1,4.4-7.6,6.2-10.5l16.8-2.2c1.3-0.1,1.9-0.6,1.9-1.3
	c0-1.8-1.2-3.4-4-3.4c-0.3,0-3.9,0.3-10.9,1c0.2-0.4,0.4-0.8,0.4-1c0-0.8-0.5-1.2-1.5-1.2c-0.8,0-2,0.9-3.4,2.6
	c-10.7,1-17,1.7-18.9,2.1C81,52.6,80.1,53.3,80.1,54.6z M124.4,101.8c0.4-0.6,0.2-1.5-0.6-1.5c-0.2,0-0.7,0.3-1.4,1.1
	c-3.9,4.9-7.6,7.3-10.9,7.3c-2,0-3-1.1-3-2.9c0-1.1,0.2-2.3,0.7-3.5c4,0.5,7.1,0.1,9.3-1.3c2.2-1.4,3.3-3.1,3.3-5
	c0-2.8-1.9-4.3-4.8-4.3c-1.8,0-3.8,0.6-5.8,1.9c-2.1,1.3-3.9,3-5.4,5.3c-0.6,0.9-1.1,1.8-1.4,2.8c-3.9,4.7-6.6,7.1-8.2,7.1
	c-0.5,0-0.7-0.2-0.7-0.7c0-0.9,1.7-3.2,3.3-5.3c1.7-2.1,3.3-5.1,3.3-7c0-2.1-1.2-3.5-3.3-3.5c-2.6,0-5.5,2.1-8.7,6.2l-0.1,0
	c0.9-1.6,1.2-3,0.7-4.3c-0.4-1.2-1.4-1.9-2.7-1.9c-3.1,0-5.8,2.5-9.5,7l-0.1,0c0.4-0.7,0.9-1.5,1.4-2.3c1.1-1.6,1.6-2.3,1.6-3
	c0-1-0.7-1.5-2.1-1.5c-1.2,0-2,0.5-2.5,1.4L69.7,106c-0.4,0.7-1.3,2.2-1.6,2.7c-0.3,0.5-0.5,1.3-0.5,2c0,0.9,0.7,1.4,2,1.4
	c0.9,0,1.8-0.5,2.5-1.7c6.2-9.9,10.6-14.8,13.2-14.8c0.6,0,1,0.3,1,1.1c0,0.5-0.2,1.2-0.7,2c-0.4,0.8-1.1,1.9-2,3.2
	c-0.9,1.3-1.6,2.5-2.1,3.3c-0.2,0.4-0.6,1.1-1.2,2c-1.1,1.9-1.4,2.6-1.4,3.3c0,1,0.7,1.5,2,1.5c1.1,0,1.8-0.4,2.7-2
	c5.4-9.4,9.6-14,12.6-14c0.6,0,0.9,0.3,0.9,0.9c0,0.6-0.5,1.7-1.7,3.2c-1.1,1.5-2.2,3.1-3.3,4.7c-1.1,1.7-1.7,3-1.7,4.1
	c0,2.4,1.6,3.4,3.7,3.4c2.9,0,5.8-2.1,9.2-6.4c0,0.1,0,0.1,0,0.2c0,3.8,2.4,6.3,6.3,6.3c2.6,0,5.2-1.1,8-3.2
	C120.5,107.1,122.7,104.6,124.4,101.8z M128.8,109.2c0-1.8-1.1-2.8-3-2.8c-1.9,0-3.8,1.5-3.8,3.2c0,1.8,1.1,2.8,3,2.8
	C127,112.3,128.8,110.9,128.8,109.2z M139.3,109.2c0-1.8-1.1-2.8-3-2.8c-1.9,0-3.8,1.5-3.8,3.2c0,1.8,1.1,2.8,3,2.8
	C137.4,112.3,139.3,110.9,139.3,109.2z M149.7,109.2c0-1.8-1.1-2.8-3-2.8c-1.9,0-3.8,1.5-3.8,3.2c0,1.8,1.1,2.8,3,2.8
	C147.9,112.3,149.7,110.9,149.7,109.2z M154.7,51.2c0-1.9-0.8-2.9-2.5-2.9c-1.7,0-3.8,1.3-6.3,3.9c-2.6,2.6-4.9,5.6-7.1,9.1
	c-2.2,3.5-4,7-5.6,10.5c-0.3,0.7-0.6,1.4-0.9,2.1c-0.1,0.1-0.1,0.1-0.2,0.2c-3.9,4.8-6.6,7.2-8.1,7.2c-0.7,0-1.1-0.6-1.1-1.9
	c0-1.3,0.5-2.9,1.4-4.9c5-4.7,8.8-9,11.6-13.1c2.8-4.1,4.2-7.3,4.2-9.6c0-1.9-0.7-2.8-2.3-2.8c-2.1,0-4.8,2.1-8.1,6.1
	c-3.3,4.1-6.1,8.6-8.4,13.5c-1,2-1.8,3.9-2.4,5.5c-3.9,4.8-7.5,7.1-10.8,7.1c-2,0-3-1.1-3-2.9c0-1.1,0.2-2.3,0.7-3.5
	c4,0.5,7.1,0.1,9.3-1.3c2.2-1.4,3.3-3.1,3.3-5c0-2.8-1.9-4.3-4.8-4.3c-1.8,0-3.8,0.6-5.8,1.9c-2.1,1.3-3.9,3-5.4,5.3
	c-1.5,2.3-2.3,4.7-2.3,7.2c0,3.8,2.4,6.3,6.3,6.3c2.6,0,5.2-1.1,8-3.2c1.3-1,2.4-2,3.5-3.1c0,0.3-0.1,0.6-0.1,0.9
	c0,3.6,1.5,5.4,4.4,5.4c2.8,0,5.4-2,8.7-6.1c0,0.2-0.1,0.5-0.1,0.7c0,3.4,1.5,5.4,4.5,5.4c3.7,0,7-3.4,11.9-10.6
	c0.4-0.6,0.2-1.5-0.6-1.5c-0.2,0-0.7,0.3-1.4,1.1c-3.9,4.8-6.6,7.2-8.1,7.2c-0.8,0-1.2-0.6-1.2-1.8c0-1.3,0.4-2.7,1.2-4.3
	c3.8-2.2,7.6-6,11.6-11.3C152.7,58.3,154.7,54.1,154.7,51.2z M151.7,52.1c-0.9,0-2.7,2-5.4,6.1c-2.7,4.1-5.3,8.5-7.9,13.5
	c3-2.2,6.1-5.6,9.2-10.1c3.1-4.5,4.6-7.5,4.6-9.2C152.1,52.2,151.9,52.1,151.7,52.1z"/>
</svg>
