<?xml version="1.0" encoding="utf-8"?>
<!-- Generator: Adobe Illustrator 19.0.0, SVG Export Plug-In . SVG Version: 6.00 Build 0)  -->
<svg version="1.1" id="Capa_1" xmlns="http://www.w3.org/2000/svg" xmlns:xlink="http://www.w3.org/1999/xlink" x="0px" y="0px"
	 viewBox="0 0 260 260" style="enable-background:new 0 0 260 260;" xml:space="preserve">
<style type="text/css">
	.st0{fill:#DE5113;}
</style>
<g id="XMLID_35_">
	<g id="XMLID_229_">
		<path id="XMLID_241_" class="st0" d="M132.9,118.8c1.2-0.8,1.8-1.7,1.8-2.7c0-0.7-0.3-1.1-0.9-1.1c-0.7,0-1.7,0.4-2.9,1.3
			c-1.2,0.9-2.2,2-3,3.3C130,119.9,131.7,119.6,132.9,118.8z"/>
		<path id="XMLID_240_" class="st0" d="M151.3,104.6c0-0.1-0.1-0.2-0.3-0.2c-1.2,0-4.2,4.6-9,13.9c2.9-3.1,5.2-5.9,6.9-8.4
			C150.5,107.3,151.3,105.6,151.3,104.6z"/>
		<path id="XMLID_239_" class="st0" d="M135.3,139.6c1.2-0.8,1.8-1.7,1.8-2.7c0-0.7-0.3-1.1-0.9-1.1c-0.7,0-1.7,0.4-2.9,1.3
			c-1.2,0.9-2.2,2-3,3.3C132.4,140.6,134.1,140.3,135.3,139.6z"/>
		<path id="XMLID_231_" class="st0" d="M130,69.4c-42.7,0-77.5,25.5-77.5,56.8c0,13.4,6.5,26.4,18.4,36.7l2,1.8l-0.8,2.6
			c-3,8.9-7.3,16.7-12.9,23.3c7.3-1.5,17.8-5.2,28.7-14.2l1.9-1.5l2.2,0.9c11.6,4.8,24.8,7.4,38.1,7.4c42.7,0,77.5-25.5,77.5-56.8
			C207.5,94.9,172.7,69.4,130,69.4z M110.5,104c1.4-0.3,6.2-0.8,14.2-1.6c1.1-1.3,2-2,2.6-2c0.7,0,1.1,0.3,1.1,0.9
			c0,0.2-0.1,0.4-0.3,0.8c5.3-0.5,8-0.7,8.2-0.7c2.1,0,3,1.2,3,2.6c0,0.6-0.5,0.9-1.4,1l-12.6,1.6c-1.4,2.1-2.9,4.8-4.7,7.9
			c-1.4,2.4-2.9,5.3-4.7,8.5c-1.6,2.9-2.6,4.7-3.1,5.4c-0.5,0.7-1.1,1-1.7,1c-1.4,0-2-0.6-2-1.8c0-0.9,0.9-2.8,3-6.1
			c1-1.7,1.9-3.1,2.7-4.3c0.8-1.2,1.9-2.9,3.3-5l3.3-5c-5.4,0.7-8.6,1-9.5,1c-2.7,0-4.1-0.7-4.1-2.2
			C107.7,104.8,108.4,104.3,110.5,104z M136,147c-2.1,1.6-4.1,2.4-6,2.4c-2.9,0-4.7-1.9-4.7-4.8c0,0,0-0.1,0-0.1
			c-2.6,3.2-4.7,4.8-7,4.8c-1.6,0-2.8-0.8-2.8-2.6c0-0.8,0.4-1.8,1.3-3.1c0.9-1.2,1.7-2.4,2.5-3.6c0.9-1.1,1.3-1.9,1.3-2.4
			c0-0.4-0.2-0.7-0.7-0.7c-2.2,0-5.4,3.5-9.5,10.6c-0.7,1.2-1.2,1.5-2.1,1.5c-1,0-1.5-0.4-1.5-1.1c0-0.6,0.2-1.1,1.1-2.5
			c0.4-0.7,0.7-1.2,0.9-1.5c0.4-0.7,0.9-1.5,1.6-2.5c0.7-1,1.2-1.8,1.5-2.4c0.3-0.6,0.5-1.1,0.5-1.5c0-0.6-0.3-0.8-0.7-0.8
			c-2,0-5.3,3.7-9.9,11.1c-0.6,0.9-1.2,1.3-1.9,1.3c-1,0-1.5-0.4-1.5-1.1c0-0.5,0.2-1.1,0.4-1.5c0.2-0.4,0.9-1.5,1.2-2l5.2-9.2
			c0.4-0.7,1-1.1,1.9-1.1c1,0,1.6,0.4,1.6,1.1c0,0.6-0.3,1.1-1.2,2.3c-0.4,0.6-0.8,1.2-1.1,1.7l0.1,0c2.8-3.4,4.8-5.3,7.1-5.3
			c1,0,1.7,0.5,2,1.4c0.3,0.9,0.1,2-0.6,3.2l0.1,0c2.4-3.1,4.6-4.7,6.6-4.7c1.6,0,2.5,1.1,2.5,2.7c0,1.5-1.2,3.7-2.5,5.3
			c-1.3,1.6-2.5,3.3-2.5,4c0,0.4,0.2,0.6,0.6,0.6c1.2,0,3.3-1.8,6.2-5.3c0.3-0.7,0.6-1.4,1.1-2.1c1.1-1.7,2.5-3.1,4.1-4
			c1.6-0.9,3-1.4,4.4-1.4c2.2,0,3.6,1.1,3.6,3.3c0,1.4-0.8,2.7-2.5,3.8c-1.7,1.1-4,1.4-7,1c-0.4,0.9-0.6,1.8-0.6,2.6
			c0,1.4,0.8,2.2,2.3,2.2c2.5,0,5.3-1.8,8.2-5.5c0.5-0.6,0.9-0.8,1.1-0.8c0.6,0,0.8,0.7,0.4,1.1C139.9,143.5,138.2,145.4,136,147z
			 M141.6,149.4c-1.4,0-2.3-0.8-2.3-2.1c0-1.3,1.4-2.4,2.8-2.4c1.4,0,2.3,0.8,2.3,2.1C144.5,148.3,143.1,149.4,141.6,149.4z
			 M149.5,149.4c-1.4,0-2.3-0.8-2.3-2.1c0-1.3,1.4-2.4,2.8-2.4c1.4,0,2.3,0.8,2.3,2.1C152.4,148.3,151,149.4,149.5,149.4z
			 M157.4,149.4c-1.4,0-2.3-0.8-2.3-2.1c0-1.3,1.4-2.4,2.8-2.4c1.4,0,2.3,0.8,2.3,2.1C160.2,148.3,158.8,149.4,157.4,149.4z
			 M159.5,112.7c-3,4-5.9,6.9-8.7,8.5c-0.6,1.2-0.9,2.3-0.9,3.3c0,0.9,0.3,1.4,0.9,1.4c1.1,0,3.2-1.8,6.1-5.4
			c0.5-0.6,0.9-0.8,1.1-0.8c0.6,0,0.8,0.7,0.4,1.1c-3.7,5.4-6.2,8-9,8c-2.3,0-3.4-1.5-3.4-4.1c0-0.2,0-0.4,0.1-0.6
			c-2.5,3.1-4.4,4.6-6.5,4.6c-2.2,0-3.3-1.4-3.3-4.1c0-0.2,0-0.5,0-0.7c-0.8,0.8-1.7,1.6-2.6,2.4c-2.1,1.6-4.1,2.4-6,2.4
			c-2.9,0-4.7-1.9-4.7-4.8c0-1.9,0.6-3.7,1.7-5.4c1.1-1.7,2.5-3.1,4.1-4c1.6-0.9,3-1.4,4.4-1.4c2.2,0,3.6,1.1,3.6,3.3
			c0,1.4-0.8,2.7-2.5,3.8c-1.7,1.1-4,1.4-7,1c-0.4,0.9-0.6,1.8-0.6,2.6c0,1.4,0.8,2.2,2.3,2.2c2.5,0,5.2-1.8,8.1-5.4
			c0.4-1.2,1-2.6,1.8-4.1c1.8-3.7,3.9-7.1,6.4-10.2c2.5-3.1,4.5-4.6,6.1-4.6c1.1,0,1.7,0.7,1.7,2.1c0,1.7-1.1,4.1-3.2,7.2
			c-2.1,3.1-5,6.4-8.8,9.9c-0.7,1.4-1.1,2.7-1.1,3.7c0,0.9,0.3,1.4,0.8,1.4c1.1,0,3.2-1.8,6.1-5.4c0,0,0.1-0.1,0.1-0.1
			c0.2-0.5,0.4-1,0.7-1.6c1.2-2.6,2.6-5.3,4.2-7.9c1.6-2.6,3.4-4.9,5.3-6.8c1.9-2,3.5-3,4.7-3c1.2,0,1.8,0.7,1.8,2.2
			C163.9,105.5,162.5,108.6,159.5,112.7z"/>
		<path id="XMLID_230_" class="st0" d="M161.7,103.9c-0.7,0-2.1,1.5-4.1,4.6c-2,3.1-4,6.4-6,10.2c2.3-1.7,4.6-4.2,6.9-7.6
			c2.3-3.4,3.5-5.7,3.5-7C162,104,161.9,103.9,161.7,103.9z"/>
	</g>
</g>
</svg>
